M48
; DRILL file {KiCad (6.0.6)} date Fri 22 Jul 2022 11:56:38 PM CEST
; FORMAT={-:-/ absolute / inch / decimal}
; #@! TF.CreationDate,2022-07-22T23:56:38+02:00
; #@! TF.GenerationSoftware,Kicad,Pcbnew,(6.0.6)
; #@! TF.FileFunction,NonPlated,1,2,NPTH
FMAT,2
INCH
; #@! TA.AperFunction,NonPlated,NPTH,ComponentDrill
T1C0.0689
; #@! TA.AperFunction,NonPlated,NPTH,ComponentDrill
T2C0.1200
; #@! TA.AperFunction,NonPlated,NPTH,ComponentDrill
T3C0.1570
%
G90
G05
T1
X0.1543Y-0.3543
X0.2481Y-1.8543
X0.3418Y-1.1043
X0.3418Y-3.3543
X0.4356Y-1.8543
X0.5543Y-0.3543
X0.6231Y-2.6043
X0.6481Y-1.8543
X0.7418Y-1.1043
X0.7418Y-3.3543
X0.8356Y-1.8543
X0.9043Y-0.3543
X1.0231Y-2.6043
X1.2793Y-3.3543
X1.2793Y-1.1043
X1.3043Y-0.3543
X1.4668Y-1.8543
X1.6543Y-0.3543
X1.6793Y-3.3543
X1.6793Y-1.1043
X1.8418Y-2.6043
X1.8668Y-1.8543
X2.0293Y-1.1043
X2.0543Y-0.3543
X2.1231Y-3.3543
X2.2168Y-1.8543
X2.2418Y-2.6043
X2.4043Y-0.3543
X2.4293Y-1.1043
X2.5231Y-3.3543
X2.5918Y-2.6043
X2.6168Y-1.8543
X2.7793Y-1.1043
X2.8043Y-0.3543
X2.9668Y-1.8543
X2.9918Y-2.6043
X3.0605Y-3.3543
X3.1543Y-0.3543
X3.1793Y-1.1043
X3.3418Y-2.6043
X3.3668Y-1.8543
X3.4605Y-3.3543
X3.5293Y-1.1043
X3.5543Y-0.3543
X3.7168Y-1.8543
X3.7418Y-2.6043
X3.9043Y-0.3543
X3.9293Y-1.1043
X4.0918Y-2.6043
X4.1168Y-1.8543
X4.2793Y-1.1043
X4.3043Y-0.3543
X4.4668Y-1.8543
X4.4918Y-2.6043
X4.5605Y-3.3543
X4.6543Y-0.3543
X4.6793Y-1.1043
X4.8418Y-2.6043
X4.8668Y-1.8543
X4.9605Y-3.3543
X5.0293Y-1.1043
X5.0543Y-0.3543
X5.2168Y-1.8543
X5.2418Y-2.6043
X5.4043Y-0.3543
X5.4293Y-1.1043
X5.5918Y-2.6043
X5.6168Y-1.8543
X5.7793Y-1.1043
X5.8043Y-0.3543
X5.9668Y-1.8543
X5.9918Y-2.6043
X6.1543Y-0.3543
X6.1793Y-1.1043
X6.3418Y-3.3543
X6.3418Y-2.6043
X6.3668Y-1.8543
X6.5293Y-1.1043
X6.5543Y-0.3543
X6.7168Y-1.8543
X6.7418Y-3.3543
X6.7418Y-2.6043
X6.9043Y-0.3543
X6.9293Y-1.1043
X7.0918Y-2.6043
X7.1168Y-1.8543
X7.2793Y-1.1043
X7.3043Y-0.3543
X7.4668Y-1.8543
X7.4918Y-2.6043
X7.5606Y-3.3543
X7.6543Y-0.3543
X7.6793Y-1.1043
X7.8418Y-2.6043
X7.8668Y-1.8543
X7.9606Y-3.3543
X8.0293Y-1.1043
X8.0543Y-0.3543
X8.2168Y-1.8543
X8.2418Y-2.6043
X8.4043Y-0.3543
X8.4293Y-1.1043
X8.5918Y-2.6043
X8.5918Y-3.3543
X8.6168Y-1.8543
X8.7793Y-1.1043
X8.8043Y-0.3543
X8.9668Y-1.8543
X8.9918Y-2.6043
X8.9918Y-3.3543
X9.1543Y-0.3543
X9.1793Y-1.1043
X9.3668Y-1.8543
X9.5293Y-1.1043
X9.5293Y-3.3543
X9.5543Y-0.3543
X9.6231Y-2.6043
X9.9043Y-0.3543
X9.9293Y-1.1043
X9.9293Y-3.3543
X9.9981Y-2.6043
X10.0231Y-2.6043
X10.1856Y-1.8543
X10.2793Y-0.3543
X10.3043Y-0.3543
X10.3981Y-2.6043
X10.4668Y-1.1043
X10.4668Y-3.3543
X10.5856Y-1.8543
X10.6543Y-0.3543
X10.6543Y-2.6043
X10.6793Y-0.3543
X10.8668Y-1.1043
X10.8668Y-3.3543
X11.0543Y-0.3543
X11.0543Y-2.6043
T2
X0.3543Y-2.3293
X1.2918Y-2.3293
X4.2918Y-3.6293
X5.2293Y-3.6293
X6.073Y-3.6293
X7.0105Y-3.6293
X9.7293Y-2.3293
X9.9168Y-1.5793
X10.0106Y-0.0793
X10.6668Y-2.3293
X10.8543Y-1.5793
X10.9481Y-0.0793
T3
X0.3543Y-0.3543
X0.3543Y-2.9293
X0.4481Y-1.8543
X0.5418Y-1.1043
X0.5418Y-3.3543
X0.6356Y-1.8543
X0.8231Y-2.6043
X1.1043Y-0.3543
X1.2918Y-2.9293
X1.4793Y-3.3543
X1.4793Y-1.1043
X1.6668Y-1.8543
X1.8543Y-0.3543
X2.0418Y-2.6043
X2.2293Y-1.1043
X2.3231Y-3.3543
X2.4168Y-1.8543
X2.6043Y-0.3543
X2.7918Y-2.6043
X2.9793Y-1.1043
X3.1668Y-1.8543
X3.2605Y-3.3543
X3.3543Y-0.3543
X3.5418Y-2.6043
X3.7293Y-1.1043
X3.9168Y-1.8543
X4.1043Y-0.3543
X4.2918Y-3.0293
X4.2918Y-2.6043
X4.4793Y-1.1043
X4.6668Y-1.8543
X4.7605Y-3.3543
X4.8543Y-0.3543
X5.0418Y-2.6043
X5.2293Y-3.0293
X5.2293Y-1.1043
X5.4168Y-1.8543
X5.6043Y-0.3543
X5.7918Y-2.6043
X5.9793Y-1.1043
X6.073Y-3.0293
X6.1668Y-1.8543
X6.3543Y-0.3543
X6.5418Y-3.3543
X6.5418Y-2.6043
X6.7293Y-1.1043
X6.9168Y-1.8543
X7.0105Y-3.0293
X7.1043Y-0.3543
X7.2918Y-2.6043
X7.4793Y-1.1043
X7.6668Y-1.8543
X7.7606Y-3.3543
X7.8543Y-0.3543
X8.0418Y-2.6043
X8.2293Y-1.1043
X8.4168Y-1.8543
X8.6043Y-0.3543
X8.7918Y-2.6043
X8.7918Y-3.3543
X8.9793Y-1.1043
X9.1668Y-1.8543
X9.3543Y-0.3543
X9.7293Y-1.1043
X9.7293Y-2.9293
X9.7293Y-3.3543
X9.8231Y-2.6043
X9.9168Y-2.1793
X10.0106Y-0.6793
X10.1043Y-0.3543
X10.1981Y-2.6043
X10.3856Y-1.8543
X10.4793Y-0.3543
X10.6668Y-1.1043
X10.6668Y-2.9293
X10.6668Y-3.3543
X10.8543Y-0.3543
X10.8543Y-2.1793
X10.8543Y-2.6043
X10.9481Y-0.6793
T0
M30
