M48
; DRILL file {KiCad (6.0.6)} date Sat 23 Jul 2022 11:14:35 AM CEST
; FORMAT={-:-/ absolute / inch / decimal}
; #@! TF.CreationDate,2022-07-23T11:14:35+02:00
; #@! TF.GenerationSoftware,Kicad,Pcbnew,(6.0.6)
; #@! TF.FileFunction,Plated,1,2,PTH
FMAT,2
INCH
; #@! TA.AperFunction,Plated,PTH,ViaDrill
T1C0.0157
; #@! TA.AperFunction,Plated,PTH,ComponentDrill
T2C0.0394
; #@! TA.AperFunction,Plated,PTH,ComponentDrill
T3C0.0579
%
G90
G05
T1
X0.4036Y-0.765
X0.6418Y-1.4099
X0.6758Y-1.4668
X0.7789Y-1.4139
X0.7937Y-1.2319
X0.8076Y-1.385
X0.836Y-1.4122
X0.8899Y-0.4505
X0.8998Y-1.263
X0.9013Y-1.2033
X0.9236Y-0.552
X0.9405Y-3.4505
X0.9693Y-2.7004
X0.9728Y-0.552
X0.9982Y-1.1932
X1.022Y-0.552
X1.0334Y-1.9665
X1.1395Y-2.1248
X1.1559Y-1.1927
X1.2068Y-0.9154
X1.2252Y-1.9
X1.2368Y-2.1508
X1.256Y-0.9154
X1.2991Y-1.9125
X1.3052Y-0.9154
X1.3484Y-1.1598
X1.4521Y-1.913
X1.4874Y-1.2543
X1.584Y-0.7843
X1.6097Y-1.3016
X1.6753Y-0.552
X1.9372Y-1.2693
X11.0096Y-2.01
T2
X0.2043Y-0.6192
X0.2043Y-0.7192
X0.2043Y-0.8192
X0.3043Y-0.6192
X0.3043Y-0.7192
X0.3043Y-0.8192
T3
X0.2043Y-0.2543
X0.2981Y-1.7543
X0.3918Y-1.0043
X0.3918Y-3.2543
X0.4543Y-0.1543
X0.4856Y-1.7543
X0.5481Y-1.6543
X0.6418Y-0.9043
X0.6418Y-3.1543
X0.6731Y-2.5043
X0.7356Y-1.6543
X0.9231Y-2.4043
X0.9543Y-0.2543
X1.2043Y-0.1543
X1.3293Y-3.2543
X1.3293Y-1.0043
X1.5168Y-1.7543
X1.5793Y-3.1543
X1.5793Y-0.9043
X1.7043Y-0.2543
X1.7668Y-1.6543
X1.8918Y-2.5043
X1.9543Y-0.1543
X2.0793Y-1.0043
X2.1418Y-2.4043
X2.1731Y-3.2543
X2.2668Y-1.7543
X2.3293Y-0.9043
X2.4231Y-3.1543
X2.4543Y-0.2543
X2.5168Y-1.6543
X2.6418Y-2.5043
X2.7043Y-0.1543
X2.8293Y-1.0043
X2.8918Y-2.4043
X3.0168Y-1.7543
X3.0793Y-0.9043
X3.1105Y-3.2543
X3.2043Y-0.2543
X3.2668Y-1.6543
X3.3605Y-3.1543
X3.3918Y-2.5043
X3.4543Y-0.1543
X3.5793Y-1.0043
X3.6418Y-2.4043
X3.7668Y-1.7543
X3.8293Y-0.9043
X3.9543Y-0.2543
X4.0168Y-1.6543
X4.1418Y-2.5043
X4.2043Y-0.1543
X4.3293Y-1.0043
X4.3918Y-2.4043
X4.5168Y-1.7543
X4.5793Y-0.9043
X4.6105Y-3.2543
X4.7043Y-0.2543
X4.7668Y-1.6543
X4.8605Y-3.1543
X4.8918Y-2.5043
X4.9543Y-0.1543
X5.0793Y-1.0043
X5.1418Y-2.4043
X5.2668Y-1.7543
X5.3293Y-0.9043
X5.4543Y-0.2543
X5.5168Y-1.6543
X5.6418Y-2.5043
X5.7043Y-0.1543
X5.8293Y-1.0043
X5.8918Y-2.4043
X6.0168Y-1.7543
X6.0793Y-0.9043
X6.2043Y-0.2543
X6.2668Y-1.6543
X6.3918Y-3.2543
X6.3918Y-2.5043
X6.4543Y-0.1543
X6.5793Y-1.0043
X6.6418Y-3.1543
X6.6418Y-2.4043
X6.7668Y-1.7543
X6.8293Y-0.9043
X6.9543Y-0.2543
X7.0168Y-1.6543
X7.1418Y-2.5043
X7.2043Y-0.1543
X7.3293Y-1.0043
X7.3918Y-2.4043
X7.5168Y-1.7543
X7.5793Y-0.9043
X7.6106Y-3.2543
X7.7043Y-0.2543
X7.7668Y-1.6543
X7.8606Y-3.1543
X7.8918Y-2.5043
X7.9543Y-0.1543
X8.0793Y-1.0043
X8.1418Y-2.4043
X8.2668Y-1.7543
X8.3293Y-0.9043
X8.4543Y-0.2543
X8.5168Y-1.6543
X8.6418Y-2.5043
X8.6418Y-3.2543
X8.7043Y-0.1543
X8.8293Y-1.0043
X8.8918Y-2.4043
X8.8918Y-3.1543
X9.0168Y-1.7543
X9.0793Y-0.9043
X9.2043Y-0.2543
X9.2668Y-1.6543
X9.4543Y-0.1543
X9.5793Y-1.0043
X9.5793Y-3.2543
X9.6731Y-2.5043
X9.8293Y-0.9043
X9.8293Y-3.1543
X9.9231Y-2.4043
X9.9543Y-0.2543
X10.0481Y-2.5043
X10.2043Y-0.1543
X10.2356Y-1.7543
X10.2981Y-2.4043
X10.4856Y-1.6543
X10.5168Y-1.0043
X10.5168Y-3.2543
X10.7043Y-0.2543
X10.7043Y-2.5043
X10.7668Y-0.9043
X10.7668Y-3.1543
X10.9543Y-0.1543
X10.9543Y-2.4043
T0
M30
