%TF.GenerationSoftware,KiCad,Pcbnew,(6.0.6)*%
%TF.CreationDate,2022-07-23T11:14:35+02:00*%
%TF.ProjectId,bakeneko-60-pcb,62616b65-6e65-46b6-9f2d-36302d706362,rev?*%
%TF.SameCoordinates,Original*%
%TF.FileFunction,Legend,Bot*%
%TF.FilePolarity,Positive*%
%FSLAX46Y46*%
G04 Gerber Fmt 4.6, Leading zero omitted, Abs format (unit mm)*
G04 Created by KiCad (PCBNEW (6.0.6)) date 2022-07-23 11:14:35*
%MOMM*%
%LPD*%
G01*
G04 APERTURE LIST*
G04 Aperture macros list*
%AMRoundRect*
0 Rectangle with rounded corners*
0 $1 Rounding radius*
0 $2 $3 $4 $5 $6 $7 $8 $9 X,Y pos of 4 corners*
0 Add a 4 corners polygon primitive as box body*
4,1,4,$2,$3,$4,$5,$6,$7,$8,$9,$2,$3,0*
0 Add four circle primitives for the rounded corners*
1,1,$1+$1,$2,$3*
1,1,$1+$1,$4,$5*
1,1,$1+$1,$6,$7*
1,1,$1+$1,$8,$9*
0 Add four rect primitives between the rounded corners*
20,1,$1+$1,$2,$3,$4,$5,0*
20,1,$1+$1,$4,$5,$6,$7,0*
20,1,$1+$1,$6,$7,$8,$9,0*
20,1,$1+$1,$8,$9,$2,$3,0*%
G04 Aperture macros list end*
%ADD10C,0.150000*%
%ADD11C,0.120000*%
%ADD12C,1.850000*%
%ADD13C,4.087800*%
%ADD14C,2.350000*%
%ADD15C,3.148000*%
%ADD16RoundRect,0.300000X-0.375000X-0.625000X0.375000X-0.625000X0.375000X0.625000X-0.375000X0.625000X0*%
%ADD17RoundRect,0.200000X-0.625000X0.150000X-0.625000X-0.150000X0.625000X-0.150000X0.625000X0.150000X0*%
%ADD18RoundRect,0.300000X-0.650000X0.350000X-0.650000X-0.350000X0.650000X-0.350000X0.650000X0.350000X0*%
%ADD19O,1.800000X1.800000*%
%ADD20RoundRect,0.050000X0.850000X0.850000X-0.850000X0.850000X-0.850000X-0.850000X0.850000X-0.850000X0*%
%ADD21RoundRect,0.293750X-0.243750X-0.456250X0.243750X-0.456250X0.243750X0.456250X-0.243750X0.456250X0*%
%ADD22RoundRect,0.050000X-0.850000X-0.500000X0.850000X-0.500000X0.850000X0.500000X-0.850000X0.500000X0*%
%ADD23RoundRect,0.293750X0.243750X0.456250X-0.243750X0.456250X-0.243750X-0.456250X0.243750X-0.456250X0*%
%ADD24RoundRect,0.050000X-0.275000X0.750000X-0.275000X-0.750000X0.275000X-0.750000X0.275000X0.750000X0*%
%ADD25RoundRect,0.050000X0.750000X0.275000X-0.750000X0.275000X-0.750000X-0.275000X0.750000X-0.275000X0*%
%ADD26RoundRect,0.050000X0.700000X0.600000X-0.700000X0.600000X-0.700000X-0.600000X0.700000X-0.600000X0*%
%ADD27RoundRect,0.293750X-0.456250X0.243750X-0.456250X-0.243750X0.456250X-0.243750X0.456250X0.243750X0*%
%ADD28RoundRect,0.050000X0.600000X-0.450000X0.600000X0.450000X-0.600000X0.450000X-0.600000X-0.450000X0*%
%ADD29RoundRect,0.293750X0.456250X-0.243750X0.456250X0.243750X-0.456250X0.243750X-0.456250X-0.243750X0*%
%ADD30RoundRect,0.050000X0.325000X-0.530000X0.325000X0.530000X-0.325000X0.530000X-0.325000X-0.530000X0*%
%ADD31C,0.900000*%
G04 APERTURE END LIST*
D10*
X154079047Y-56415714D02*
X154079047Y-57082380D01*
X154317142Y-56034761D02*
X154555238Y-56749047D01*
X153936190Y-56749047D01*
X153364761Y-56082380D02*
X153269523Y-56082380D01*
X153174285Y-56130000D01*
X153126666Y-56177619D01*
X153079047Y-56272857D01*
X153031428Y-56463333D01*
X153031428Y-56701428D01*
X153079047Y-56891904D01*
X153126666Y-56987142D01*
X153174285Y-57034761D01*
X153269523Y-57082380D01*
X153364761Y-57082380D01*
X153460000Y-57034761D01*
X153507619Y-56987142D01*
X153555238Y-56891904D01*
X153602857Y-56701428D01*
X153602857Y-56463333D01*
X153555238Y-56272857D01*
X153507619Y-56177619D01*
X153460000Y-56130000D01*
X153364761Y-56082380D01*
X152602857Y-56701428D02*
X151840952Y-56701428D01*
X151364761Y-57082380D02*
X151364761Y-56415714D01*
X151364761Y-56082380D02*
X151412380Y-56130000D01*
X151364761Y-56177619D01*
X151317142Y-56130000D01*
X151364761Y-56082380D01*
X151364761Y-56177619D01*
X150936190Y-57034761D02*
X150840952Y-57082380D01*
X150650476Y-57082380D01*
X150555238Y-57034761D01*
X150507619Y-56939523D01*
X150507619Y-56891904D01*
X150555238Y-56796666D01*
X150650476Y-56749047D01*
X150793333Y-56749047D01*
X150888571Y-56701428D01*
X150936190Y-56606190D01*
X150936190Y-56558571D01*
X150888571Y-56463333D01*
X150793333Y-56415714D01*
X150650476Y-56415714D01*
X150555238Y-56463333D01*
X150079047Y-57082380D02*
X150079047Y-56082380D01*
X149650476Y-57082380D02*
X149650476Y-56558571D01*
X149698095Y-56463333D01*
X149793333Y-56415714D01*
X149936190Y-56415714D01*
X150031428Y-56463333D01*
X150079047Y-56510952D01*
X148412380Y-57082380D02*
X148412380Y-56082380D01*
X148412380Y-56463333D02*
X148317142Y-56415714D01*
X148126666Y-56415714D01*
X148031428Y-56463333D01*
X147983809Y-56510952D01*
X147936190Y-56606190D01*
X147936190Y-56891904D01*
X147983809Y-56987142D01*
X148031428Y-57034761D01*
X148126666Y-57082380D01*
X148317142Y-57082380D01*
X148412380Y-57034761D01*
X147602857Y-56415714D02*
X147364761Y-57082380D01*
X147126666Y-56415714D02*
X147364761Y-57082380D01*
X147460000Y-57320476D01*
X147507619Y-57368095D01*
X147602857Y-57415714D01*
X145983809Y-57082380D02*
X145983809Y-56082380D01*
X145507619Y-56415714D02*
X145507619Y-57082380D01*
X145507619Y-56510952D02*
X145460000Y-56463333D01*
X145364761Y-56415714D01*
X145221904Y-56415714D01*
X145126666Y-56463333D01*
X145079047Y-56558571D01*
X145079047Y-57082380D01*
X144745714Y-56415714D02*
X144364761Y-56415714D01*
X144602857Y-56082380D02*
X144602857Y-56939523D01*
X144555238Y-57034761D01*
X144460000Y-57082380D01*
X144364761Y-57082380D01*
X143650476Y-57034761D02*
X143745714Y-57082380D01*
X143936190Y-57082380D01*
X144031428Y-57034761D01*
X144079047Y-56939523D01*
X144079047Y-56558571D01*
X144031428Y-56463333D01*
X143936190Y-56415714D01*
X143745714Y-56415714D01*
X143650476Y-56463333D01*
X143602857Y-56558571D01*
X143602857Y-56653809D01*
X144079047Y-56749047D01*
X143174285Y-57082380D02*
X143174285Y-56415714D01*
X143174285Y-56606190D02*
X143126666Y-56510952D01*
X143079047Y-56463333D01*
X142983809Y-56415714D01*
X142888571Y-56415714D01*
X142555238Y-56415714D02*
X142555238Y-57082380D01*
X142555238Y-56510952D02*
X142507619Y-56463333D01*
X142412380Y-56415714D01*
X142269523Y-56415714D01*
X142174285Y-56463333D01*
X142126666Y-56558571D01*
X142126666Y-57082380D01*
X141269523Y-57034761D02*
X141364761Y-57082380D01*
X141555238Y-57082380D01*
X141650476Y-57034761D01*
X141698095Y-56939523D01*
X141698095Y-56558571D01*
X141650476Y-56463333D01*
X141555238Y-56415714D01*
X141364761Y-56415714D01*
X141269523Y-56463333D01*
X141221904Y-56558571D01*
X141221904Y-56653809D01*
X141698095Y-56749047D01*
X140936190Y-56415714D02*
X140555238Y-56415714D01*
X140793333Y-56082380D02*
X140793333Y-56939523D01*
X140745714Y-57034761D01*
X140650476Y-57082380D01*
X140555238Y-57082380D01*
X140221904Y-57082380D02*
X140221904Y-56082380D01*
X140221904Y-56463333D02*
X140126666Y-56415714D01*
X139936190Y-56415714D01*
X139840952Y-56463333D01*
X139793333Y-56510952D01*
X139745714Y-56606190D01*
X139745714Y-56891904D01*
X139793333Y-56987142D01*
X139840952Y-57034761D01*
X139936190Y-57082380D01*
X140126666Y-57082380D01*
X140221904Y-57034761D01*
X138888571Y-57082380D02*
X138888571Y-56558571D01*
X138936190Y-56463333D01*
X139031428Y-56415714D01*
X139221904Y-56415714D01*
X139317142Y-56463333D01*
X138888571Y-57034761D02*
X138983809Y-57082380D01*
X139221904Y-57082380D01*
X139317142Y-57034761D01*
X139364761Y-56939523D01*
X139364761Y-56844285D01*
X139317142Y-56749047D01*
X139221904Y-56701428D01*
X138983809Y-56701428D01*
X138888571Y-56653809D01*
X138412380Y-57082380D02*
X138412380Y-56415714D01*
X138412380Y-56606190D02*
X138364761Y-56510952D01*
X138317142Y-56463333D01*
X138221904Y-56415714D01*
X138126666Y-56415714D01*
X137650476Y-57082380D02*
X137745714Y-57034761D01*
X137793333Y-56987142D01*
X137840952Y-56891904D01*
X137840952Y-56606190D01*
X137793333Y-56510952D01*
X137745714Y-56463333D01*
X137650476Y-56415714D01*
X137507619Y-56415714D01*
X137412380Y-56463333D01*
X137364761Y-56510952D01*
X137317142Y-56606190D01*
X137317142Y-56891904D01*
X137364761Y-56987142D01*
X137412380Y-57034761D01*
X137507619Y-57082380D01*
X137650476Y-57082380D01*
X136888571Y-57082380D02*
X136888571Y-56082380D01*
X136317142Y-57082380D01*
X136317142Y-56082380D01*
X135174285Y-56415714D02*
X134936190Y-57082380D01*
X134698095Y-56415714D01*
X133793333Y-57082380D02*
X134364761Y-57082380D01*
X134079047Y-57082380D02*
X134079047Y-56082380D01*
X134174285Y-56225238D01*
X134269523Y-56320476D01*
X134364761Y-56368095D01*
X133364761Y-56987142D02*
X133317142Y-57034761D01*
X133364761Y-57082380D01*
X133412380Y-57034761D01*
X133364761Y-56987142D01*
X133364761Y-57082380D01*
X132698095Y-56082380D02*
X132602857Y-56082380D01*
X132507619Y-56130000D01*
X132460000Y-56177619D01*
X132412380Y-56272857D01*
X132364761Y-56463333D01*
X132364761Y-56701428D01*
X132412380Y-56891904D01*
X132460000Y-56987142D01*
X132507619Y-57034761D01*
X132602857Y-57082380D01*
X132698095Y-57082380D01*
X132793333Y-57034761D01*
X132840952Y-56987142D01*
X132888571Y-56891904D01*
X132936190Y-56701428D01*
X132936190Y-56463333D01*
X132888571Y-56272857D01*
X132840952Y-56177619D01*
X132793333Y-56130000D01*
X132698095Y-56082380D01*
%TO.C,F1*%
X25043333Y-18868571D02*
X25376666Y-18868571D01*
X25376666Y-19392380D02*
X25376666Y-18392380D01*
X24900476Y-18392380D01*
X23995714Y-19392380D02*
X24567142Y-19392380D01*
X24281428Y-19392380D02*
X24281428Y-18392380D01*
X24376666Y-18535238D01*
X24471904Y-18630476D01*
X24567142Y-18678095D01*
%TO.C,J1*%
X42472380Y-17166666D02*
X43186666Y-17166666D01*
X43329523Y-17119047D01*
X43424761Y-17023809D01*
X43472380Y-16880952D01*
X43472380Y-16785714D01*
X43472380Y-18166666D02*
X43472380Y-17595238D01*
X43472380Y-17880952D02*
X42472380Y-17880952D01*
X42615238Y-17785714D01*
X42710476Y-17690476D01*
X42758095Y-17595238D01*
%TO.C,J2*%
X11168928Y-20396786D02*
X10918928Y-21146786D01*
X10668928Y-20396786D01*
X9990357Y-21075358D02*
X10026071Y-21111072D01*
X10133214Y-21146786D01*
X10204642Y-21146786D01*
X10311785Y-21111072D01*
X10383214Y-21039643D01*
X10418928Y-20968215D01*
X10454642Y-20825358D01*
X10454642Y-20718215D01*
X10418928Y-20575358D01*
X10383214Y-20503929D01*
X10311785Y-20432501D01*
X10204642Y-20396786D01*
X10133214Y-20396786D01*
X10026071Y-20432501D01*
X9990357Y-20468215D01*
X9240357Y-21075358D02*
X9276071Y-21111072D01*
X9383214Y-21146786D01*
X9454642Y-21146786D01*
X9561785Y-21111072D01*
X9633214Y-21039643D01*
X9668928Y-20968215D01*
X9704642Y-20825358D01*
X9704642Y-20718215D01*
X9668928Y-20575358D01*
X9633214Y-20503929D01*
X9561785Y-20432501D01*
X9454642Y-20396786D01*
X9383214Y-20396786D01*
X9276071Y-20432501D01*
X9240357Y-20468215D01*
X11633214Y-18606786D02*
X11633214Y-17856786D01*
X11383214Y-18392501D01*
X11133214Y-17856786D01*
X11133214Y-18606786D01*
X10633214Y-17856786D02*
X10490357Y-17856786D01*
X10418928Y-17892501D01*
X10347500Y-17963929D01*
X10311785Y-18106786D01*
X10311785Y-18356786D01*
X10347500Y-18499643D01*
X10418928Y-18571072D01*
X10490357Y-18606786D01*
X10633214Y-18606786D01*
X10704642Y-18571072D01*
X10776071Y-18499643D01*
X10811785Y-18356786D01*
X10811785Y-18106786D01*
X10776071Y-17963929D01*
X10704642Y-17892501D01*
X10633214Y-17856786D01*
X10026071Y-18571072D02*
X9918928Y-18606786D01*
X9740357Y-18606786D01*
X9668928Y-18571072D01*
X9633214Y-18535358D01*
X9597500Y-18463929D01*
X9597500Y-18392501D01*
X9633214Y-18321072D01*
X9668928Y-18285358D01*
X9740357Y-18249643D01*
X9883214Y-18213929D01*
X9954642Y-18178215D01*
X9990357Y-18142501D01*
X10026071Y-18071072D01*
X10026071Y-17999643D01*
X9990357Y-17928215D01*
X9954642Y-17892501D01*
X9883214Y-17856786D01*
X9704642Y-17856786D01*
X9597500Y-17892501D01*
X9276071Y-18606786D02*
X9276071Y-17856786D01*
X3643928Y-21146786D02*
X3643928Y-20396786D01*
X3393928Y-20932501D01*
X3143928Y-20396786D01*
X3143928Y-21146786D01*
X2786785Y-21146786D02*
X2786785Y-20396786D01*
X2465357Y-21111072D02*
X2358214Y-21146786D01*
X2179642Y-21146786D01*
X2108214Y-21111072D01*
X2072500Y-21075358D01*
X2036785Y-21003929D01*
X2036785Y-20932501D01*
X2072500Y-20861072D01*
X2108214Y-20825358D01*
X2179642Y-20789643D01*
X2322500Y-20753929D01*
X2393928Y-20718215D01*
X2429642Y-20682501D01*
X2465357Y-20611072D01*
X2465357Y-20539643D01*
X2429642Y-20468215D01*
X2393928Y-20432501D01*
X2322500Y-20396786D01*
X2143928Y-20396786D01*
X2036785Y-20432501D01*
X1572500Y-20396786D02*
X1429642Y-20396786D01*
X1358214Y-20432501D01*
X1286785Y-20503929D01*
X1251071Y-20646786D01*
X1251071Y-20896786D01*
X1286785Y-21039643D01*
X1358214Y-21111072D01*
X1429642Y-21146786D01*
X1572500Y-21146786D01*
X1643928Y-21111072D01*
X1715357Y-21039643D01*
X1751071Y-20896786D01*
X1751071Y-20646786D01*
X1715357Y-20503929D01*
X1643928Y-20432501D01*
X1572500Y-20396786D01*
X10811785Y-15352501D02*
X10883214Y-15316786D01*
X10990357Y-15316786D01*
X11097500Y-15352501D01*
X11168928Y-15423929D01*
X11204642Y-15495358D01*
X11240357Y-15638215D01*
X11240357Y-15745358D01*
X11204642Y-15888215D01*
X11168928Y-15959643D01*
X11097500Y-16031072D01*
X10990357Y-16066786D01*
X10918928Y-16066786D01*
X10811785Y-16031072D01*
X10776071Y-15995358D01*
X10776071Y-15745358D01*
X10918928Y-15745358D01*
X10454642Y-16066786D02*
X10454642Y-15316786D01*
X10026071Y-16066786D01*
X10026071Y-15316786D01*
X9668928Y-16066786D02*
X9668928Y-15316786D01*
X9490357Y-15316786D01*
X9383214Y-15352501D01*
X9311785Y-15423929D01*
X9276071Y-15495358D01*
X9240357Y-15638215D01*
X9240357Y-15745358D01*
X9276071Y-15888215D01*
X9311785Y-15959643D01*
X9383214Y-16031072D01*
X9490357Y-16066786D01*
X9668928Y-16066786D01*
X3679642Y-18571072D02*
X3572500Y-18606786D01*
X3393928Y-18606786D01*
X3322500Y-18571072D01*
X3286785Y-18535358D01*
X3251071Y-18463929D01*
X3251071Y-18392501D01*
X3286785Y-18321072D01*
X3322500Y-18285358D01*
X3393928Y-18249643D01*
X3536785Y-18213929D01*
X3608214Y-18178215D01*
X3643928Y-18142501D01*
X3679642Y-18071072D01*
X3679642Y-17999643D01*
X3643928Y-17928215D01*
X3608214Y-17892501D01*
X3536785Y-17856786D01*
X3358214Y-17856786D01*
X3251071Y-17892501D01*
X2501071Y-18535358D02*
X2536785Y-18571072D01*
X2643928Y-18606786D01*
X2715357Y-18606786D01*
X2822500Y-18571072D01*
X2893928Y-18499643D01*
X2929642Y-18428215D01*
X2965357Y-18285358D01*
X2965357Y-18178215D01*
X2929642Y-18035358D01*
X2893928Y-17963929D01*
X2822500Y-17892501D01*
X2715357Y-17856786D01*
X2643928Y-17856786D01*
X2536785Y-17892501D01*
X2501071Y-17928215D01*
X2179642Y-18606786D02*
X2179642Y-17856786D01*
X1751071Y-18606786D02*
X2072500Y-18178215D01*
X1751071Y-17856786D02*
X2179642Y-18285358D01*
X3215357Y-16066786D02*
X3465357Y-15709643D01*
X3643928Y-16066786D02*
X3643928Y-15316786D01*
X3358214Y-15316786D01*
X3286785Y-15352501D01*
X3251071Y-15388215D01*
X3215357Y-15459643D01*
X3215357Y-15566786D01*
X3251071Y-15638215D01*
X3286785Y-15673929D01*
X3358214Y-15709643D01*
X3643928Y-15709643D01*
X2929642Y-16031072D02*
X2822500Y-16066786D01*
X2643928Y-16066786D01*
X2572500Y-16031072D01*
X2536785Y-15995358D01*
X2501071Y-15923929D01*
X2501071Y-15852501D01*
X2536785Y-15781072D01*
X2572500Y-15745358D01*
X2643928Y-15709643D01*
X2786785Y-15673929D01*
X2858214Y-15638215D01*
X2893928Y-15602501D01*
X2929642Y-15531072D01*
X2929642Y-15459643D01*
X2893928Y-15388215D01*
X2858214Y-15352501D01*
X2786785Y-15316786D01*
X2608214Y-15316786D01*
X2501071Y-15352501D01*
X2286785Y-15316786D02*
X1858214Y-15316786D01*
X2072500Y-16066786D02*
X2072500Y-15316786D01*
%TO.C,R1*%
X32506666Y-20852380D02*
X32840000Y-20376190D01*
X33078095Y-20852380D02*
X33078095Y-19852380D01*
X32697142Y-19852380D01*
X32601904Y-19900000D01*
X32554285Y-19947619D01*
X32506666Y-20042857D01*
X32506666Y-20185714D01*
X32554285Y-20280952D01*
X32601904Y-20328571D01*
X32697142Y-20376190D01*
X33078095Y-20376190D01*
X31554285Y-20852380D02*
X32125714Y-20852380D01*
X31840000Y-20852380D02*
X31840000Y-19852380D01*
X31935238Y-19995238D01*
X32030476Y-20090476D01*
X32125714Y-20138095D01*
%TO.C,R2*%
X32556666Y-15118630D02*
X32890000Y-14642440D01*
X33128095Y-15118630D02*
X33128095Y-14118630D01*
X32747142Y-14118630D01*
X32651904Y-14166250D01*
X32604285Y-14213869D01*
X32556666Y-14309107D01*
X32556666Y-14451964D01*
X32604285Y-14547202D01*
X32651904Y-14594821D01*
X32747142Y-14642440D01*
X33128095Y-14642440D01*
X32175714Y-14213869D02*
X32128095Y-14166250D01*
X32032857Y-14118630D01*
X31794761Y-14118630D01*
X31699523Y-14166250D01*
X31651904Y-14213869D01*
X31604285Y-14309107D01*
X31604285Y-14404345D01*
X31651904Y-14547202D01*
X32223333Y-15118630D01*
X31604285Y-15118630D01*
%TO.C,SW1*%
X56577083Y-39639761D02*
X56434226Y-39687380D01*
X56196130Y-39687380D01*
X56100892Y-39639761D01*
X56053273Y-39592142D01*
X56005654Y-39496904D01*
X56005654Y-39401666D01*
X56053273Y-39306428D01*
X56100892Y-39258809D01*
X56196130Y-39211190D01*
X56386607Y-39163571D01*
X56481845Y-39115952D01*
X56529464Y-39068333D01*
X56577083Y-38973095D01*
X56577083Y-38877857D01*
X56529464Y-38782619D01*
X56481845Y-38735000D01*
X56386607Y-38687380D01*
X56148511Y-38687380D01*
X56005654Y-38735000D01*
X55672321Y-38687380D02*
X55434226Y-39687380D01*
X55243750Y-38973095D01*
X55053273Y-39687380D01*
X54815178Y-38687380D01*
X53910416Y-39687380D02*
X54481845Y-39687380D01*
X54196130Y-39687380D02*
X54196130Y-38687380D01*
X54291369Y-38830238D01*
X54386607Y-38925476D01*
X54481845Y-38973095D01*
%TO.C,C5*%
X43902916Y-35188392D02*
X43950535Y-35236011D01*
X44093392Y-35283630D01*
X44188630Y-35283630D01*
X44331488Y-35236011D01*
X44426726Y-35140773D01*
X44474345Y-35045535D01*
X44521964Y-34855059D01*
X44521964Y-34712202D01*
X44474345Y-34521726D01*
X44426726Y-34426488D01*
X44331488Y-34331250D01*
X44188630Y-34283630D01*
X44093392Y-34283630D01*
X43950535Y-34331250D01*
X43902916Y-34378869D01*
X42998154Y-34283630D02*
X43474345Y-34283630D01*
X43521964Y-34759821D01*
X43474345Y-34712202D01*
X43379107Y-34664583D01*
X43141011Y-34664583D01*
X43045773Y-34712202D01*
X42998154Y-34759821D01*
X42950535Y-34855059D01*
X42950535Y-35093154D01*
X42998154Y-35188392D01*
X43045773Y-35236011D01*
X43141011Y-35283630D01*
X43379107Y-35283630D01*
X43474345Y-35236011D01*
X43521964Y-35188392D01*
%TO.C,C4*%
X23290416Y-27457142D02*
X23338035Y-27504761D01*
X23480892Y-27552380D01*
X23576130Y-27552380D01*
X23718988Y-27504761D01*
X23814226Y-27409523D01*
X23861845Y-27314285D01*
X23909464Y-27123809D01*
X23909464Y-26980952D01*
X23861845Y-26790476D01*
X23814226Y-26695238D01*
X23718988Y-26600000D01*
X23576130Y-26552380D01*
X23480892Y-26552380D01*
X23338035Y-26600000D01*
X23290416Y-26647619D01*
X22433273Y-26885714D02*
X22433273Y-27552380D01*
X22671369Y-26504761D02*
X22909464Y-27219047D01*
X22290416Y-27219047D01*
%TO.C,C3*%
X32226666Y-48917142D02*
X32274285Y-48964761D01*
X32417142Y-49012380D01*
X32512380Y-49012380D01*
X32655238Y-48964761D01*
X32750476Y-48869523D01*
X32798095Y-48774285D01*
X32845714Y-48583809D01*
X32845714Y-48440952D01*
X32798095Y-48250476D01*
X32750476Y-48155238D01*
X32655238Y-48060000D01*
X32512380Y-48012380D01*
X32417142Y-48012380D01*
X32274285Y-48060000D01*
X32226666Y-48107619D01*
X31893333Y-48012380D02*
X31274285Y-48012380D01*
X31607619Y-48393333D01*
X31464761Y-48393333D01*
X31369523Y-48440952D01*
X31321904Y-48488571D01*
X31274285Y-48583809D01*
X31274285Y-48821904D01*
X31321904Y-48917142D01*
X31369523Y-48964761D01*
X31464761Y-49012380D01*
X31750476Y-49012380D01*
X31845714Y-48964761D01*
X31893333Y-48917142D01*
%TO.C,U2*%
X20556130Y-36996845D02*
X21365654Y-36996845D01*
X21460892Y-37044464D01*
X21508511Y-37092083D01*
X21556130Y-37187321D01*
X21556130Y-37377797D01*
X21508511Y-37473035D01*
X21460892Y-37520654D01*
X21365654Y-37568273D01*
X20556130Y-37568273D01*
X20651369Y-37996845D02*
X20603750Y-38044464D01*
X20556130Y-38139702D01*
X20556130Y-38377797D01*
X20603750Y-38473035D01*
X20651369Y-38520654D01*
X20746607Y-38568273D01*
X20841845Y-38568273D01*
X20984702Y-38520654D01*
X21556130Y-37949226D01*
X21556130Y-38568273D01*
%TO.C,Y1*%
X44097440Y-37157559D02*
X44573630Y-37157559D01*
X43573630Y-36824226D02*
X44097440Y-37157559D01*
X43573630Y-37490892D01*
X44573630Y-38348035D02*
X44573630Y-37776607D01*
X44573630Y-38062321D02*
X43573630Y-38062321D01*
X43716488Y-37967083D01*
X43811726Y-37871845D01*
X43859345Y-37776607D01*
%TO.C,C1*%
X37505892Y-30989583D02*
X37553511Y-30941964D01*
X37601130Y-30799107D01*
X37601130Y-30703869D01*
X37553511Y-30561011D01*
X37458273Y-30465773D01*
X37363035Y-30418154D01*
X37172559Y-30370535D01*
X37029702Y-30370535D01*
X36839226Y-30418154D01*
X36743988Y-30465773D01*
X36648750Y-30561011D01*
X36601130Y-30703869D01*
X36601130Y-30799107D01*
X36648750Y-30941964D01*
X36696369Y-30989583D01*
X37601130Y-31941964D02*
X37601130Y-31370535D01*
X37601130Y-31656250D02*
X36601130Y-31656250D01*
X36743988Y-31561011D01*
X36839226Y-31465773D01*
X36886845Y-31370535D01*
%TO.C,R4*%
X50173630Y-31677083D02*
X49697440Y-31343750D01*
X50173630Y-31105654D02*
X49173630Y-31105654D01*
X49173630Y-31486607D01*
X49221250Y-31581845D01*
X49268869Y-31629464D01*
X49364107Y-31677083D01*
X49506964Y-31677083D01*
X49602202Y-31629464D01*
X49649821Y-31581845D01*
X49697440Y-31486607D01*
X49697440Y-31105654D01*
X49506964Y-32534226D02*
X50173630Y-32534226D01*
X49126011Y-32296130D02*
X49840297Y-32058035D01*
X49840297Y-32677083D01*
%TO.C,C6*%
X26827142Y-27303333D02*
X26874761Y-27255714D01*
X26922380Y-27112857D01*
X26922380Y-27017619D01*
X26874761Y-26874761D01*
X26779523Y-26779523D01*
X26684285Y-26731904D01*
X26493809Y-26684285D01*
X26350952Y-26684285D01*
X26160476Y-26731904D01*
X26065238Y-26779523D01*
X25970000Y-26874761D01*
X25922380Y-27017619D01*
X25922380Y-27112857D01*
X25970000Y-27255714D01*
X26017619Y-27303333D01*
X25922380Y-28160476D02*
X25922380Y-27970000D01*
X25970000Y-27874761D01*
X26017619Y-27827142D01*
X26160476Y-27731904D01*
X26350952Y-27684285D01*
X26731904Y-27684285D01*
X26827142Y-27731904D01*
X26874761Y-27779523D01*
X26922380Y-27874761D01*
X26922380Y-28065238D01*
X26874761Y-28160476D01*
X26827142Y-28208095D01*
X26731904Y-28255714D01*
X26493809Y-28255714D01*
X26398571Y-28208095D01*
X26350952Y-28160476D01*
X26303333Y-28065238D01*
X26303333Y-27874761D01*
X26350952Y-27779523D01*
X26398571Y-27731904D01*
X26493809Y-27684285D01*
%TO.C,C7*%
X43902916Y-40788392D02*
X43950535Y-40836011D01*
X44093392Y-40883630D01*
X44188630Y-40883630D01*
X44331488Y-40836011D01*
X44426726Y-40740773D01*
X44474345Y-40645535D01*
X44521964Y-40455059D01*
X44521964Y-40312202D01*
X44474345Y-40121726D01*
X44426726Y-40026488D01*
X44331488Y-39931250D01*
X44188630Y-39883630D01*
X44093392Y-39883630D01*
X43950535Y-39931250D01*
X43902916Y-39978869D01*
X43569583Y-39883630D02*
X42902916Y-39883630D01*
X43331488Y-40883630D01*
%TO.C,R3*%
X31926130Y-55783333D02*
X31449940Y-55450000D01*
X31926130Y-55211904D02*
X30926130Y-55211904D01*
X30926130Y-55592857D01*
X30973750Y-55688095D01*
X31021369Y-55735714D01*
X31116607Y-55783333D01*
X31259464Y-55783333D01*
X31354702Y-55735714D01*
X31402321Y-55688095D01*
X31449940Y-55592857D01*
X31449940Y-55211904D01*
X30926130Y-56116666D02*
X30926130Y-56735714D01*
X31307083Y-56402380D01*
X31307083Y-56545238D01*
X31354702Y-56640476D01*
X31402321Y-56688095D01*
X31497559Y-56735714D01*
X31735654Y-56735714D01*
X31830892Y-56688095D01*
X31878511Y-56640476D01*
X31926130Y-56545238D01*
X31926130Y-56259523D01*
X31878511Y-56164285D01*
X31830892Y-56116666D01*
%TO.C,C2*%
X17340416Y-40565892D02*
X17388035Y-40613511D01*
X17530892Y-40661130D01*
X17626130Y-40661130D01*
X17768988Y-40613511D01*
X17864226Y-40518273D01*
X17911845Y-40423035D01*
X17959464Y-40232559D01*
X17959464Y-40089702D01*
X17911845Y-39899226D01*
X17864226Y-39803988D01*
X17768988Y-39708750D01*
X17626130Y-39661130D01*
X17530892Y-39661130D01*
X17388035Y-39708750D01*
X17340416Y-39756369D01*
X16959464Y-39756369D02*
X16911845Y-39708750D01*
X16816607Y-39661130D01*
X16578511Y-39661130D01*
X16483273Y-39708750D01*
X16435654Y-39756369D01*
X16388035Y-39851607D01*
X16388035Y-39946845D01*
X16435654Y-40089702D01*
X17007083Y-40661130D01*
X16388035Y-40661130D01*
%TO.C,U1*%
X40676130Y-16738095D02*
X41485654Y-16738095D01*
X41580892Y-16785714D01*
X41628511Y-16833333D01*
X41676130Y-16928571D01*
X41676130Y-17119047D01*
X41628511Y-17214285D01*
X41580892Y-17261904D01*
X41485654Y-17309523D01*
X40676130Y-17309523D01*
X41676130Y-18309523D02*
X41676130Y-17738095D01*
X41676130Y-18023809D02*
X40676130Y-18023809D01*
X40818988Y-17928571D01*
X40914226Y-17833333D01*
X40961845Y-17738095D01*
%TO.C,D65*%
X151289880Y-84916964D02*
X150289880Y-84916964D01*
X150289880Y-85155059D01*
X150337500Y-85297916D01*
X150432738Y-85393154D01*
X150527976Y-85440773D01*
X150718452Y-85488392D01*
X150861309Y-85488392D01*
X151051785Y-85440773D01*
X151147023Y-85393154D01*
X151242261Y-85297916D01*
X151289880Y-85155059D01*
X151289880Y-84916964D01*
X150289880Y-86345535D02*
X150289880Y-86155059D01*
X150337500Y-86059821D01*
X150385119Y-86012202D01*
X150527976Y-85916964D01*
X150718452Y-85869345D01*
X151099404Y-85869345D01*
X151194642Y-85916964D01*
X151242261Y-85964583D01*
X151289880Y-86059821D01*
X151289880Y-86250297D01*
X151242261Y-86345535D01*
X151194642Y-86393154D01*
X151099404Y-86440773D01*
X150861309Y-86440773D01*
X150766071Y-86393154D01*
X150718452Y-86345535D01*
X150670833Y-86250297D01*
X150670833Y-86059821D01*
X150718452Y-85964583D01*
X150766071Y-85916964D01*
X150861309Y-85869345D01*
X150289880Y-87345535D02*
X150289880Y-86869345D01*
X150766071Y-86821726D01*
X150718452Y-86869345D01*
X150670833Y-86964583D01*
X150670833Y-87202678D01*
X150718452Y-87297916D01*
X150766071Y-87345535D01*
X150861309Y-87393154D01*
X151099404Y-87393154D01*
X151194642Y-87345535D01*
X151242261Y-87297916D01*
X151289880Y-87202678D01*
X151289880Y-86964583D01*
X151242261Y-86869345D01*
X151194642Y-86821726D01*
%TO.C,D64*%
X73502380Y-84916964D02*
X72502380Y-84916964D01*
X72502380Y-85155059D01*
X72550000Y-85297916D01*
X72645238Y-85393154D01*
X72740476Y-85440773D01*
X72930952Y-85488392D01*
X73073809Y-85488392D01*
X73264285Y-85440773D01*
X73359523Y-85393154D01*
X73454761Y-85297916D01*
X73502380Y-85155059D01*
X73502380Y-84916964D01*
X72502380Y-86345535D02*
X72502380Y-86155059D01*
X72550000Y-86059821D01*
X72597619Y-86012202D01*
X72740476Y-85916964D01*
X72930952Y-85869345D01*
X73311904Y-85869345D01*
X73407142Y-85916964D01*
X73454761Y-85964583D01*
X73502380Y-86059821D01*
X73502380Y-86250297D01*
X73454761Y-86345535D01*
X73407142Y-86393154D01*
X73311904Y-86440773D01*
X73073809Y-86440773D01*
X72978571Y-86393154D01*
X72930952Y-86345535D01*
X72883333Y-86250297D01*
X72883333Y-86059821D01*
X72930952Y-85964583D01*
X72978571Y-85916964D01*
X73073809Y-85869345D01*
X72835714Y-87297916D02*
X73502380Y-87297916D01*
X72454761Y-87059821D02*
X73169047Y-86821726D01*
X73169047Y-87440773D01*
D11*
%TO.C,F1*%
X24107936Y-18030000D02*
X25312064Y-18030000D01*
X24107936Y-16210000D02*
X25312064Y-16210000D01*
%TO.C,J1*%
X45215000Y-20610000D02*
X45215000Y-19560000D01*
X47715000Y-14390000D02*
X45215000Y-14390000D01*
X49685000Y-15560000D02*
X49685000Y-19440000D01*
X47715000Y-20610000D02*
X45215000Y-20610000D01*
X45215000Y-14390000D02*
X45215000Y-15440000D01*
X45215000Y-15440000D02*
X44225000Y-15440000D01*
%TO.C,R1*%
X32081422Y-18040000D02*
X32598578Y-18040000D01*
X32081422Y-19460000D02*
X32598578Y-19460000D01*
%TO.C,R2*%
X32081422Y-16960000D02*
X32598578Y-16960000D01*
X32081422Y-15540000D02*
X32598578Y-15540000D01*
%TO.C,SW1*%
X52493750Y-36485000D02*
X52493750Y-34485000D01*
X57993750Y-36485000D02*
X57993750Y-34485000D01*
X53993750Y-38235000D02*
X56493750Y-38235000D01*
X56943750Y-37785000D02*
X56493750Y-38235000D01*
X53993750Y-32735000D02*
X56493750Y-32735000D01*
X56943750Y-33185000D02*
X56493750Y-32735000D01*
X53543750Y-37785000D02*
X53993750Y-38235000D01*
X53543750Y-33185000D02*
X53993750Y-32735000D01*
%TO.C,C5*%
X41218578Y-34160000D02*
X40701422Y-34160000D01*
X41218578Y-35580000D02*
X40701422Y-35580000D01*
%TO.C,C4*%
X23382328Y-28040000D02*
X22865172Y-28040000D01*
X23382328Y-29460000D02*
X22865172Y-29460000D01*
%TO.C,C3*%
X31801422Y-46200000D02*
X32318578Y-46200000D01*
X31801422Y-47620000D02*
X32318578Y-47620000D01*
D10*
%TO.C,U2*%
X33728750Y-32583750D02*
X33053750Y-32583750D01*
X23378750Y-42933750D02*
X24053750Y-42933750D01*
X23378750Y-32583750D02*
X23378750Y-33258750D01*
X33728750Y-42933750D02*
X33053750Y-42933750D01*
X23953750Y-32583750D02*
X23953750Y-31308750D01*
X33728750Y-42933750D02*
X33728750Y-42258750D01*
X23378750Y-32583750D02*
X23953750Y-32583750D01*
X23378750Y-42933750D02*
X23378750Y-42258750D01*
X33728750Y-32583750D02*
X33728750Y-33258750D01*
D11*
%TO.C,Y1*%
X42960000Y-39320000D02*
X38960000Y-39320000D01*
X42960000Y-36020000D02*
X42960000Y-39320000D01*
%TO.C,C1*%
X36450000Y-33661422D02*
X36450000Y-34178578D01*
X37870000Y-33661422D02*
X37870000Y-34178578D01*
%TO.C,R4*%
X50420000Y-34261422D02*
X50420000Y-34778578D01*
X49000000Y-34261422D02*
X49000000Y-34778578D01*
%TO.C,D1*%
X15937500Y-12043750D02*
X15937500Y-8143750D01*
X17937500Y-12043750D02*
X15937500Y-12043750D01*
X17937500Y-12043750D02*
X17937500Y-8143750D01*
%TO.C,D2*%
X19112500Y-12043750D02*
X19112500Y-8143750D01*
X21112500Y-12043750D02*
X19112500Y-12043750D01*
X21112500Y-12043750D02*
X21112500Y-8143750D01*
%TO.C,D3*%
X36575000Y-12043750D02*
X36575000Y-8143750D01*
X38575000Y-12043750D02*
X38575000Y-8143750D01*
X38575000Y-12043750D02*
X36575000Y-12043750D01*
%TO.C,D4*%
X55625000Y-12043750D02*
X55625000Y-8143750D01*
X57625000Y-12043750D02*
X57625000Y-8143750D01*
X57625000Y-12043750D02*
X55625000Y-12043750D01*
%TO.C,D5*%
X76675000Y-12043750D02*
X76675000Y-8143750D01*
X76675000Y-12043750D02*
X74675000Y-12043750D01*
X74675000Y-12043750D02*
X74675000Y-8143750D01*
%TO.C,D6*%
X93725000Y-12043750D02*
X93725000Y-8143750D01*
X95725000Y-12043750D02*
X95725000Y-8143750D01*
X95725000Y-12043750D02*
X93725000Y-12043750D01*
%TO.C,D7*%
X114775000Y-12043750D02*
X112775000Y-12043750D01*
X112775000Y-12043750D02*
X112775000Y-8143750D01*
X114775000Y-12043750D02*
X114775000Y-8143750D01*
%TO.C,D8*%
X131825000Y-12043750D02*
X131825000Y-8143750D01*
X133825000Y-12043750D02*
X131825000Y-12043750D01*
X133825000Y-12043750D02*
X133825000Y-8143750D01*
%TO.C,D9*%
X152875000Y-12043750D02*
X150875000Y-12043750D01*
X152875000Y-12043750D02*
X152875000Y-8143750D01*
X150875000Y-12043750D02*
X150875000Y-8143750D01*
%TO.C,D10*%
X171925000Y-12043750D02*
X169925000Y-12043750D01*
X169925000Y-12043750D02*
X169925000Y-8143750D01*
X171925000Y-12043750D02*
X171925000Y-8143750D01*
%TO.C,D11*%
X188975000Y-12043750D02*
X188975000Y-8143750D01*
X190975000Y-12043750D02*
X190975000Y-8143750D01*
X190975000Y-12043750D02*
X188975000Y-12043750D01*
%TO.C,D12*%
X210025000Y-12043750D02*
X208025000Y-12043750D01*
X210025000Y-12043750D02*
X210025000Y-8143750D01*
X208025000Y-12043750D02*
X208025000Y-8143750D01*
%TO.C,D14*%
X247655000Y-12043750D02*
X247655000Y-8143750D01*
X249655000Y-12043750D02*
X247655000Y-12043750D01*
X249655000Y-12043750D02*
X249655000Y-8143750D01*
%TO.C,D15*%
X246585000Y-12043750D02*
X246585000Y-8143750D01*
X246585000Y-12043750D02*
X244585000Y-12043750D01*
X244585000Y-12043750D02*
X244585000Y-8143750D01*
%TO.C,D16*%
X6825000Y-31887500D02*
X6825000Y-27987500D01*
X6825000Y-31887500D02*
X4825000Y-31887500D01*
X4825000Y-31887500D02*
X4825000Y-27987500D01*
%TO.C,D17*%
X68737500Y-31093750D02*
X68737500Y-27193750D01*
X66737500Y-31093750D02*
X66737500Y-27193750D01*
X68737500Y-31093750D02*
X66737500Y-31093750D01*
%TO.C,D18*%
X65562500Y-31093750D02*
X65562500Y-27193750D01*
X63562500Y-31093750D02*
X63562500Y-27193750D01*
X65562500Y-31093750D02*
X63562500Y-31093750D01*
%TO.C,D19*%
X84612500Y-31093750D02*
X82612500Y-31093750D01*
X84612500Y-31093750D02*
X84612500Y-27193750D01*
X82612500Y-31093750D02*
X82612500Y-27193750D01*
%TO.C,D20*%
X87787500Y-31093750D02*
X87787500Y-27193750D01*
X85787500Y-31093750D02*
X85787500Y-27193750D01*
X87787500Y-31093750D02*
X85787500Y-31093750D01*
%TO.C,D21*%
X103250000Y-31093750D02*
X103250000Y-27193750D01*
X105250000Y-31093750D02*
X103250000Y-31093750D01*
X105250000Y-31093750D02*
X105250000Y-27193750D01*
%TO.C,D22*%
X124300000Y-31093750D02*
X122300000Y-31093750D01*
X122300000Y-31093750D02*
X122300000Y-27193750D01*
X124300000Y-31093750D02*
X124300000Y-27193750D01*
%TO.C,D23*%
X143350000Y-31093750D02*
X141350000Y-31093750D01*
X143350000Y-31093750D02*
X143350000Y-27193750D01*
X141350000Y-31093750D02*
X141350000Y-27193750D01*
%TO.C,D24*%
X160400000Y-31093750D02*
X160400000Y-27193750D01*
X162400000Y-31093750D02*
X160400000Y-31093750D01*
X162400000Y-31093750D02*
X162400000Y-27193750D01*
%TO.C,D25*%
X181450000Y-31093750D02*
X179450000Y-31093750D01*
X179450000Y-31093750D02*
X179450000Y-27193750D01*
X181450000Y-31093750D02*
X181450000Y-27193750D01*
%TO.C,D26*%
X200500000Y-31093750D02*
X200500000Y-27193750D01*
X200500000Y-31093750D02*
X198500000Y-31093750D01*
X198500000Y-31093750D02*
X198500000Y-27193750D01*
%TO.C,D27*%
X219550000Y-31093750D02*
X219550000Y-27193750D01*
X217550000Y-31093750D02*
X217550000Y-27193750D01*
X219550000Y-31093750D02*
X217550000Y-31093750D01*
%TO.C,D28*%
X238600000Y-31093750D02*
X236600000Y-31093750D01*
X238600000Y-31093750D02*
X238600000Y-27193750D01*
X236600000Y-31093750D02*
X236600000Y-27193750D01*
%TO.C,D29*%
X262412500Y-31093750D02*
X262412500Y-27193750D01*
X262412500Y-31093750D02*
X260412500Y-31093750D01*
X260412500Y-31093750D02*
X260412500Y-27193750D01*
%TO.C,D30*%
X23081250Y-50143750D02*
X23081250Y-46243750D01*
X25081250Y-50143750D02*
X25081250Y-46243750D01*
X25081250Y-50143750D02*
X23081250Y-50143750D01*
%TO.C,D31*%
X49275000Y-50143750D02*
X49275000Y-46243750D01*
X51275000Y-50143750D02*
X49275000Y-50143750D01*
X51275000Y-50143750D02*
X51275000Y-46243750D01*
%TO.C,D32*%
X54450000Y-50143750D02*
X52450000Y-50143750D01*
X54450000Y-50143750D02*
X54450000Y-46243750D01*
X52450000Y-50143750D02*
X52450000Y-46243750D01*
%TO.C,D33*%
X71912500Y-50143750D02*
X69912500Y-50143750D01*
X71912500Y-50143750D02*
X71912500Y-46243750D01*
X69912500Y-50143750D02*
X69912500Y-46243750D01*
%TO.C,D35*%
X110012500Y-50143750D02*
X110012500Y-46243750D01*
X108012500Y-50143750D02*
X108012500Y-46243750D01*
X110012500Y-50143750D02*
X108012500Y-50143750D01*
%TO.C,D36*%
X129062500Y-50143750D02*
X127062500Y-50143750D01*
X127062500Y-50143750D02*
X127062500Y-46243750D01*
X129062500Y-50143750D02*
X129062500Y-46243750D01*
%TO.C,D37*%
X148112500Y-50143750D02*
X148112500Y-46243750D01*
X146112500Y-50143750D02*
X146112500Y-46243750D01*
X148112500Y-50143750D02*
X146112500Y-50143750D01*
%TO.C,D38*%
X167162500Y-50143750D02*
X167162500Y-46243750D01*
X167162500Y-50143750D02*
X165162500Y-50143750D01*
X165162500Y-50143750D02*
X165162500Y-46243750D01*
%TO.C,D39*%
X186212500Y-50143750D02*
X184212500Y-50143750D01*
X186212500Y-50143750D02*
X186212500Y-46243750D01*
X184212500Y-50143750D02*
X184212500Y-46243750D01*
%TO.C,D40*%
X205262500Y-50143750D02*
X203262500Y-50143750D01*
X205262500Y-50143750D02*
X205262500Y-46243750D01*
X203262500Y-50143750D02*
X203262500Y-46243750D01*
%TO.C,D41*%
X222312500Y-50143750D02*
X222312500Y-46243750D01*
X224312500Y-50143750D02*
X222312500Y-50143750D01*
X224312500Y-50143750D02*
X224312500Y-46243750D01*
%TO.C,D42*%
X253268750Y-50143750D02*
X253268750Y-46243750D01*
X255268750Y-50143750D02*
X253268750Y-50143750D01*
X255268750Y-50143750D02*
X255268750Y-46243750D01*
%TO.C,D43*%
X29843750Y-69193750D02*
X27843750Y-69193750D01*
X27843750Y-69193750D02*
X27843750Y-65293750D01*
X29843750Y-69193750D02*
X29843750Y-65293750D01*
%TO.C,D44*%
X41337500Y-69193750D02*
X41337500Y-65293750D01*
X43337500Y-69193750D02*
X43337500Y-65293750D01*
X43337500Y-69193750D02*
X41337500Y-69193750D01*
%TO.C,D45*%
X60387500Y-69193750D02*
X60387500Y-65293750D01*
X62387500Y-69193750D02*
X60387500Y-69193750D01*
X62387500Y-69193750D02*
X62387500Y-65293750D01*
%TO.C,D46*%
X79437500Y-69193750D02*
X79437500Y-65293750D01*
X81437500Y-69193750D02*
X81437500Y-65293750D01*
X81437500Y-69193750D02*
X79437500Y-69193750D01*
%TO.C,D47*%
X98487500Y-69193750D02*
X98487500Y-65293750D01*
X100487500Y-69193750D02*
X100487500Y-65293750D01*
X100487500Y-69193750D02*
X98487500Y-69193750D01*
%TO.C,D48*%
X119537500Y-69193750D02*
X119537500Y-65293750D01*
X119537500Y-69193750D02*
X117537500Y-69193750D01*
X117537500Y-69193750D02*
X117537500Y-65293750D01*
%TO.C,D49*%
X136587500Y-69193750D02*
X136587500Y-65293750D01*
X138587500Y-69193750D02*
X138587500Y-65293750D01*
X138587500Y-69193750D02*
X136587500Y-69193750D01*
%TO.C,D50*%
X155637500Y-69193750D02*
X155637500Y-65293750D01*
X157637500Y-69193750D02*
X157637500Y-65293750D01*
X157637500Y-69193750D02*
X155637500Y-69193750D01*
%TO.C,D51*%
X174687500Y-69193750D02*
X174687500Y-65293750D01*
X176687500Y-69193750D02*
X174687500Y-69193750D01*
X176687500Y-69193750D02*
X176687500Y-65293750D01*
%TO.C,D52*%
X195737500Y-69193750D02*
X193737500Y-69193750D01*
X193737500Y-69193750D02*
X193737500Y-65293750D01*
X195737500Y-69193750D02*
X195737500Y-65293750D01*
%TO.C,D53*%
X212787500Y-69193750D02*
X212787500Y-65293750D01*
X214787500Y-69193750D02*
X212787500Y-69193750D01*
X214787500Y-69193750D02*
X214787500Y-65293750D01*
%TO.C,D54*%
X238981250Y-69193750D02*
X238981250Y-65293750D01*
X240981250Y-69193750D02*
X238981250Y-69193750D01*
X240981250Y-69193750D02*
X240981250Y-65293750D01*
%TO.C,D55*%
X266715000Y-69193750D02*
X266715000Y-65293750D01*
X268715000Y-69193750D02*
X268715000Y-65293750D01*
X268715000Y-69193750D02*
X266715000Y-69193750D01*
%TO.C,D56*%
X20747500Y-88243750D02*
X20747500Y-84343750D01*
X22747500Y-88243750D02*
X20747500Y-88243750D01*
X22747500Y-88243750D02*
X22747500Y-84343750D01*
%TO.C,D57*%
X26668750Y-88243750D02*
X26668750Y-84343750D01*
X24668750Y-88243750D02*
X24668750Y-84343750D01*
X26668750Y-88243750D02*
X24668750Y-88243750D01*
%TO.C,D58*%
X48481250Y-88243750D02*
X48481250Y-84343750D01*
X50481250Y-88243750D02*
X48481250Y-88243750D01*
X50481250Y-88243750D02*
X50481250Y-84343750D01*
%TO.C,D59*%
X94275000Y-88381250D02*
X94275000Y-84481250D01*
X92275000Y-88381250D02*
X92275000Y-84481250D01*
X94275000Y-88381250D02*
X92275000Y-88381250D01*
%TO.C,D61*%
X214787500Y-88243750D02*
X214787500Y-84343750D01*
X214787500Y-88243750D02*
X212787500Y-88243750D01*
X212787500Y-88243750D02*
X212787500Y-84343750D01*
%TO.C,D62*%
X236550000Y-88243750D02*
X236550000Y-84343750D01*
X238550000Y-88243750D02*
X238550000Y-84343750D01*
X238550000Y-88243750D02*
X236550000Y-88243750D01*
%TO.C,D63*%
X260362500Y-88243750D02*
X260362500Y-84343750D01*
X262362500Y-88243750D02*
X260362500Y-88243750D01*
X262362500Y-88243750D02*
X262362500Y-84343750D01*
%TO.C,D13*%
X227075000Y-12043750D02*
X227075000Y-8143750D01*
X229075000Y-12043750D02*
X227075000Y-12043750D01*
X229075000Y-12043750D02*
X229075000Y-8143750D01*
%TO.C,C6*%
X28830000Y-27211422D02*
X28830000Y-27728578D01*
X27410000Y-27211422D02*
X27410000Y-27728578D01*
%TO.C,C7*%
X41218578Y-41180000D02*
X40701422Y-41180000D01*
X41218578Y-39760000D02*
X40701422Y-39760000D01*
%TO.C,R3*%
X30533750Y-56208578D02*
X30533750Y-55691422D01*
X29113750Y-56208578D02*
X29113750Y-55691422D01*
%TO.C,D34*%
X90962500Y-50143750D02*
X88962500Y-50143750D01*
X88962500Y-50143750D02*
X88962500Y-46243750D01*
X90962500Y-50143750D02*
X90962500Y-46243750D01*
%TO.C,D60*%
X187937500Y-88243750D02*
X187937500Y-84343750D01*
X185937500Y-88243750D02*
X185937500Y-84343750D01*
X187937500Y-88243750D02*
X185937500Y-88243750D01*
%TO.C,C2*%
X16915172Y-39268750D02*
X17432328Y-39268750D01*
X16915172Y-37848750D02*
X17432328Y-37848750D01*
%TO.C,U1*%
X36713750Y-18400000D02*
X36713750Y-16600000D01*
X39933750Y-16600000D02*
X39933750Y-19050000D01*
%TO.C,D65*%
X149837500Y-88381250D02*
X149837500Y-84481250D01*
X149837500Y-88381250D02*
X147837500Y-88381250D01*
X147837500Y-88381250D02*
X147837500Y-84481250D01*
%TO.C,D64*%
X72050000Y-88381250D02*
X70050000Y-88381250D01*
X72050000Y-88381250D02*
X72050000Y-84481250D01*
X70050000Y-88381250D02*
X70050000Y-84481250D01*
%TD*%
%LPC*%
D12*
%TO.C,MX1*%
X3920000Y-9000000D03*
X14080000Y-9000000D03*
D13*
X9000000Y-9000000D03*
D14*
X5190000Y-6460000D03*
X11540000Y-3920000D03*
%TD*%
D13*
%TO.C,MX2*%
X28050000Y-9000000D03*
D12*
X22970000Y-9000000D03*
X33130000Y-9000000D03*
D14*
X24240000Y-6460000D03*
X30590000Y-3920000D03*
%TD*%
D13*
%TO.C,MX3*%
X47100000Y-9000000D03*
D12*
X42020000Y-9000000D03*
X52180000Y-9000000D03*
D14*
X43290000Y-6460000D03*
X49640000Y-3920000D03*
%TD*%
D12*
%TO.C,MX4*%
X61070000Y-9000000D03*
D13*
X66150000Y-9000000D03*
D12*
X71230000Y-9000000D03*
D14*
X62340000Y-6460000D03*
X68690000Y-3920000D03*
%TD*%
D12*
%TO.C,MX5*%
X90280000Y-9000000D03*
X80120000Y-9000000D03*
D13*
X85200000Y-9000000D03*
D14*
X81390000Y-6460000D03*
X87740000Y-3920000D03*
%TD*%
D12*
%TO.C,MX6*%
X99170000Y-9000000D03*
D13*
X104250000Y-9000000D03*
D12*
X109330000Y-9000000D03*
D14*
X100440000Y-6460000D03*
X106790000Y-3920000D03*
%TD*%
D12*
%TO.C,MX7*%
X118220000Y-9000000D03*
D13*
X123300000Y-9000000D03*
D12*
X128380000Y-9000000D03*
D14*
X119490000Y-6460000D03*
X125840000Y-3920000D03*
%TD*%
D12*
%TO.C,MX9*%
X156320000Y-9000000D03*
X166480000Y-9000000D03*
D13*
X161400000Y-9000000D03*
D14*
X157590000Y-6460000D03*
X163940000Y-3920000D03*
%TD*%
D12*
%TO.C,MX10*%
X185530000Y-9000000D03*
X175370000Y-9000000D03*
D13*
X180450000Y-9000000D03*
D14*
X176640000Y-6460000D03*
X182990000Y-3920000D03*
%TD*%
D13*
%TO.C,MX11*%
X199500000Y-9000000D03*
D12*
X204580000Y-9000000D03*
X194420000Y-9000000D03*
D14*
X195690000Y-6460000D03*
X202040000Y-3920000D03*
%TD*%
D12*
%TO.C,MX12*%
X223630000Y-9000000D03*
X213470000Y-9000000D03*
D13*
X218550000Y-9000000D03*
D14*
X214740000Y-6460000D03*
X221090000Y-3920000D03*
%TD*%
D12*
%TO.C,MX13*%
X232520000Y-9000000D03*
X242680000Y-9000000D03*
D13*
X237600000Y-9000000D03*
D14*
X233790000Y-6460000D03*
X240140000Y-3920000D03*
%TD*%
D12*
%TO.C,MX14*%
X261730000Y-9000000D03*
D13*
X256650000Y-9000000D03*
D12*
X251570000Y-9000000D03*
D14*
X252840000Y-6460000D03*
X259190000Y-3920000D03*
%TD*%
D12*
%TO.C,MX17*%
X18842500Y-28050000D03*
D13*
X13762500Y-28050000D03*
D12*
X8682500Y-28050000D03*
D14*
X9952500Y-25510000D03*
X16302500Y-22970000D03*
%TD*%
D13*
%TO.C,MX18*%
X37575000Y-28050000D03*
D12*
X32495000Y-28050000D03*
X42655000Y-28050000D03*
D14*
X33765000Y-25510000D03*
X40115000Y-22970000D03*
%TD*%
D12*
%TO.C,MX19*%
X61705000Y-28050000D03*
D13*
X56625000Y-28050000D03*
D12*
X51545000Y-28050000D03*
D14*
X52815000Y-25510000D03*
X59165000Y-22970000D03*
%TD*%
D13*
%TO.C,MX20*%
X75675000Y-28050000D03*
D12*
X80755000Y-28050000D03*
X70595000Y-28050000D03*
D14*
X71865000Y-25510000D03*
X78215000Y-22970000D03*
%TD*%
D12*
%TO.C,MX21*%
X99805000Y-28050000D03*
X89645000Y-28050000D03*
D13*
X94725000Y-28050000D03*
D14*
X90915000Y-25510000D03*
X97265000Y-22970000D03*
%TD*%
D12*
%TO.C,MX22*%
X118855000Y-28050000D03*
X108695000Y-28050000D03*
D13*
X113775000Y-28050000D03*
D14*
X109965000Y-25510000D03*
X116315000Y-22970000D03*
%TD*%
D12*
%TO.C,MX23*%
X137905000Y-28050000D03*
X127745000Y-28050000D03*
D13*
X132825000Y-28050000D03*
D14*
X129015000Y-25510000D03*
X135365000Y-22970000D03*
%TD*%
D12*
%TO.C,MX24*%
X156955000Y-28050000D03*
D13*
X151875000Y-28050000D03*
D12*
X146795000Y-28050000D03*
D14*
X148065000Y-25510000D03*
X154415000Y-22970000D03*
%TD*%
D12*
%TO.C,MX25*%
X176005000Y-28050000D03*
X165845000Y-28050000D03*
D13*
X170925000Y-28050000D03*
D14*
X167115000Y-25510000D03*
X173465000Y-22970000D03*
%TD*%
D12*
%TO.C,MX26*%
X195055000Y-28050000D03*
X184895000Y-28050000D03*
D13*
X189975000Y-28050000D03*
D14*
X186165000Y-25510000D03*
X192515000Y-22970000D03*
%TD*%
D12*
%TO.C,MX27*%
X214105000Y-28050000D03*
D13*
X209025000Y-28050000D03*
D12*
X203945000Y-28050000D03*
D14*
X205215000Y-25510000D03*
X211565000Y-22970000D03*
%TD*%
D12*
%TO.C,MX28*%
X233155000Y-28050000D03*
D13*
X228075000Y-28050000D03*
D12*
X222995000Y-28050000D03*
D14*
X224265000Y-25510000D03*
X230615000Y-22970000D03*
%TD*%
D13*
%TO.C,MX29*%
X247125000Y-28050000D03*
D12*
X242045000Y-28050000D03*
X252205000Y-28050000D03*
D14*
X243315000Y-25510000D03*
X249665000Y-22970000D03*
%TD*%
D12*
%TO.C,MX30*%
X276017500Y-28050000D03*
X265857500Y-28050000D03*
D13*
X270937500Y-28050000D03*
D14*
X267127500Y-25510000D03*
X273477500Y-22970000D03*
%TD*%
D12*
%TO.C,MX31*%
X6301250Y-47100000D03*
D13*
X11381250Y-47100000D03*
D12*
X16461250Y-47100000D03*
D14*
X7571250Y-44560000D03*
X13921250Y-42020000D03*
%TD*%
D13*
%TO.C,MX32*%
X16143750Y-47100000D03*
D12*
X11063750Y-47100000D03*
X21223750Y-47100000D03*
D14*
X12333750Y-44560000D03*
X18683750Y-42020000D03*
%TD*%
D12*
%TO.C,MX33*%
X47417500Y-47100000D03*
D13*
X42337500Y-47100000D03*
D12*
X37257500Y-47100000D03*
D14*
X38527500Y-44560000D03*
X44877500Y-42020000D03*
%TD*%
D13*
%TO.C,MX34*%
X61387500Y-47100000D03*
D12*
X56307500Y-47100000D03*
X66467500Y-47100000D03*
D14*
X57577500Y-44560000D03*
X63927500Y-42020000D03*
%TD*%
D12*
%TO.C,MX35*%
X85517500Y-47100000D03*
X75357500Y-47100000D03*
D13*
X80437500Y-47100000D03*
D14*
X76627500Y-44560000D03*
X82977500Y-42020000D03*
%TD*%
D13*
%TO.C,MX36*%
X99487500Y-47100000D03*
D12*
X94407500Y-47100000D03*
X104567500Y-47100000D03*
D14*
X95677500Y-44560000D03*
X102027500Y-42020000D03*
%TD*%
D12*
%TO.C,MX37*%
X123617500Y-47100000D03*
X113457500Y-47100000D03*
D13*
X118537500Y-47100000D03*
D14*
X114727500Y-44560000D03*
X121077500Y-42020000D03*
%TD*%
D13*
%TO.C,MX38*%
X137587500Y-47100000D03*
D12*
X142667500Y-47100000D03*
X132507500Y-47100000D03*
D14*
X133777500Y-44560000D03*
X140127500Y-42020000D03*
%TD*%
D13*
%TO.C,MX39*%
X156637500Y-47100000D03*
D12*
X151557500Y-47100000D03*
X161717500Y-47100000D03*
D14*
X152827500Y-44560000D03*
X159177500Y-42020000D03*
%TD*%
D13*
%TO.C,MX40*%
X175687500Y-47100000D03*
D12*
X170607500Y-47100000D03*
X180767500Y-47100000D03*
D14*
X171877500Y-44560000D03*
X178227500Y-42020000D03*
%TD*%
D13*
%TO.C,MX41*%
X194737500Y-47100000D03*
D12*
X189657500Y-47100000D03*
X199817500Y-47100000D03*
D14*
X190927500Y-44560000D03*
X197277500Y-42020000D03*
%TD*%
D12*
%TO.C,MX42*%
X208707500Y-47100000D03*
D13*
X213787500Y-47100000D03*
D12*
X218867500Y-47100000D03*
D14*
X209977500Y-44560000D03*
X216327500Y-42020000D03*
%TD*%
D12*
%TO.C,MX43*%
X237917500Y-47100000D03*
X227757500Y-47100000D03*
D13*
X232837500Y-47100000D03*
D14*
X229027500Y-44560000D03*
X235377500Y-42020000D03*
%TD*%
D13*
%TO.C,MX44*%
X263793750Y-47100000D03*
D12*
X268873750Y-47100000D03*
D13*
X275700000Y-55355000D03*
D12*
X258713750Y-47100000D03*
D15*
X251887500Y-40115000D03*
D13*
X251887500Y-55355000D03*
D15*
X275700000Y-40115000D03*
D14*
X259983750Y-44560000D03*
X266333750Y-42020000D03*
%TD*%
D13*
%TO.C,MX45*%
X20906250Y-66150000D03*
X32812500Y-74405000D03*
D15*
X9000000Y-59165000D03*
D12*
X25986250Y-66150000D03*
X15826250Y-66150000D03*
D15*
X32812500Y-59165000D03*
D13*
X9000000Y-74405000D03*
D14*
X17096250Y-63610000D03*
X23446250Y-61070000D03*
%TD*%
D12*
%TO.C,MX46*%
X56942500Y-66150000D03*
X46782500Y-66150000D03*
D13*
X51862500Y-66150000D03*
D14*
X48052500Y-63610000D03*
X54402500Y-61070000D03*
%TD*%
D13*
%TO.C,MX47*%
X70912500Y-66150000D03*
D12*
X65832500Y-66150000D03*
X75992500Y-66150000D03*
D14*
X67102500Y-63610000D03*
X73452500Y-61070000D03*
%TD*%
D12*
%TO.C,MX48*%
X95042500Y-66150000D03*
D13*
X89962500Y-66150000D03*
D12*
X84882500Y-66150000D03*
D14*
X86152500Y-63610000D03*
X92502500Y-61070000D03*
%TD*%
D12*
%TO.C,MX49*%
X114092500Y-66150000D03*
X103932500Y-66150000D03*
D13*
X109012500Y-66150000D03*
D14*
X105202500Y-63610000D03*
X111552500Y-61070000D03*
%TD*%
D13*
%TO.C,MX50*%
X128062500Y-66150000D03*
D12*
X133142500Y-66150000D03*
X122982500Y-66150000D03*
D14*
X124252500Y-63610000D03*
X130602500Y-61070000D03*
%TD*%
D12*
%TO.C,MX51*%
X142032500Y-66150000D03*
X152192500Y-66150000D03*
D13*
X147112500Y-66150000D03*
D14*
X143302500Y-63610000D03*
X149652500Y-61070000D03*
%TD*%
D13*
%TO.C,MX52*%
X166162500Y-66150000D03*
D12*
X161082500Y-66150000D03*
X171242500Y-66150000D03*
D14*
X162352500Y-63610000D03*
X168702500Y-61070000D03*
%TD*%
D13*
%TO.C,MX53*%
X185212500Y-66150000D03*
D12*
X180132500Y-66150000D03*
X190292500Y-66150000D03*
D14*
X181402500Y-63610000D03*
X187752500Y-61070000D03*
%TD*%
D13*
%TO.C,MX54*%
X204262500Y-66150000D03*
D12*
X199182500Y-66150000D03*
X209342500Y-66150000D03*
D14*
X200452500Y-63610000D03*
X206802500Y-61070000D03*
%TD*%
D13*
%TO.C,MX55*%
X223312500Y-66150000D03*
D12*
X218232500Y-66150000D03*
X228392500Y-66150000D03*
D14*
X219502500Y-63610000D03*
X225852500Y-61070000D03*
%TD*%
D13*
%TO.C,MX56*%
X249506250Y-66150000D03*
D12*
X254586250Y-66150000D03*
X244426250Y-66150000D03*
D14*
X245696250Y-63610000D03*
X252046250Y-61070000D03*
%TD*%
D12*
%TO.C,MX57*%
X270620000Y-66150000D03*
D13*
X275700000Y-66150000D03*
D12*
X280780000Y-66150000D03*
D14*
X271890000Y-63610000D03*
X278240000Y-61070000D03*
%TD*%
D12*
%TO.C,MX63*%
X202199500Y-85200000D03*
X192039500Y-85200000D03*
D13*
X197119500Y-85200000D03*
D14*
X193309500Y-82660000D03*
X199659500Y-80120000D03*
%TD*%
D12*
%TO.C,MX71*%
X218232500Y-85200000D03*
D13*
X223312500Y-85200000D03*
D12*
X228392500Y-85200000D03*
D14*
X219502500Y-82660000D03*
X225852500Y-80120000D03*
%TD*%
D12*
%TO.C,MX8*%
X147430000Y-9000000D03*
X137270000Y-9000000D03*
D13*
X142350000Y-9000000D03*
D14*
X138540000Y-6460000D03*
X144890000Y-3920000D03*
%TD*%
D15*
%TO.C,MX58*%
X270937500Y-59165000D03*
D12*
X253951250Y-66150000D03*
D13*
X259031250Y-66150000D03*
D12*
X264111250Y-66150000D03*
D15*
X247125000Y-59165000D03*
D13*
X270937500Y-74405000D03*
X247125000Y-74405000D03*
D14*
X255221250Y-63610000D03*
X261571250Y-61070000D03*
%TD*%
D12*
%TO.C,MX68*%
X32494500Y-85200000D03*
X42654500Y-85200000D03*
D13*
X37574500Y-85200000D03*
D14*
X33764500Y-82660000D03*
X40114500Y-80120000D03*
%TD*%
D12*
%TO.C,MX69*%
X64085500Y-85200000D03*
D13*
X59005500Y-85200000D03*
D12*
X53925500Y-85200000D03*
D14*
X55195500Y-82660000D03*
X61545500Y-80120000D03*
%TD*%
D12*
%TO.C,MX70*%
X115837500Y-85200000D03*
X125997500Y-85200000D03*
D15*
X132823750Y-92185000D03*
X109011250Y-92185000D03*
D13*
X120917500Y-85200000D03*
X132823750Y-76945000D03*
X109011250Y-76945000D03*
D14*
X117107500Y-82660000D03*
X123457500Y-80120000D03*
%TD*%
D12*
%TO.C,MX72*%
X242045000Y-85200000D03*
X252205000Y-85200000D03*
D13*
X247125000Y-85200000D03*
D14*
X243315000Y-82660000D03*
X249665000Y-80120000D03*
%TD*%
D12*
%TO.C,MX73*%
X276017500Y-85200000D03*
X265857500Y-85200000D03*
D13*
X270937500Y-85200000D03*
D14*
X267127500Y-82660000D03*
X273477500Y-80120000D03*
%TD*%
D12*
%TO.C,MX67*%
X18842500Y-85200000D03*
D13*
X13762500Y-85200000D03*
D12*
X8682500Y-85200000D03*
D14*
X9952500Y-82660000D03*
X16302500Y-80120000D03*
%TD*%
D12*
%TO.C,MX15*%
X270620000Y-9000000D03*
D13*
X275700000Y-9000000D03*
D12*
X280780000Y-9000000D03*
D14*
X271890000Y-6460000D03*
X278240000Y-3920000D03*
%TD*%
D13*
%TO.C,MX74*%
X82817500Y-85200000D03*
D12*
X87897500Y-85200000D03*
X77737500Y-85200000D03*
D14*
X79007500Y-82660000D03*
X85357500Y-80120000D03*
%TD*%
D12*
%TO.C,MX75*%
X161081500Y-85200000D03*
D13*
X154255250Y-76945000D03*
X178067750Y-76945000D03*
D12*
X171241500Y-85200000D03*
D13*
X166161500Y-85200000D03*
D15*
X154255250Y-92185000D03*
X178067750Y-92185000D03*
D14*
X162351500Y-82660000D03*
X168701500Y-80120000D03*
%TD*%
D16*
%TO.C,F1*%
X23310000Y-17120000D03*
X26110000Y-17120000D03*
%TD*%
D17*
%TO.C,J1*%
X45000000Y-16000000D03*
X45000000Y-17000000D03*
X45000000Y-18000000D03*
X45000000Y-19000000D03*
D18*
X48875000Y-14700000D03*
X48875000Y-20300000D03*
%TD*%
D19*
%TO.C,J2*%
X5190000Y-20807501D03*
X7730000Y-20807501D03*
X5190000Y-18267501D03*
X7730000Y-18267501D03*
X5190000Y-15727501D03*
D20*
X7730000Y-15727501D03*
%TD*%
D21*
%TO.C,R1*%
X31402500Y-18750000D03*
X33277500Y-18750000D03*
%TD*%
%TO.C,R2*%
X31402500Y-16250000D03*
X33277500Y-16250000D03*
%TD*%
D22*
%TO.C,SW1*%
X58393750Y-37385000D03*
X52093750Y-37385000D03*
X52093750Y-33585000D03*
X58393750Y-33585000D03*
%TD*%
D23*
%TO.C,C5*%
X41897500Y-34870000D03*
X40022500Y-34870000D03*
%TD*%
%TO.C,C4*%
X24061250Y-28750000D03*
X22186250Y-28750000D03*
%TD*%
D21*
%TO.C,C3*%
X31122500Y-46910000D03*
X32997500Y-46910000D03*
%TD*%
D24*
%TO.C,U2*%
X24553750Y-32058750D03*
X25353750Y-32058750D03*
X26153750Y-32058750D03*
X26953750Y-32058750D03*
X27753750Y-32058750D03*
X28553750Y-32058750D03*
X29353750Y-32058750D03*
X30153750Y-32058750D03*
X30953750Y-32058750D03*
X31753750Y-32058750D03*
X32553750Y-32058750D03*
D25*
X34253750Y-33758750D03*
X34253750Y-34558750D03*
X34253750Y-35358750D03*
X34253750Y-36158750D03*
X34253750Y-36958750D03*
X34253750Y-37758750D03*
X34253750Y-38558750D03*
X34253750Y-39358750D03*
X34253750Y-40158750D03*
X34253750Y-40958750D03*
X34253750Y-41758750D03*
D24*
X32553750Y-43458750D03*
X31753750Y-43458750D03*
X30953750Y-43458750D03*
X30153750Y-43458750D03*
X29353750Y-43458750D03*
X28553750Y-43458750D03*
X27753750Y-43458750D03*
X26953750Y-43458750D03*
X26153750Y-43458750D03*
X25353750Y-43458750D03*
X24553750Y-43458750D03*
D25*
X22853750Y-41758750D03*
X22853750Y-40958750D03*
X22853750Y-40158750D03*
X22853750Y-39358750D03*
X22853750Y-38558750D03*
X22853750Y-37758750D03*
X22853750Y-36958750D03*
X22853750Y-36158750D03*
X22853750Y-35358750D03*
X22853750Y-34558750D03*
X22853750Y-33758750D03*
%TD*%
D26*
%TO.C,Y1*%
X42060000Y-38520000D03*
X39860000Y-38520000D03*
X39860000Y-36820000D03*
X42060000Y-36820000D03*
%TD*%
D27*
%TO.C,C1*%
X37160000Y-32982500D03*
X37160000Y-34857500D03*
%TD*%
%TO.C,R4*%
X49710000Y-33582500D03*
X49710000Y-35457500D03*
%TD*%
D28*
%TO.C,D1*%
X16937500Y-11443750D03*
X16937500Y-8143750D03*
%TD*%
%TO.C,D2*%
X20112500Y-11443750D03*
X20112500Y-8143750D03*
%TD*%
%TO.C,D3*%
X37575000Y-11443750D03*
X37575000Y-8143750D03*
%TD*%
%TO.C,D4*%
X56625000Y-11443750D03*
X56625000Y-8143750D03*
%TD*%
%TO.C,D5*%
X75675000Y-11443750D03*
X75675000Y-8143750D03*
%TD*%
%TO.C,D6*%
X94725000Y-11443750D03*
X94725000Y-8143750D03*
%TD*%
%TO.C,D7*%
X113775000Y-11443750D03*
X113775000Y-8143750D03*
%TD*%
%TO.C,D8*%
X132825000Y-11443750D03*
X132825000Y-8143750D03*
%TD*%
%TO.C,D9*%
X151875000Y-11443750D03*
X151875000Y-8143750D03*
%TD*%
%TO.C,D10*%
X170925000Y-11443750D03*
X170925000Y-8143750D03*
%TD*%
%TO.C,D11*%
X189975000Y-11443750D03*
X189975000Y-8143750D03*
%TD*%
%TO.C,D12*%
X209025000Y-11443750D03*
X209025000Y-8143750D03*
%TD*%
%TO.C,D14*%
X248655000Y-11443750D03*
X248655000Y-8143750D03*
%TD*%
%TO.C,D15*%
X245585000Y-11443750D03*
X245585000Y-8143750D03*
%TD*%
%TO.C,D16*%
X5825000Y-31287500D03*
X5825000Y-27987500D03*
%TD*%
%TO.C,D17*%
X67737500Y-30493750D03*
X67737500Y-27193750D03*
%TD*%
%TO.C,D18*%
X64562500Y-30493750D03*
X64562500Y-27193750D03*
%TD*%
%TO.C,D19*%
X83612500Y-30493750D03*
X83612500Y-27193750D03*
%TD*%
%TO.C,D20*%
X86787500Y-30493750D03*
X86787500Y-27193750D03*
%TD*%
%TO.C,D21*%
X104250000Y-30493750D03*
X104250000Y-27193750D03*
%TD*%
%TO.C,D22*%
X123300000Y-30493750D03*
X123300000Y-27193750D03*
%TD*%
%TO.C,D23*%
X142350000Y-30493750D03*
X142350000Y-27193750D03*
%TD*%
%TO.C,D24*%
X161400000Y-30493750D03*
X161400000Y-27193750D03*
%TD*%
%TO.C,D25*%
X180450000Y-30493750D03*
X180450000Y-27193750D03*
%TD*%
%TO.C,D26*%
X199500000Y-30493750D03*
X199500000Y-27193750D03*
%TD*%
%TO.C,D27*%
X218550000Y-30493750D03*
X218550000Y-27193750D03*
%TD*%
%TO.C,D28*%
X237600000Y-30493750D03*
X237600000Y-27193750D03*
%TD*%
%TO.C,D29*%
X261412500Y-30493750D03*
X261412500Y-27193750D03*
%TD*%
%TO.C,D30*%
X24081250Y-49543750D03*
X24081250Y-46243750D03*
%TD*%
%TO.C,D31*%
X50275000Y-49543750D03*
X50275000Y-46243750D03*
%TD*%
%TO.C,D32*%
X53450000Y-49543750D03*
X53450000Y-46243750D03*
%TD*%
%TO.C,D33*%
X70912500Y-49543750D03*
X70912500Y-46243750D03*
%TD*%
%TO.C,D35*%
X109012500Y-49543750D03*
X109012500Y-46243750D03*
%TD*%
%TO.C,D36*%
X128062500Y-49543750D03*
X128062500Y-46243750D03*
%TD*%
%TO.C,D37*%
X147112500Y-49543750D03*
X147112500Y-46243750D03*
%TD*%
%TO.C,D38*%
X166162500Y-49543750D03*
X166162500Y-46243750D03*
%TD*%
%TO.C,D39*%
X185212500Y-49543750D03*
X185212500Y-46243750D03*
%TD*%
%TO.C,D40*%
X204262500Y-49543750D03*
X204262500Y-46243750D03*
%TD*%
%TO.C,D41*%
X223312500Y-49543750D03*
X223312500Y-46243750D03*
%TD*%
%TO.C,D42*%
X254268750Y-49543750D03*
X254268750Y-46243750D03*
%TD*%
%TO.C,D43*%
X28843750Y-68593750D03*
X28843750Y-65293750D03*
%TD*%
%TO.C,D44*%
X42337500Y-68593750D03*
X42337500Y-65293750D03*
%TD*%
%TO.C,D45*%
X61387500Y-68593750D03*
X61387500Y-65293750D03*
%TD*%
%TO.C,D46*%
X80437500Y-68593750D03*
X80437500Y-65293750D03*
%TD*%
%TO.C,D47*%
X99487500Y-68593750D03*
X99487500Y-65293750D03*
%TD*%
%TO.C,D48*%
X118537500Y-68593750D03*
X118537500Y-65293750D03*
%TD*%
%TO.C,D49*%
X137587500Y-68593750D03*
X137587500Y-65293750D03*
%TD*%
%TO.C,D50*%
X156637500Y-68593750D03*
X156637500Y-65293750D03*
%TD*%
%TO.C,D51*%
X175687500Y-68593750D03*
X175687500Y-65293750D03*
%TD*%
%TO.C,D52*%
X194737500Y-68593750D03*
X194737500Y-65293750D03*
%TD*%
%TO.C,D53*%
X213787500Y-68593750D03*
X213787500Y-65293750D03*
%TD*%
%TO.C,D54*%
X239981250Y-68593750D03*
X239981250Y-65293750D03*
%TD*%
%TO.C,D55*%
X267715000Y-68593750D03*
X267715000Y-65293750D03*
%TD*%
%TO.C,D56*%
X21747500Y-87643750D03*
X21747500Y-84343750D03*
%TD*%
%TO.C,D57*%
X25668750Y-87643750D03*
X25668750Y-84343750D03*
%TD*%
%TO.C,D58*%
X49481250Y-87643750D03*
X49481250Y-84343750D03*
%TD*%
%TO.C,D59*%
X93275000Y-87781250D03*
X93275000Y-84481250D03*
%TD*%
%TO.C,D61*%
X213787500Y-87643750D03*
X213787500Y-84343750D03*
%TD*%
%TO.C,D62*%
X237550000Y-87643750D03*
X237550000Y-84343750D03*
%TD*%
%TO.C,D63*%
X261362500Y-87643750D03*
X261362500Y-84343750D03*
%TD*%
%TO.C,D13*%
X228075000Y-11443750D03*
X228075000Y-8143750D03*
%TD*%
D27*
%TO.C,C6*%
X28120000Y-26532500D03*
X28120000Y-28407500D03*
%TD*%
D23*
%TO.C,C7*%
X41897500Y-40470000D03*
X40022500Y-40470000D03*
%TD*%
D29*
%TO.C,R3*%
X29823750Y-56887500D03*
X29823750Y-55012500D03*
%TD*%
D28*
%TO.C,D34*%
X89962500Y-49543750D03*
X89962500Y-46243750D03*
%TD*%
%TO.C,D60*%
X186937500Y-87643750D03*
X186937500Y-84343750D03*
%TD*%
D21*
%TO.C,C2*%
X16236250Y-38558750D03*
X18111250Y-38558750D03*
%TD*%
D30*
%TO.C,U1*%
X39273750Y-18600000D03*
X38323750Y-18600000D03*
X37373750Y-18600000D03*
X37373750Y-16400000D03*
X38323750Y-16400000D03*
X39273750Y-16400000D03*
%TD*%
D28*
%TO.C,D65*%
X148837500Y-87781250D03*
X148837500Y-84481250D03*
%TD*%
%TO.C,D64*%
X71050000Y-87781250D03*
X71050000Y-84481250D03*
%TD*%
D31*
X40233750Y-19920000D03*
X31413750Y-54630000D03*
X40887500Y-33060000D03*
X32997500Y-48576250D03*
X10251485Y-19431484D03*
X22893750Y-30565000D03*
X22603750Y-11443750D03*
X34250000Y-29460000D03*
X20160000Y-31290000D03*
X36883750Y-48590000D03*
X28943750Y-53970000D03*
X24621260Y-68590000D03*
X20511781Y-35178113D03*
X23887500Y-87643750D03*
X19783769Y-35913254D03*
X31902295Y-23252418D03*
X24710000Y-14020002D03*
X23460000Y-14020002D03*
X30652295Y-23252418D03*
X33152295Y-23252418D03*
X25960000Y-14020002D03*
X16302500Y-35811250D03*
X26248750Y-49950000D03*
X21233770Y-35870020D03*
X279643750Y-51053125D03*
X31120000Y-48260000D03*
X17164520Y-37255480D03*
X25353750Y-30306250D03*
X22854251Y-32080501D03*
X29360000Y-30295000D03*
X37779382Y-31859382D03*
X49204145Y-32239605D03*
X42553750Y-14020002D03*
M02*
