%TF.GenerationSoftware,KiCad,Pcbnew,(6.0.6)*%
%TF.CreationDate,2022-07-22T23:56:38+02:00*%
%TF.ProjectId,bakeneko-60-pcb,62616b65-6e65-46b6-9f2d-36302d706362,rev?*%
%TF.SameCoordinates,Original*%
%TF.FileFunction,Profile,NP*%
%FSLAX46Y46*%
G04 Gerber Fmt 4.6, Leading zero omitted, Abs format (unit mm)*
G04 Created by KiCad (PCBNEW (6.0.6)) date 2022-07-22 23:56:38*
%MOMM*%
%LPD*%
G01*
G04 APERTURE LIST*
%TA.AperFunction,Profile*%
%ADD10C,0.200000*%
%TD*%
G04 APERTURE END LIST*
D10*
X235630567Y-93393551D02*
G75*
G03*
X236960606Y-94200000I1330033J693551D01*
G01*
X54655567Y-93393551D02*
G75*
G03*
X55985606Y-94200000I1330033J693551D01*
G01*
X284700000Y-91950000D02*
X284700000Y-2250000D01*
X228714395Y-94200000D02*
X55985606Y-94200000D01*
X47739395Y-94200000D02*
X2250000Y-94200000D01*
X0Y-91950000D02*
G75*
G03*
X2250000Y-94200000I2250000J0D01*
G01*
X33451895Y0D02*
X2250000Y0D01*
X251248106Y-6D02*
G75*
G03*
X249918072Y-806452I-6J-1499994D01*
G01*
X282450000Y-94200000D02*
X236960606Y-94200000D01*
X125269433Y-806449D02*
G75*
G03*
X123939394Y0I-1330033J-693551D01*
G01*
X244331928Y-806451D02*
G75*
G03*
X249918071Y-806452I2793072J1456451D01*
G01*
X284700000Y-2250000D02*
G75*
G03*
X282450000Y0I-2250000J0D01*
G01*
X235630572Y-93393548D02*
G75*
G03*
X230044428Y-93393548I-2793072J-1456451D01*
G01*
X54655572Y-93393548D02*
G75*
G03*
X49069428Y-93393548I-2793072J-1456451D01*
G01*
X41698106Y-6D02*
G75*
G03*
X40368072Y-806452I-6J-1499994D01*
G01*
X123939395Y0D02*
X41698106Y0D01*
X34781933Y-806449D02*
G75*
G03*
X33451894Y0I-1330033J-693551D01*
G01*
X282450000Y0D02*
X251248106Y0D01*
X228714395Y-94199995D02*
G75*
G03*
X230044429Y-93393548I5J1499995D01*
G01*
X2250000Y0D02*
G75*
G03*
X0Y-2250000I0J-2250000D01*
G01*
X125269428Y-806451D02*
G75*
G03*
X130855571Y-806452I2793072J1456451D01*
G01*
X282450000Y-94200000D02*
G75*
G03*
X284700000Y-91950000I0J2250000D01*
G01*
X47739395Y-94199995D02*
G75*
G03*
X49069429Y-93393548I5J1499995D01*
G01*
X132185606Y-6D02*
G75*
G03*
X130855572Y-806452I-6J-1499994D01*
G01*
X243001895Y0D02*
X132185606Y0D01*
X34781928Y-806451D02*
G75*
G03*
X40368071Y-806452I2793072J1456451D01*
G01*
X244331933Y-806449D02*
G75*
G03*
X243001894Y0I-1330033J-693551D01*
G01*
X0Y-91950000D02*
X0Y-2250000D01*
M02*
