%TF.GenerationSoftware,KiCad,Pcbnew,(6.0.6)*%
%TF.CreationDate,2022-07-25T21:41:33+02:00*%
%TF.ProjectId,bakeneko-60-pcb,62616b65-6e65-46b6-9f2d-36302d706362,rev?*%
%TF.SameCoordinates,Original*%
%TF.FileFunction,Soldermask,Bot*%
%TF.FilePolarity,Negative*%
%FSLAX46Y46*%
G04 Gerber Fmt 4.6, Leading zero omitted, Abs format (unit mm)*
G04 Created by KiCad (PCBNEW (6.0.6)) date 2022-07-25 21:41:33*
%MOMM*%
%LPD*%
G01*
G04 APERTURE LIST*
G04 Aperture macros list*
%AMRoundRect*
0 Rectangle with rounded corners*
0 $1 Rounding radius*
0 $2 $3 $4 $5 $6 $7 $8 $9 X,Y pos of 4 corners*
0 Add a 4 corners polygon primitive as box body*
4,1,4,$2,$3,$4,$5,$6,$7,$8,$9,$2,$3,0*
0 Add four circle primitives for the rounded corners*
1,1,$1+$1,$2,$3*
1,1,$1+$1,$4,$5*
1,1,$1+$1,$6,$7*
1,1,$1+$1,$8,$9*
0 Add four rect primitives between the rounded corners*
20,1,$1+$1,$2,$3,$4,$5,0*
20,1,$1+$1,$4,$5,$6,$7,0*
20,1,$1+$1,$6,$7,$8,$9,0*
20,1,$1+$1,$8,$9,$2,$3,0*%
G04 Aperture macros list end*
%ADD10C,1.850000*%
%ADD11C,4.087800*%
%ADD12C,2.350000*%
%ADD13C,3.148000*%
%ADD14RoundRect,0.300000X-0.375000X-0.625000X0.375000X-0.625000X0.375000X0.625000X-0.375000X0.625000X0*%
%ADD15RoundRect,0.200000X-0.625000X0.150000X-0.625000X-0.150000X0.625000X-0.150000X0.625000X0.150000X0*%
%ADD16RoundRect,0.300000X-0.650000X0.350000X-0.650000X-0.350000X0.650000X-0.350000X0.650000X0.350000X0*%
%ADD17RoundRect,0.293750X-0.243750X-0.456250X0.243750X-0.456250X0.243750X0.456250X-0.243750X0.456250X0*%
%ADD18RoundRect,0.050000X-0.850000X-0.500000X0.850000X-0.500000X0.850000X0.500000X-0.850000X0.500000X0*%
%ADD19RoundRect,0.293750X0.243750X0.456250X-0.243750X0.456250X-0.243750X-0.456250X0.243750X-0.456250X0*%
%ADD20RoundRect,0.050000X-0.275000X0.750000X-0.275000X-0.750000X0.275000X-0.750000X0.275000X0.750000X0*%
%ADD21RoundRect,0.050000X0.750000X0.275000X-0.750000X0.275000X-0.750000X-0.275000X0.750000X-0.275000X0*%
%ADD22RoundRect,0.050000X0.700000X0.600000X-0.700000X0.600000X-0.700000X-0.600000X0.700000X-0.600000X0*%
%ADD23RoundRect,0.293750X-0.456250X0.243750X-0.456250X-0.243750X0.456250X-0.243750X0.456250X0.243750X0*%
%ADD24RoundRect,0.050000X0.600000X-0.450000X0.600000X0.450000X-0.600000X0.450000X-0.600000X-0.450000X0*%
%ADD25RoundRect,0.050000X0.450000X0.600000X-0.450000X0.600000X-0.450000X-0.600000X0.450000X-0.600000X0*%
%ADD26RoundRect,0.293750X0.456250X-0.243750X0.456250X0.243750X-0.456250X0.243750X-0.456250X-0.243750X0*%
%ADD27RoundRect,0.050000X0.325000X-0.530000X0.325000X0.530000X-0.325000X0.530000X-0.325000X-0.530000X0*%
%ADD28C,0.900000*%
G04 APERTURE END LIST*
D10*
%TO.C,MX1*%
X3920000Y-9000000D03*
X14080000Y-9000000D03*
D11*
X9000000Y-9000000D03*
D12*
X5190000Y-6460000D03*
X11540000Y-3920000D03*
%TD*%
D11*
%TO.C,MX2*%
X28050000Y-9000000D03*
D10*
X22970000Y-9000000D03*
X33130000Y-9000000D03*
D12*
X24240000Y-6460000D03*
X30590000Y-3920000D03*
%TD*%
D11*
%TO.C,MX3*%
X47100000Y-9000000D03*
D10*
X42020000Y-9000000D03*
X52180000Y-9000000D03*
D12*
X43290000Y-6460000D03*
X49640000Y-3920000D03*
%TD*%
D10*
%TO.C,MX4*%
X61070000Y-9000000D03*
D11*
X66150000Y-9000000D03*
D10*
X71230000Y-9000000D03*
D12*
X62340000Y-6460000D03*
X68690000Y-3920000D03*
%TD*%
D10*
%TO.C,MX5*%
X90280000Y-9000000D03*
X80120000Y-9000000D03*
D11*
X85200000Y-9000000D03*
D12*
X81390000Y-6460000D03*
X87740000Y-3920000D03*
%TD*%
D10*
%TO.C,MX6*%
X99170000Y-9000000D03*
D11*
X104250000Y-9000000D03*
D10*
X109330000Y-9000000D03*
D12*
X100440000Y-6460000D03*
X106790000Y-3920000D03*
%TD*%
D10*
%TO.C,MX7*%
X118220000Y-9000000D03*
D11*
X123300000Y-9000000D03*
D10*
X128380000Y-9000000D03*
D12*
X119490000Y-6460000D03*
X125840000Y-3920000D03*
%TD*%
D10*
%TO.C,MX9*%
X156320000Y-9000000D03*
X166480000Y-9000000D03*
D11*
X161400000Y-9000000D03*
D12*
X157590000Y-6460000D03*
X163940000Y-3920000D03*
%TD*%
D10*
%TO.C,MX10*%
X185530000Y-9000000D03*
X175370000Y-9000000D03*
D11*
X180450000Y-9000000D03*
D12*
X176640000Y-6460000D03*
X182990000Y-3920000D03*
%TD*%
D11*
%TO.C,MX11*%
X199500000Y-9000000D03*
D10*
X204580000Y-9000000D03*
X194420000Y-9000000D03*
D12*
X195690000Y-6460000D03*
X202040000Y-3920000D03*
%TD*%
D10*
%TO.C,MX12*%
X223630000Y-9000000D03*
X213470000Y-9000000D03*
D11*
X218550000Y-9000000D03*
D12*
X214740000Y-6460000D03*
X221090000Y-3920000D03*
%TD*%
D10*
%TO.C,MX13*%
X232520000Y-9000000D03*
X242680000Y-9000000D03*
D11*
X237600000Y-9000000D03*
D12*
X233790000Y-6460000D03*
X240140000Y-3920000D03*
%TD*%
D10*
%TO.C,MX14*%
X261730000Y-9000000D03*
D11*
X256650000Y-9000000D03*
D10*
X251570000Y-9000000D03*
D12*
X252840000Y-6460000D03*
X259190000Y-3920000D03*
%TD*%
D10*
%TO.C,MX17*%
X18842500Y-28050000D03*
D11*
X13762500Y-28050000D03*
D10*
X8682500Y-28050000D03*
D12*
X9952500Y-25510000D03*
X16302500Y-22970000D03*
%TD*%
D11*
%TO.C,MX18*%
X37575000Y-28050000D03*
D10*
X32495000Y-28050000D03*
X42655000Y-28050000D03*
D12*
X33765000Y-25510000D03*
X40115000Y-22970000D03*
%TD*%
D10*
%TO.C,MX19*%
X61705000Y-28050000D03*
D11*
X56625000Y-28050000D03*
D10*
X51545000Y-28050000D03*
D12*
X52815000Y-25510000D03*
X59165000Y-22970000D03*
%TD*%
D11*
%TO.C,MX20*%
X75675000Y-28050000D03*
D10*
X80755000Y-28050000D03*
X70595000Y-28050000D03*
D12*
X71865000Y-25510000D03*
X78215000Y-22970000D03*
%TD*%
D10*
%TO.C,MX21*%
X99805000Y-28050000D03*
X89645000Y-28050000D03*
D11*
X94725000Y-28050000D03*
D12*
X90915000Y-25510000D03*
X97265000Y-22970000D03*
%TD*%
D10*
%TO.C,MX22*%
X118855000Y-28050000D03*
X108695000Y-28050000D03*
D11*
X113775000Y-28050000D03*
D12*
X109965000Y-25510000D03*
X116315000Y-22970000D03*
%TD*%
D10*
%TO.C,MX23*%
X137905000Y-28050000D03*
X127745000Y-28050000D03*
D11*
X132825000Y-28050000D03*
D12*
X129015000Y-25510000D03*
X135365000Y-22970000D03*
%TD*%
D10*
%TO.C,MX24*%
X156955000Y-28050000D03*
D11*
X151875000Y-28050000D03*
D10*
X146795000Y-28050000D03*
D12*
X148065000Y-25510000D03*
X154415000Y-22970000D03*
%TD*%
D10*
%TO.C,MX25*%
X176005000Y-28050000D03*
X165845000Y-28050000D03*
D11*
X170925000Y-28050000D03*
D12*
X167115000Y-25510000D03*
X173465000Y-22970000D03*
%TD*%
D10*
%TO.C,MX26*%
X195055000Y-28050000D03*
X184895000Y-28050000D03*
D11*
X189975000Y-28050000D03*
D12*
X186165000Y-25510000D03*
X192515000Y-22970000D03*
%TD*%
D10*
%TO.C,MX27*%
X214105000Y-28050000D03*
D11*
X209025000Y-28050000D03*
D10*
X203945000Y-28050000D03*
D12*
X205215000Y-25510000D03*
X211565000Y-22970000D03*
%TD*%
D10*
%TO.C,MX28*%
X233155000Y-28050000D03*
D11*
X228075000Y-28050000D03*
D10*
X222995000Y-28050000D03*
D12*
X224265000Y-25510000D03*
X230615000Y-22970000D03*
%TD*%
D11*
%TO.C,MX29*%
X247125000Y-28050000D03*
D10*
X242045000Y-28050000D03*
X252205000Y-28050000D03*
D12*
X243315000Y-25510000D03*
X249665000Y-22970000D03*
%TD*%
D10*
%TO.C,MX30*%
X276017500Y-28050000D03*
X265857500Y-28050000D03*
D11*
X270937500Y-28050000D03*
D12*
X267127500Y-25510000D03*
X273477500Y-22970000D03*
%TD*%
D10*
%TO.C,MX31*%
X6301250Y-47100000D03*
D11*
X11381250Y-47100000D03*
D10*
X16461250Y-47100000D03*
D12*
X7571250Y-44560000D03*
X13921250Y-42020000D03*
%TD*%
D11*
%TO.C,MX32*%
X16143750Y-47100000D03*
D10*
X11063750Y-47100000D03*
X21223750Y-47100000D03*
D12*
X12333750Y-44560000D03*
X18683750Y-42020000D03*
%TD*%
D10*
%TO.C,MX33*%
X47417500Y-47100000D03*
D11*
X42337500Y-47100000D03*
D10*
X37257500Y-47100000D03*
D12*
X38527500Y-44560000D03*
X44877500Y-42020000D03*
%TD*%
D11*
%TO.C,MX34*%
X61387500Y-47100000D03*
D10*
X56307500Y-47100000D03*
X66467500Y-47100000D03*
D12*
X57577500Y-44560000D03*
X63927500Y-42020000D03*
%TD*%
D10*
%TO.C,MX35*%
X85517500Y-47100000D03*
X75357500Y-47100000D03*
D11*
X80437500Y-47100000D03*
D12*
X76627500Y-44560000D03*
X82977500Y-42020000D03*
%TD*%
D11*
%TO.C,MX36*%
X99487500Y-47100000D03*
D10*
X94407500Y-47100000D03*
X104567500Y-47100000D03*
D12*
X95677500Y-44560000D03*
X102027500Y-42020000D03*
%TD*%
D10*
%TO.C,MX37*%
X123617500Y-47100000D03*
X113457500Y-47100000D03*
D11*
X118537500Y-47100000D03*
D12*
X114727500Y-44560000D03*
X121077500Y-42020000D03*
%TD*%
D11*
%TO.C,MX38*%
X137587500Y-47100000D03*
D10*
X142667500Y-47100000D03*
X132507500Y-47100000D03*
D12*
X133777500Y-44560000D03*
X140127500Y-42020000D03*
%TD*%
D11*
%TO.C,MX39*%
X156637500Y-47100000D03*
D10*
X151557500Y-47100000D03*
X161717500Y-47100000D03*
D12*
X152827500Y-44560000D03*
X159177500Y-42020000D03*
%TD*%
D11*
%TO.C,MX40*%
X175687500Y-47100000D03*
D10*
X170607500Y-47100000D03*
X180767500Y-47100000D03*
D12*
X171877500Y-44560000D03*
X178227500Y-42020000D03*
%TD*%
D11*
%TO.C,MX41*%
X194737500Y-47100000D03*
D10*
X189657500Y-47100000D03*
X199817500Y-47100000D03*
D12*
X190927500Y-44560000D03*
X197277500Y-42020000D03*
%TD*%
D10*
%TO.C,MX42*%
X208707500Y-47100000D03*
D11*
X213787500Y-47100000D03*
D10*
X218867500Y-47100000D03*
D12*
X209977500Y-44560000D03*
X216327500Y-42020000D03*
%TD*%
D10*
%TO.C,MX43*%
X237917500Y-47100000D03*
X227757500Y-47100000D03*
D11*
X232837500Y-47100000D03*
D12*
X229027500Y-44560000D03*
X235377500Y-42020000D03*
%TD*%
D11*
%TO.C,MX44*%
X263793750Y-47100000D03*
D10*
X268873750Y-47100000D03*
D11*
X275700000Y-55355000D03*
D10*
X258713750Y-47100000D03*
D13*
X251887500Y-40115000D03*
D11*
X251887500Y-55355000D03*
D13*
X275700000Y-40115000D03*
D12*
X259983750Y-44560000D03*
X266333750Y-42020000D03*
%TD*%
D11*
%TO.C,MX45*%
X20906250Y-66150000D03*
X32812500Y-74405000D03*
D13*
X9000000Y-59165000D03*
D10*
X25986250Y-66150000D03*
X15826250Y-66150000D03*
D13*
X32812500Y-59165000D03*
D11*
X9000000Y-74405000D03*
D12*
X17096250Y-63610000D03*
X23446250Y-61070000D03*
%TD*%
D10*
%TO.C,MX46*%
X56942500Y-66150000D03*
X46782500Y-66150000D03*
D11*
X51862500Y-66150000D03*
D12*
X48052500Y-63610000D03*
X54402500Y-61070000D03*
%TD*%
D11*
%TO.C,MX47*%
X70912500Y-66150000D03*
D10*
X65832500Y-66150000D03*
X75992500Y-66150000D03*
D12*
X67102500Y-63610000D03*
X73452500Y-61070000D03*
%TD*%
D10*
%TO.C,MX48*%
X95042500Y-66150000D03*
D11*
X89962500Y-66150000D03*
D10*
X84882500Y-66150000D03*
D12*
X86152500Y-63610000D03*
X92502500Y-61070000D03*
%TD*%
D10*
%TO.C,MX49*%
X114092500Y-66150000D03*
X103932500Y-66150000D03*
D11*
X109012500Y-66150000D03*
D12*
X105202500Y-63610000D03*
X111552500Y-61070000D03*
%TD*%
D11*
%TO.C,MX50*%
X128062500Y-66150000D03*
D10*
X133142500Y-66150000D03*
X122982500Y-66150000D03*
D12*
X124252500Y-63610000D03*
X130602500Y-61070000D03*
%TD*%
D10*
%TO.C,MX51*%
X142032500Y-66150000D03*
X152192500Y-66150000D03*
D11*
X147112500Y-66150000D03*
D12*
X143302500Y-63610000D03*
X149652500Y-61070000D03*
%TD*%
D11*
%TO.C,MX52*%
X166162500Y-66150000D03*
D10*
X161082500Y-66150000D03*
X171242500Y-66150000D03*
D12*
X162352500Y-63610000D03*
X168702500Y-61070000D03*
%TD*%
D11*
%TO.C,MX53*%
X185212500Y-66150000D03*
D10*
X180132500Y-66150000D03*
X190292500Y-66150000D03*
D12*
X181402500Y-63610000D03*
X187752500Y-61070000D03*
%TD*%
D11*
%TO.C,MX54*%
X204262500Y-66150000D03*
D10*
X199182500Y-66150000D03*
X209342500Y-66150000D03*
D12*
X200452500Y-63610000D03*
X206802500Y-61070000D03*
%TD*%
D11*
%TO.C,MX55*%
X223312500Y-66150000D03*
D10*
X218232500Y-66150000D03*
X228392500Y-66150000D03*
D12*
X219502500Y-63610000D03*
X225852500Y-61070000D03*
%TD*%
D11*
%TO.C,MX56*%
X249506250Y-66150000D03*
D10*
X254586250Y-66150000D03*
X244426250Y-66150000D03*
D12*
X245696250Y-63610000D03*
X252046250Y-61070000D03*
%TD*%
D10*
%TO.C,MX57*%
X270620000Y-66150000D03*
D11*
X275700000Y-66150000D03*
D10*
X280780000Y-66150000D03*
D12*
X271890000Y-63610000D03*
X278240000Y-61070000D03*
%TD*%
D10*
%TO.C,MX63*%
X202199500Y-85200000D03*
X192039500Y-85200000D03*
D11*
X197119500Y-85200000D03*
D12*
X193309500Y-82660000D03*
X199659500Y-80120000D03*
%TD*%
D10*
%TO.C,MX71*%
X218232500Y-85200000D03*
D11*
X223312500Y-85200000D03*
D10*
X228392500Y-85200000D03*
D12*
X219502500Y-82660000D03*
X225852500Y-80120000D03*
%TD*%
D10*
%TO.C,MX8*%
X147430000Y-9000000D03*
X137270000Y-9000000D03*
D11*
X142350000Y-9000000D03*
D12*
X138540000Y-6460000D03*
X144890000Y-3920000D03*
%TD*%
D13*
%TO.C,MX58*%
X270937500Y-59165000D03*
D10*
X253951250Y-66150000D03*
D11*
X259031250Y-66150000D03*
D10*
X264111250Y-66150000D03*
D13*
X247125000Y-59165000D03*
D11*
X270937500Y-74405000D03*
X247125000Y-74405000D03*
D12*
X255221250Y-63610000D03*
X261571250Y-61070000D03*
%TD*%
D10*
%TO.C,MX68*%
X32494500Y-85200000D03*
X42654500Y-85200000D03*
D11*
X37574500Y-85200000D03*
D12*
X33764500Y-82660000D03*
X40114500Y-80120000D03*
%TD*%
D10*
%TO.C,MX69*%
X64085500Y-85200000D03*
D11*
X59005500Y-85200000D03*
D10*
X53925500Y-85200000D03*
D12*
X55195500Y-82660000D03*
X61545500Y-80120000D03*
%TD*%
D10*
%TO.C,MX70*%
X115837500Y-85200000D03*
X125997500Y-85200000D03*
D13*
X132823750Y-92185000D03*
X109011250Y-92185000D03*
D11*
X120917500Y-85200000D03*
X132823750Y-76945000D03*
X109011250Y-76945000D03*
D12*
X117107500Y-82660000D03*
X123457500Y-80120000D03*
%TD*%
D10*
%TO.C,MX72*%
X242045000Y-85200000D03*
X252205000Y-85200000D03*
D11*
X247125000Y-85200000D03*
D12*
X243315000Y-82660000D03*
X249665000Y-80120000D03*
%TD*%
D10*
%TO.C,MX73*%
X276017500Y-85200000D03*
X265857500Y-85200000D03*
D11*
X270937500Y-85200000D03*
D12*
X267127500Y-82660000D03*
X273477500Y-80120000D03*
%TD*%
D10*
%TO.C,MX67*%
X18842500Y-85200000D03*
D11*
X13762500Y-85200000D03*
D10*
X8682500Y-85200000D03*
D12*
X9952500Y-82660000D03*
X16302500Y-80120000D03*
%TD*%
D10*
%TO.C,MX15*%
X270620000Y-9000000D03*
D11*
X275700000Y-9000000D03*
D10*
X280780000Y-9000000D03*
D12*
X271890000Y-6460000D03*
X278240000Y-3920000D03*
%TD*%
D11*
%TO.C,MX74*%
X82817500Y-85200000D03*
D10*
X87897500Y-85200000D03*
X77737500Y-85200000D03*
D12*
X79007500Y-82660000D03*
X85357500Y-80120000D03*
%TD*%
D10*
%TO.C,MX75*%
X161081500Y-85200000D03*
D11*
X154255250Y-76945000D03*
X178067750Y-76945000D03*
D10*
X171241500Y-85200000D03*
D11*
X166161500Y-85200000D03*
D13*
X154255250Y-92185000D03*
X178067750Y-92185000D03*
D12*
X162351500Y-82660000D03*
X168701500Y-80120000D03*
%TD*%
D14*
%TO.C,F1*%
X23310000Y-17120000D03*
X26110000Y-17120000D03*
%TD*%
D15*
%TO.C,J1*%
X3460000Y-17220000D03*
X3460000Y-18220000D03*
X3460000Y-19220000D03*
X3460000Y-20220000D03*
D16*
X7335000Y-15920000D03*
X7335000Y-21520000D03*
%TD*%
D17*
%TO.C,R1*%
X31402500Y-18750000D03*
X33277500Y-18750000D03*
%TD*%
%TO.C,R2*%
X31402500Y-16250000D03*
X33277500Y-16250000D03*
%TD*%
D18*
%TO.C,SW1*%
X58393750Y-37385000D03*
X52093750Y-37385000D03*
X52093750Y-33585000D03*
X58393750Y-33585000D03*
%TD*%
D19*
%TO.C,C5*%
X41897500Y-34870000D03*
X40022500Y-34870000D03*
%TD*%
%TO.C,C4*%
X24061250Y-28750000D03*
X22186250Y-28750000D03*
%TD*%
D17*
%TO.C,C3*%
X31122500Y-46910000D03*
X32997500Y-46910000D03*
%TD*%
D20*
%TO.C,U2*%
X24553750Y-32058750D03*
X25353750Y-32058750D03*
X26153750Y-32058750D03*
X26953750Y-32058750D03*
X27753750Y-32058750D03*
X28553750Y-32058750D03*
X29353750Y-32058750D03*
X30153750Y-32058750D03*
X30953750Y-32058750D03*
X31753750Y-32058750D03*
X32553750Y-32058750D03*
D21*
X34253750Y-33758750D03*
X34253750Y-34558750D03*
X34253750Y-35358750D03*
X34253750Y-36158750D03*
X34253750Y-36958750D03*
X34253750Y-37758750D03*
X34253750Y-38558750D03*
X34253750Y-39358750D03*
X34253750Y-40158750D03*
X34253750Y-40958750D03*
X34253750Y-41758750D03*
D20*
X32553750Y-43458750D03*
X31753750Y-43458750D03*
X30953750Y-43458750D03*
X30153750Y-43458750D03*
X29353750Y-43458750D03*
X28553750Y-43458750D03*
X27753750Y-43458750D03*
X26953750Y-43458750D03*
X26153750Y-43458750D03*
X25353750Y-43458750D03*
X24553750Y-43458750D03*
D21*
X22853750Y-41758750D03*
X22853750Y-40958750D03*
X22853750Y-40158750D03*
X22853750Y-39358750D03*
X22853750Y-38558750D03*
X22853750Y-37758750D03*
X22853750Y-36958750D03*
X22853750Y-36158750D03*
X22853750Y-35358750D03*
X22853750Y-34558750D03*
X22853750Y-33758750D03*
%TD*%
D22*
%TO.C,Y1*%
X42060000Y-38520000D03*
X39860000Y-38520000D03*
X39860000Y-36820000D03*
X42060000Y-36820000D03*
%TD*%
D23*
%TO.C,C1*%
X37160000Y-32982500D03*
X37160000Y-34857500D03*
%TD*%
%TO.C,R4*%
X49710000Y-33582500D03*
X49710000Y-35457500D03*
%TD*%
D24*
%TO.C,D1*%
X16937500Y-11443750D03*
X16937500Y-8143750D03*
%TD*%
%TO.C,D2*%
X20112500Y-11443750D03*
X20112500Y-8143750D03*
%TD*%
%TO.C,D3*%
X37575000Y-11443750D03*
X37575000Y-8143750D03*
%TD*%
%TO.C,D4*%
X56625000Y-11443750D03*
X56625000Y-8143750D03*
%TD*%
%TO.C,D5*%
X75675000Y-11443750D03*
X75675000Y-8143750D03*
%TD*%
%TO.C,D6*%
X94725000Y-11443750D03*
X94725000Y-8143750D03*
%TD*%
%TO.C,D7*%
X113775000Y-11443750D03*
X113775000Y-8143750D03*
%TD*%
%TO.C,D8*%
X132825000Y-11443750D03*
X132825000Y-8143750D03*
%TD*%
%TO.C,D9*%
X151875000Y-11443750D03*
X151875000Y-8143750D03*
%TD*%
%TO.C,D10*%
X170925000Y-11443750D03*
X170925000Y-8143750D03*
%TD*%
%TO.C,D11*%
X189975000Y-11443750D03*
X189975000Y-8143750D03*
%TD*%
%TO.C,D12*%
X209025000Y-11443750D03*
X209025000Y-8143750D03*
%TD*%
%TO.C,D14*%
X248655000Y-11443750D03*
X248655000Y-8143750D03*
%TD*%
%TO.C,D15*%
X245585000Y-11443750D03*
X245585000Y-8143750D03*
%TD*%
D25*
%TO.C,D16*%
X14370000Y-32740000D03*
X11070000Y-32740000D03*
%TD*%
D24*
%TO.C,D17*%
X67737500Y-30493750D03*
X67737500Y-27193750D03*
%TD*%
%TO.C,D18*%
X64562500Y-30493750D03*
X64562500Y-27193750D03*
%TD*%
%TO.C,D19*%
X83612500Y-30493750D03*
X83612500Y-27193750D03*
%TD*%
%TO.C,D20*%
X86787500Y-30493750D03*
X86787500Y-27193750D03*
%TD*%
%TO.C,D21*%
X104250000Y-30493750D03*
X104250000Y-27193750D03*
%TD*%
%TO.C,D22*%
X123300000Y-30493750D03*
X123300000Y-27193750D03*
%TD*%
%TO.C,D23*%
X142350000Y-30493750D03*
X142350000Y-27193750D03*
%TD*%
%TO.C,D24*%
X161400000Y-30493750D03*
X161400000Y-27193750D03*
%TD*%
%TO.C,D25*%
X180450000Y-30493750D03*
X180450000Y-27193750D03*
%TD*%
%TO.C,D26*%
X199500000Y-30493750D03*
X199500000Y-27193750D03*
%TD*%
%TO.C,D27*%
X218550000Y-30493750D03*
X218550000Y-27193750D03*
%TD*%
%TO.C,D28*%
X237600000Y-30493750D03*
X237600000Y-27193750D03*
%TD*%
%TO.C,D29*%
X261412500Y-30493750D03*
X261412500Y-27193750D03*
%TD*%
%TO.C,D30*%
X24081250Y-49543750D03*
X24081250Y-46243750D03*
%TD*%
%TO.C,D31*%
X50275000Y-49543750D03*
X50275000Y-46243750D03*
%TD*%
%TO.C,D32*%
X53450000Y-49543750D03*
X53450000Y-46243750D03*
%TD*%
%TO.C,D33*%
X70912500Y-49543750D03*
X70912500Y-46243750D03*
%TD*%
%TO.C,D35*%
X109012500Y-49543750D03*
X109012500Y-46243750D03*
%TD*%
%TO.C,D36*%
X128062500Y-49543750D03*
X128062500Y-46243750D03*
%TD*%
%TO.C,D37*%
X147112500Y-49543750D03*
X147112500Y-46243750D03*
%TD*%
%TO.C,D38*%
X166162500Y-49543750D03*
X166162500Y-46243750D03*
%TD*%
%TO.C,D39*%
X185212500Y-49543750D03*
X185212500Y-46243750D03*
%TD*%
%TO.C,D40*%
X204262500Y-49543750D03*
X204262500Y-46243750D03*
%TD*%
%TO.C,D41*%
X223312500Y-49543750D03*
X223312500Y-46243750D03*
%TD*%
%TO.C,D42*%
X254268750Y-49543750D03*
X254268750Y-46243750D03*
%TD*%
%TO.C,D43*%
X28843750Y-68593750D03*
X28843750Y-65293750D03*
%TD*%
%TO.C,D44*%
X42337500Y-68593750D03*
X42337500Y-65293750D03*
%TD*%
%TO.C,D45*%
X61387500Y-68593750D03*
X61387500Y-65293750D03*
%TD*%
%TO.C,D46*%
X80437500Y-68593750D03*
X80437500Y-65293750D03*
%TD*%
%TO.C,D47*%
X99487500Y-68593750D03*
X99487500Y-65293750D03*
%TD*%
%TO.C,D48*%
X118537500Y-68593750D03*
X118537500Y-65293750D03*
%TD*%
%TO.C,D49*%
X137587500Y-68593750D03*
X137587500Y-65293750D03*
%TD*%
%TO.C,D50*%
X156637500Y-68593750D03*
X156637500Y-65293750D03*
%TD*%
%TO.C,D51*%
X175687500Y-68593750D03*
X175687500Y-65293750D03*
%TD*%
%TO.C,D52*%
X194737500Y-68593750D03*
X194737500Y-65293750D03*
%TD*%
%TO.C,D53*%
X213787500Y-68593750D03*
X213787500Y-65293750D03*
%TD*%
%TO.C,D54*%
X239981250Y-68593750D03*
X239981250Y-65293750D03*
%TD*%
%TO.C,D55*%
X267715000Y-68593750D03*
X267715000Y-65293750D03*
%TD*%
%TO.C,D56*%
X21747500Y-87643750D03*
X21747500Y-84343750D03*
%TD*%
%TO.C,D57*%
X25668750Y-87643750D03*
X25668750Y-84343750D03*
%TD*%
%TO.C,D58*%
X49481250Y-87643750D03*
X49481250Y-84343750D03*
%TD*%
%TO.C,D59*%
X93275000Y-87781250D03*
X93275000Y-84481250D03*
%TD*%
%TO.C,D61*%
X213787500Y-87643750D03*
X213787500Y-84343750D03*
%TD*%
%TO.C,D62*%
X237550000Y-87643750D03*
X237550000Y-84343750D03*
%TD*%
%TO.C,D63*%
X261362500Y-87643750D03*
X261362500Y-84343750D03*
%TD*%
%TO.C,D13*%
X228075000Y-11443750D03*
X228075000Y-8143750D03*
%TD*%
D23*
%TO.C,C6*%
X28120000Y-26532500D03*
X28120000Y-28407500D03*
%TD*%
D19*
%TO.C,C7*%
X41897500Y-40470000D03*
X40022500Y-40470000D03*
%TD*%
D26*
%TO.C,R3*%
X29823750Y-56887500D03*
X29823750Y-55012500D03*
%TD*%
D24*
%TO.C,D34*%
X89962500Y-49543750D03*
X89962500Y-46243750D03*
%TD*%
%TO.C,D60*%
X186937500Y-87643750D03*
X186937500Y-84343750D03*
%TD*%
D17*
%TO.C,C2*%
X16236250Y-38558750D03*
X18111250Y-38558750D03*
%TD*%
D27*
%TO.C,U1*%
X39273750Y-18600000D03*
X38323750Y-18600000D03*
X37373750Y-18600000D03*
X37373750Y-16400000D03*
X38323750Y-16400000D03*
X39273750Y-16400000D03*
%TD*%
D24*
%TO.C,D65*%
X148837500Y-87781250D03*
X148837500Y-84481250D03*
%TD*%
%TO.C,D64*%
X71050000Y-87781250D03*
X71050000Y-84481250D03*
%TD*%
D28*
X40233750Y-19920000D03*
X31413750Y-54630000D03*
X40887500Y-33060000D03*
X32997500Y-48576250D03*
X22893750Y-30565000D03*
X22603750Y-11443750D03*
X34250000Y-29460000D03*
X20160000Y-31290000D03*
X36883750Y-48590000D03*
X28943750Y-53970000D03*
X24621260Y-68590000D03*
X20511781Y-35178113D03*
X23887500Y-87643750D03*
X19783769Y-35913254D03*
X16302500Y-35811250D03*
X26248750Y-49950000D03*
X21233770Y-35870020D03*
X279643750Y-51053125D03*
X31120000Y-48260000D03*
X17164520Y-37255480D03*
X25353750Y-30306250D03*
X22854251Y-32080501D03*
X29360000Y-30295000D03*
X37779382Y-31859382D03*
M02*
