%TF.GenerationSoftware,KiCad,Pcbnew,(6.0.6)*%
%TF.CreationDate,2022-07-23T11:14:35+02:00*%
%TF.ProjectId,bakeneko-60-pcb,62616b65-6e65-46b6-9f2d-36302d706362,rev?*%
%TF.SameCoordinates,Original*%
%TF.FileFunction,Copper,L2,Bot*%
%TF.FilePolarity,Positive*%
%FSLAX46Y46*%
G04 Gerber Fmt 4.6, Leading zero omitted, Abs format (unit mm)*
G04 Created by KiCad (PCBNEW (6.0.6)) date 2022-07-23 11:14:35*
%MOMM*%
%LPD*%
G01*
G04 APERTURE LIST*
G04 Aperture macros list*
%AMRoundRect*
0 Rectangle with rounded corners*
0 $1 Rounding radius*
0 $2 $3 $4 $5 $6 $7 $8 $9 X,Y pos of 4 corners*
0 Add a 4 corners polygon primitive as box body*
4,1,4,$2,$3,$4,$5,$6,$7,$8,$9,$2,$3,0*
0 Add four circle primitives for the rounded corners*
1,1,$1+$1,$2,$3*
1,1,$1+$1,$4,$5*
1,1,$1+$1,$6,$7*
1,1,$1+$1,$8,$9*
0 Add four rect primitives between the rounded corners*
20,1,$1+$1,$2,$3,$4,$5,0*
20,1,$1+$1,$4,$5,$6,$7,0*
20,1,$1+$1,$6,$7,$8,$9,0*
20,1,$1+$1,$8,$9,$2,$3,0*%
G04 Aperture macros list end*
%TA.AperFunction,ComponentPad*%
%ADD10C,2.250000*%
%TD*%
%TA.AperFunction,SMDPad,CuDef*%
%ADD11RoundRect,0.250000X-0.375000X-0.625000X0.375000X-0.625000X0.375000X0.625000X-0.375000X0.625000X0*%
%TD*%
%TA.AperFunction,SMDPad,CuDef*%
%ADD12RoundRect,0.150000X-0.625000X0.150000X-0.625000X-0.150000X0.625000X-0.150000X0.625000X0.150000X0*%
%TD*%
%TA.AperFunction,SMDPad,CuDef*%
%ADD13RoundRect,0.250000X-0.650000X0.350000X-0.650000X-0.350000X0.650000X-0.350000X0.650000X0.350000X0*%
%TD*%
%TA.AperFunction,ComponentPad*%
%ADD14O,1.700000X1.700000*%
%TD*%
%TA.AperFunction,ComponentPad*%
%ADD15R,1.700000X1.700000*%
%TD*%
%TA.AperFunction,SMDPad,CuDef*%
%ADD16RoundRect,0.243750X-0.243750X-0.456250X0.243750X-0.456250X0.243750X0.456250X-0.243750X0.456250X0*%
%TD*%
%TA.AperFunction,SMDPad,CuDef*%
%ADD17R,1.700000X1.000000*%
%TD*%
%TA.AperFunction,SMDPad,CuDef*%
%ADD18RoundRect,0.243750X0.243750X0.456250X-0.243750X0.456250X-0.243750X-0.456250X0.243750X-0.456250X0*%
%TD*%
%TA.AperFunction,SMDPad,CuDef*%
%ADD19R,0.550000X1.500000*%
%TD*%
%TA.AperFunction,SMDPad,CuDef*%
%ADD20R,1.500000X0.550000*%
%TD*%
%TA.AperFunction,SMDPad,CuDef*%
%ADD21R,1.400000X1.200000*%
%TD*%
%TA.AperFunction,SMDPad,CuDef*%
%ADD22RoundRect,0.243750X-0.456250X0.243750X-0.456250X-0.243750X0.456250X-0.243750X0.456250X0.243750X0*%
%TD*%
%TA.AperFunction,SMDPad,CuDef*%
%ADD23R,1.200000X0.900000*%
%TD*%
%TA.AperFunction,SMDPad,CuDef*%
%ADD24RoundRect,0.243750X0.456250X-0.243750X0.456250X0.243750X-0.456250X0.243750X-0.456250X-0.243750X0*%
%TD*%
%TA.AperFunction,SMDPad,CuDef*%
%ADD25R,0.650000X1.060000*%
%TD*%
%TA.AperFunction,ViaPad*%
%ADD26C,0.800000*%
%TD*%
%TA.AperFunction,Conductor*%
%ADD27C,0.381000*%
%TD*%
%TA.AperFunction,Conductor*%
%ADD28C,0.250000*%
%TD*%
%TA.AperFunction,Conductor*%
%ADD29C,0.200000*%
%TD*%
G04 APERTURE END LIST*
D10*
%TO.P,MX1,1,A*%
%TO.N,Net-(D1-Pad2)*%
X5190000Y-6460000D03*
%TO.P,MX1,2,B*%
%TO.N,COL0*%
X11540000Y-3920000D03*
%TD*%
%TO.P,MX2,1,A*%
%TO.N,Net-(D2-Pad2)*%
X24240000Y-6460000D03*
%TO.P,MX2,2,B*%
%TO.N,COL1*%
X30590000Y-3920000D03*
%TD*%
%TO.P,MX3,1,A*%
%TO.N,Net-(D3-Pad2)*%
X43290000Y-6460000D03*
%TO.P,MX3,2,B*%
%TO.N,COL2*%
X49640000Y-3920000D03*
%TD*%
%TO.P,MX4,1,A*%
%TO.N,Net-(D4-Pad2)*%
X62340000Y-6460000D03*
%TO.P,MX4,2,B*%
%TO.N,COL3*%
X68690000Y-3920000D03*
%TD*%
%TO.P,MX5,1,A*%
%TO.N,Net-(D5-Pad2)*%
X81390000Y-6460000D03*
%TO.P,MX5,2,B*%
%TO.N,COL4*%
X87740000Y-3920000D03*
%TD*%
%TO.P,MX6,1,A*%
%TO.N,Net-(D6-Pad2)*%
X100440000Y-6460000D03*
%TO.P,MX6,2,B*%
%TO.N,COL5*%
X106790000Y-3920000D03*
%TD*%
%TO.P,MX7,1,A*%
%TO.N,Net-(D7-Pad2)*%
X119490000Y-6460000D03*
%TO.P,MX7,2,B*%
%TO.N,COL6*%
X125840000Y-3920000D03*
%TD*%
%TO.P,MX9,1,A*%
%TO.N,Net-(D9-Pad2)*%
X157590000Y-6460000D03*
%TO.P,MX9,2,B*%
%TO.N,COL8*%
X163940000Y-3920000D03*
%TD*%
%TO.P,MX10,1,A*%
%TO.N,Net-(D10-Pad2)*%
X176640000Y-6460000D03*
%TO.P,MX10,2,B*%
%TO.N,COL9*%
X182990000Y-3920000D03*
%TD*%
%TO.P,MX11,1,A*%
%TO.N,Net-(D11-Pad2)*%
X195690000Y-6460000D03*
%TO.P,MX11,2,B*%
%TO.N,COL10*%
X202040000Y-3920000D03*
%TD*%
%TO.P,MX12,1,A*%
%TO.N,Net-(D12-Pad2)*%
X214740000Y-6460000D03*
%TO.P,MX12,2,B*%
%TO.N,COL11*%
X221090000Y-3920000D03*
%TD*%
%TO.P,MX13,1,A*%
%TO.N,Net-(D13-Pad2)*%
X233790000Y-6460000D03*
%TO.P,MX13,2,B*%
%TO.N,COL12*%
X240140000Y-3920000D03*
%TD*%
%TO.P,MX14,1,A*%
%TO.N,Net-(D14-Pad2)*%
X252840000Y-6460000D03*
%TO.P,MX14,2,B*%
%TO.N,COL13*%
X259190000Y-3920000D03*
%TD*%
%TO.P,MX17,1,A*%
%TO.N,Net-(D16-Pad2)*%
X9952500Y-25510000D03*
%TO.P,MX17,2,B*%
%TO.N,COL0*%
X16302500Y-22970000D03*
%TD*%
%TO.P,MX18,1,A*%
%TO.N,Net-(D17-Pad2)*%
X33765000Y-25510000D03*
%TO.P,MX18,2,B*%
%TO.N,COL1*%
X40115000Y-22970000D03*
%TD*%
%TO.P,MX19,1,A*%
%TO.N,Net-(D18-Pad2)*%
X52815000Y-25510000D03*
%TO.P,MX19,2,B*%
%TO.N,COL2*%
X59165000Y-22970000D03*
%TD*%
%TO.P,MX20,1,A*%
%TO.N,Net-(D19-Pad2)*%
X71865000Y-25510000D03*
%TO.P,MX20,2,B*%
%TO.N,COL3*%
X78215000Y-22970000D03*
%TD*%
%TO.P,MX21,1,A*%
%TO.N,Net-(D20-Pad2)*%
X90915000Y-25510000D03*
%TO.P,MX21,2,B*%
%TO.N,COL4*%
X97265000Y-22970000D03*
%TD*%
%TO.P,MX22,1,A*%
%TO.N,Net-(D21-Pad2)*%
X109965000Y-25510000D03*
%TO.P,MX22,2,B*%
%TO.N,COL5*%
X116315000Y-22970000D03*
%TD*%
%TO.P,MX23,1,A*%
%TO.N,Net-(D22-Pad2)*%
X129015000Y-25510000D03*
%TO.P,MX23,2,B*%
%TO.N,COL6*%
X135365000Y-22970000D03*
%TD*%
%TO.P,MX24,1,A*%
%TO.N,Net-(D23-Pad2)*%
X148065000Y-25510000D03*
%TO.P,MX24,2,B*%
%TO.N,COL7*%
X154415000Y-22970000D03*
%TD*%
%TO.P,MX25,1,A*%
%TO.N,Net-(D24-Pad2)*%
X167115000Y-25510000D03*
%TO.P,MX25,2,B*%
%TO.N,COL8*%
X173465000Y-22970000D03*
%TD*%
%TO.P,MX26,1,A*%
%TO.N,Net-(D25-Pad2)*%
X186165000Y-25510000D03*
%TO.P,MX26,2,B*%
%TO.N,COL9*%
X192515000Y-22970000D03*
%TD*%
%TO.P,MX27,1,A*%
%TO.N,Net-(D26-Pad2)*%
X205215000Y-25510000D03*
%TO.P,MX27,2,B*%
%TO.N,COL10*%
X211565000Y-22970000D03*
%TD*%
%TO.P,MX28,1,A*%
%TO.N,Net-(D27-Pad2)*%
X224265000Y-25510000D03*
%TO.P,MX28,2,B*%
%TO.N,COL11*%
X230615000Y-22970000D03*
%TD*%
%TO.P,MX29,1,A*%
%TO.N,Net-(D28-Pad2)*%
X243315000Y-25510000D03*
%TO.P,MX29,2,B*%
%TO.N,COL12*%
X249665000Y-22970000D03*
%TD*%
%TO.P,MX30,1,A*%
%TO.N,Net-(D29-Pad2)*%
X267127500Y-25510000D03*
%TO.P,MX30,2,B*%
%TO.N,COL13*%
X273477500Y-22970000D03*
%TD*%
%TO.P,MX31,1,A*%
%TO.N,Net-(D30-Pad2)*%
X7571250Y-44560000D03*
%TO.P,MX31,2,B*%
%TO.N,COL0*%
X13921250Y-42020000D03*
%TD*%
%TO.P,MX32,1,A*%
%TO.N,Net-(D30-Pad2)*%
X12333750Y-44560000D03*
%TO.P,MX32,2,B*%
%TO.N,COL0*%
X18683750Y-42020000D03*
%TD*%
%TO.P,MX33,1,A*%
%TO.N,Net-(D31-Pad2)*%
X38527500Y-44560000D03*
%TO.P,MX33,2,B*%
%TO.N,COL1*%
X44877500Y-42020000D03*
%TD*%
%TO.P,MX34,1,A*%
%TO.N,Net-(D32-Pad2)*%
X57577500Y-44560000D03*
%TO.P,MX34,2,B*%
%TO.N,COL2*%
X63927500Y-42020000D03*
%TD*%
%TO.P,MX35,1,A*%
%TO.N,Net-(D33-Pad2)*%
X76627500Y-44560000D03*
%TO.P,MX35,2,B*%
%TO.N,COL3*%
X82977500Y-42020000D03*
%TD*%
%TO.P,MX36,1,A*%
%TO.N,Net-(D34-Pad2)*%
X95677500Y-44560000D03*
%TO.P,MX36,2,B*%
%TO.N,COL4*%
X102027500Y-42020000D03*
%TD*%
%TO.P,MX37,1,A*%
%TO.N,Net-(D35-Pad2)*%
X114727500Y-44560000D03*
%TO.P,MX37,2,B*%
%TO.N,COL5*%
X121077500Y-42020000D03*
%TD*%
%TO.P,MX38,1,A*%
%TO.N,Net-(D36-Pad2)*%
X133777500Y-44560000D03*
%TO.P,MX38,2,B*%
%TO.N,COL6*%
X140127500Y-42020000D03*
%TD*%
%TO.P,MX39,1,A*%
%TO.N,Net-(D37-Pad2)*%
X152827500Y-44560000D03*
%TO.P,MX39,2,B*%
%TO.N,COL7*%
X159177500Y-42020000D03*
%TD*%
%TO.P,MX40,1,A*%
%TO.N,Net-(D38-Pad2)*%
X171877500Y-44560000D03*
%TO.P,MX40,2,B*%
%TO.N,COL8*%
X178227500Y-42020000D03*
%TD*%
%TO.P,MX41,1,A*%
%TO.N,Net-(D39-Pad2)*%
X190927500Y-44560000D03*
%TO.P,MX41,2,B*%
%TO.N,COL9*%
X197277500Y-42020000D03*
%TD*%
%TO.P,MX42,1,A*%
%TO.N,Net-(D40-Pad2)*%
X209977500Y-44560000D03*
%TO.P,MX42,2,B*%
%TO.N,COL10*%
X216327500Y-42020000D03*
%TD*%
%TO.P,MX43,1,A*%
%TO.N,Net-(D41-Pad2)*%
X229027500Y-44560000D03*
%TO.P,MX43,2,B*%
%TO.N,COL11*%
X235377500Y-42020000D03*
%TD*%
%TO.P,MX44,1,A*%
%TO.N,Net-(D42-Pad2)*%
X259983750Y-44560000D03*
%TO.P,MX44,2,B*%
%TO.N,COL13*%
X266333750Y-42020000D03*
%TD*%
%TO.P,MX45,1,A*%
%TO.N,Net-(D43-Pad2)*%
X17096250Y-63610000D03*
%TO.P,MX45,2,B*%
%TO.N,COL0*%
X23446250Y-61070000D03*
%TD*%
%TO.P,MX46,1,A*%
%TO.N,Net-(D44-Pad2)*%
X48052500Y-63610000D03*
%TO.P,MX46,2,B*%
%TO.N,COL2*%
X54402500Y-61070000D03*
%TD*%
%TO.P,MX47,1,A*%
%TO.N,Net-(D45-Pad2)*%
X67102500Y-63610000D03*
%TO.P,MX47,2,B*%
%TO.N,COL3*%
X73452500Y-61070000D03*
%TD*%
%TO.P,MX48,1,A*%
%TO.N,Net-(D46-Pad2)*%
X86152500Y-63610000D03*
%TO.P,MX48,2,B*%
%TO.N,COL4*%
X92502500Y-61070000D03*
%TD*%
%TO.P,MX49,1,A*%
%TO.N,Net-(D47-Pad2)*%
X105202500Y-63610000D03*
%TO.P,MX49,2,B*%
%TO.N,COL5*%
X111552500Y-61070000D03*
%TD*%
%TO.P,MX50,1,A*%
%TO.N,Net-(D48-Pad2)*%
X124252500Y-63610000D03*
%TO.P,MX50,2,B*%
%TO.N,COL6*%
X130602500Y-61070000D03*
%TD*%
%TO.P,MX51,1,A*%
%TO.N,Net-(D49-Pad2)*%
X143302500Y-63610000D03*
%TO.P,MX51,2,B*%
%TO.N,COL7*%
X149652500Y-61070000D03*
%TD*%
%TO.P,MX52,1,A*%
%TO.N,Net-(D50-Pad2)*%
X162352500Y-63610000D03*
%TO.P,MX52,2,B*%
%TO.N,COL8*%
X168702500Y-61070000D03*
%TD*%
%TO.P,MX53,1,A*%
%TO.N,Net-(D51-Pad2)*%
X181402500Y-63610000D03*
%TO.P,MX53,2,B*%
%TO.N,COL9*%
X187752500Y-61070000D03*
%TD*%
%TO.P,MX54,1,A*%
%TO.N,Net-(D52-Pad2)*%
X200452500Y-63610000D03*
%TO.P,MX54,2,B*%
%TO.N,COL10*%
X206802500Y-61070000D03*
%TD*%
%TO.P,MX55,1,A*%
%TO.N,Net-(D53-Pad2)*%
X219502500Y-63610000D03*
%TO.P,MX55,2,B*%
%TO.N,COL11*%
X225852500Y-61070000D03*
%TD*%
%TO.P,MX56,1,A*%
%TO.N,Net-(D54-Pad2)*%
X245696250Y-63610000D03*
%TO.P,MX56,2,B*%
%TO.N,COL12*%
X252046250Y-61070000D03*
%TD*%
%TO.P,MX57,1,A*%
%TO.N,Net-(D55-Pad2)*%
X271890000Y-63610000D03*
%TO.P,MX57,2,B*%
%TO.N,COL13*%
X278240000Y-61070000D03*
%TD*%
%TO.P,MX63,1,A*%
%TO.N,Net-(D60-Pad2)*%
X193309500Y-82660000D03*
%TO.P,MX63,2,B*%
%TO.N,COL10*%
X199659500Y-80120000D03*
%TD*%
%TO.P,MX71,1,A*%
%TO.N,Net-(D61-Pad2)*%
X219502500Y-82660000D03*
%TO.P,MX71,2,B*%
%TO.N,COL11*%
X225852500Y-80120000D03*
%TD*%
%TO.P,MX8,1,A*%
%TO.N,Net-(D8-Pad2)*%
X138540000Y-6460000D03*
%TO.P,MX8,2,B*%
%TO.N,COL7*%
X144890000Y-3920000D03*
%TD*%
%TO.P,MX58,1,A*%
%TO.N,Net-(D54-Pad2)*%
X255221250Y-63610000D03*
%TO.P,MX58,2,B*%
%TO.N,COL12*%
X261571250Y-61070000D03*
%TD*%
%TO.P,MX68,1,A*%
%TO.N,Net-(D57-Pad2)*%
X33764500Y-82660000D03*
%TO.P,MX68,2,B*%
%TO.N,COL1*%
X40114500Y-80120000D03*
%TD*%
%TO.P,MX69,1,A*%
%TO.N,Net-(D58-Pad2)*%
X55195500Y-82660000D03*
%TO.P,MX69,2,B*%
%TO.N,COL2*%
X61545500Y-80120000D03*
%TD*%
%TO.P,MX70,1,A*%
%TO.N,Net-(D59-Pad2)*%
X117107500Y-82660000D03*
%TO.P,MX70,2,B*%
%TO.N,COL6*%
X123457500Y-80120000D03*
%TD*%
%TO.P,MX72,1,A*%
%TO.N,Net-(D62-Pad2)*%
X243315000Y-82660000D03*
%TO.P,MX72,2,B*%
%TO.N,COL12*%
X249665000Y-80120000D03*
%TD*%
%TO.P,MX73,1,A*%
%TO.N,Net-(D63-Pad2)*%
X267127500Y-82660000D03*
%TO.P,MX73,2,B*%
%TO.N,COL13*%
X273477500Y-80120000D03*
%TD*%
%TO.P,MX67,1,A*%
%TO.N,Net-(D56-Pad2)*%
X9952500Y-82660000D03*
%TO.P,MX67,2,B*%
%TO.N,COL0*%
X16302500Y-80120000D03*
%TD*%
%TO.P,MX15,1,A*%
%TO.N,Net-(D15-Pad2)*%
X271890000Y-6460000D03*
%TO.P,MX15,2,B*%
%TO.N,COL14*%
X278240000Y-3920000D03*
%TD*%
%TO.P,MX74,1,A*%
%TO.N,Net-(D64-Pad2)*%
X79007500Y-82660000D03*
%TO.P,MX74,2,B*%
%TO.N,COL4*%
X85357500Y-80120000D03*
%TD*%
%TO.P,MX75,1,A*%
%TO.N,Net-(D65-Pad2)*%
X162351500Y-82660000D03*
%TO.P,MX75,2,B*%
%TO.N,COL8*%
X168701500Y-80120000D03*
%TD*%
D11*
%TO.P,F1,1*%
%TO.N,+5V*%
X23310000Y-17120000D03*
%TO.P,F1,2*%
%TO.N,VBUS*%
X26110000Y-17120000D03*
%TD*%
D12*
%TO.P,J1,1,Pin_1*%
%TO.N,VBUS*%
X45000000Y-16000000D03*
%TO.P,J1,2,Pin_2*%
%TO.N,D-*%
X45000000Y-17000000D03*
%TO.P,J1,3,Pin_3*%
%TO.N,D+*%
X45000000Y-18000000D03*
%TO.P,J1,4,Pin_4*%
%TO.N,GND*%
X45000000Y-19000000D03*
D13*
%TO.P,J1,MP*%
%TO.N,N/C*%
X48875000Y-14700000D03*
X48875000Y-20300000D03*
%TD*%
D14*
%TO.P,J2,1,MISO*%
%TO.N,MISO*%
X5190000Y-20807501D03*
%TO.P,J2,2,VCC*%
%TO.N,+5V*%
X7730000Y-20807501D03*
%TO.P,J2,3,SCK*%
%TO.N,SCK*%
X5190000Y-18267501D03*
%TO.P,J2,4,MOSI*%
%TO.N,MOSI*%
X7730000Y-18267501D03*
%TO.P,J2,5,~{RST}*%
%TO.N,RST*%
X5190000Y-15727501D03*
D15*
%TO.P,J2,6,GND*%
%TO.N,GND*%
X7730000Y-15727501D03*
%TD*%
D16*
%TO.P,R1,1*%
%TO.N,/MCU_D+*%
X31402500Y-18750000D03*
%TO.P,R1,2*%
%TO.N,D+*%
X33277500Y-18750000D03*
%TD*%
%TO.P,R2,1*%
%TO.N,/MCU_D-*%
X31402500Y-16250000D03*
%TO.P,R2,2*%
%TO.N,D-*%
X33277500Y-16250000D03*
%TD*%
D17*
%TO.P,SW1,1,1*%
%TO.N,GND*%
X58393750Y-37385000D03*
X52093750Y-37385000D03*
%TO.P,SW1,2,2*%
%TO.N,RST*%
X52093750Y-33585000D03*
X58393750Y-33585000D03*
%TD*%
D18*
%TO.P,C5,1*%
%TO.N,GND*%
X41897500Y-34870000D03*
%TO.P,C5,2*%
%TO.N,XTAL2*%
X40022500Y-34870000D03*
%TD*%
%TO.P,C4,1*%
%TO.N,+5V*%
X24061250Y-28750000D03*
%TO.P,C4,2*%
%TO.N,GND*%
X22186250Y-28750000D03*
%TD*%
D16*
%TO.P,C3,1*%
%TO.N,+5V*%
X31122500Y-46910000D03*
%TO.P,C3,2*%
%TO.N,GND*%
X32997500Y-46910000D03*
%TD*%
D19*
%TO.P,U2,1,PE6*%
%TO.N,ROW0*%
X24553750Y-32058750D03*
%TO.P,U2,2,UVCC*%
%TO.N,+5V*%
X25353750Y-32058750D03*
%TO.P,U2,3,D-*%
%TO.N,/MCU_D-*%
X26153750Y-32058750D03*
%TO.P,U2,4,D+*%
%TO.N,/MCU_D+*%
X26953750Y-32058750D03*
%TO.P,U2,5,UGND*%
%TO.N,GND*%
X27753750Y-32058750D03*
%TO.P,U2,6,UCAP*%
%TO.N,Net-(C6-Pad1)*%
X28553750Y-32058750D03*
%TO.P,U2,7,VBUS*%
%TO.N,+5V*%
X29353750Y-32058750D03*
%TO.P,U2,8,PB0*%
%TO.N,COL1*%
X30153750Y-32058750D03*
%TO.P,U2,9,PB1*%
%TO.N,SCK*%
X30953750Y-32058750D03*
%TO.P,U2,10,PB2*%
%TO.N,MOSI*%
X31753750Y-32058750D03*
%TO.P,U2,11,PB3*%
%TO.N,MISO*%
X32553750Y-32058750D03*
D20*
%TO.P,U2,12,PB7*%
%TO.N,ROW1*%
X34253750Y-33758750D03*
%TO.P,U2,13,~{RESET}*%
%TO.N,RST*%
X34253750Y-34558750D03*
%TO.P,U2,14,VCC*%
%TO.N,+5V*%
X34253750Y-35358750D03*
%TO.P,U2,15,GND*%
%TO.N,GND*%
X34253750Y-36158750D03*
%TO.P,U2,16,XTAL2*%
%TO.N,XTAL2*%
X34253750Y-36958750D03*
%TO.P,U2,17,XTAL1*%
%TO.N,XTAL1*%
X34253750Y-37758750D03*
%TO.P,U2,18,PD0*%
%TO.N,unconnected-(U2-Pad18)*%
X34253750Y-38558750D03*
%TO.P,U2,19,PD1*%
%TO.N,COL14*%
X34253750Y-39358750D03*
%TO.P,U2,20,PD2*%
%TO.N,COL13*%
X34253750Y-40158750D03*
%TO.P,U2,21,PD3*%
%TO.N,COL12*%
X34253750Y-40958750D03*
%TO.P,U2,22,PD5*%
%TO.N,COL11*%
X34253750Y-41758750D03*
D19*
%TO.P,U2,23,GND*%
%TO.N,GND*%
X32553750Y-43458750D03*
%TO.P,U2,24,AVCC*%
%TO.N,+5V*%
X31753750Y-43458750D03*
%TO.P,U2,25,PD4*%
%TO.N,COL10*%
X30953750Y-43458750D03*
%TO.P,U2,26,PD6*%
%TO.N,COL9*%
X30153750Y-43458750D03*
%TO.P,U2,27,PD7*%
%TO.N,COL8*%
X29353750Y-43458750D03*
%TO.P,U2,28,PB4*%
%TO.N,COL7*%
X28553750Y-43458750D03*
%TO.P,U2,29,PB5*%
%TO.N,COL6*%
X27753750Y-43458750D03*
%TO.P,U2,30,PB6*%
%TO.N,COL5*%
X26953750Y-43458750D03*
%TO.P,U2,31,PC6*%
%TO.N,COL4*%
X26153750Y-43458750D03*
%TO.P,U2,32,PC7*%
%TO.N,COL3*%
X25353750Y-43458750D03*
%TO.P,U2,33,~{HWB}/PE2*%
%TO.N,Net-(R3-Pad2)*%
X24553750Y-43458750D03*
D20*
%TO.P,U2,34,VCC*%
%TO.N,+5V*%
X22853750Y-41758750D03*
%TO.P,U2,35,GND*%
%TO.N,GND*%
X22853750Y-40958750D03*
%TO.P,U2,36,PF7*%
%TO.N,ROW2*%
X22853750Y-40158750D03*
%TO.P,U2,37,PF6*%
%TO.N,COL0*%
X22853750Y-39358750D03*
%TO.P,U2,38,PF5*%
%TO.N,ROW4*%
X22853750Y-38558750D03*
%TO.P,U2,39,PF4*%
%TO.N,ROW3*%
X22853750Y-37758750D03*
%TO.P,U2,40,PF1*%
%TO.N,COL2*%
X22853750Y-36958750D03*
%TO.P,U2,41,PF0*%
%TO.N,unconnected-(U2-Pad41)*%
X22853750Y-36158750D03*
%TO.P,U2,42,AREF*%
%TO.N,unconnected-(U2-Pad42)*%
X22853750Y-35358750D03*
%TO.P,U2,43,GND*%
%TO.N,GND*%
X22853750Y-34558750D03*
%TO.P,U2,44,AVCC*%
%TO.N,+5V*%
X22853750Y-33758750D03*
%TD*%
D21*
%TO.P,Y1,1,1*%
%TO.N,XTAL1*%
X42060000Y-38520000D03*
%TO.P,Y1,2,2*%
%TO.N,GND*%
X39860000Y-38520000D03*
%TO.P,Y1,3,3*%
%TO.N,XTAL2*%
X39860000Y-36820000D03*
%TO.P,Y1,4,4*%
%TO.N,GND*%
X42060000Y-36820000D03*
%TD*%
D22*
%TO.P,C1,1*%
%TO.N,+5V*%
X37160000Y-32982500D03*
%TO.P,C1,2*%
%TO.N,GND*%
X37160000Y-34857500D03*
%TD*%
%TO.P,R4,1*%
%TO.N,RST*%
X49710000Y-33582500D03*
%TO.P,R4,2*%
%TO.N,+5V*%
X49710000Y-35457500D03*
%TD*%
D23*
%TO.P,D1,1,K*%
%TO.N,ROW0*%
X16937500Y-11443750D03*
%TO.P,D1,2,A*%
%TO.N,Net-(D1-Pad2)*%
X16937500Y-8143750D03*
%TD*%
%TO.P,D2,1,K*%
%TO.N,ROW0*%
X20112500Y-11443750D03*
%TO.P,D2,2,A*%
%TO.N,Net-(D2-Pad2)*%
X20112500Y-8143750D03*
%TD*%
%TO.P,D3,1,K*%
%TO.N,ROW0*%
X37575000Y-11443750D03*
%TO.P,D3,2,A*%
%TO.N,Net-(D3-Pad2)*%
X37575000Y-8143750D03*
%TD*%
%TO.P,D4,1,K*%
%TO.N,ROW0*%
X56625000Y-11443750D03*
%TO.P,D4,2,A*%
%TO.N,Net-(D4-Pad2)*%
X56625000Y-8143750D03*
%TD*%
%TO.P,D5,1,K*%
%TO.N,ROW0*%
X75675000Y-11443750D03*
%TO.P,D5,2,A*%
%TO.N,Net-(D5-Pad2)*%
X75675000Y-8143750D03*
%TD*%
%TO.P,D6,1,K*%
%TO.N,ROW0*%
X94725000Y-11443750D03*
%TO.P,D6,2,A*%
%TO.N,Net-(D6-Pad2)*%
X94725000Y-8143750D03*
%TD*%
%TO.P,D7,1,K*%
%TO.N,ROW0*%
X113775000Y-11443750D03*
%TO.P,D7,2,A*%
%TO.N,Net-(D7-Pad2)*%
X113775000Y-8143750D03*
%TD*%
%TO.P,D8,1,K*%
%TO.N,ROW0*%
X132825000Y-11443750D03*
%TO.P,D8,2,A*%
%TO.N,Net-(D8-Pad2)*%
X132825000Y-8143750D03*
%TD*%
%TO.P,D9,1,K*%
%TO.N,ROW0*%
X151875000Y-11443750D03*
%TO.P,D9,2,A*%
%TO.N,Net-(D9-Pad2)*%
X151875000Y-8143750D03*
%TD*%
%TO.P,D10,1,K*%
%TO.N,ROW0*%
X170925000Y-11443750D03*
%TO.P,D10,2,A*%
%TO.N,Net-(D10-Pad2)*%
X170925000Y-8143750D03*
%TD*%
%TO.P,D11,1,K*%
%TO.N,ROW0*%
X189975000Y-11443750D03*
%TO.P,D11,2,A*%
%TO.N,Net-(D11-Pad2)*%
X189975000Y-8143750D03*
%TD*%
%TO.P,D12,1,K*%
%TO.N,ROW0*%
X209025000Y-11443750D03*
%TO.P,D12,2,A*%
%TO.N,Net-(D12-Pad2)*%
X209025000Y-8143750D03*
%TD*%
%TO.P,D14,1,K*%
%TO.N,ROW0*%
X248655000Y-11443750D03*
%TO.P,D14,2,A*%
%TO.N,Net-(D14-Pad2)*%
X248655000Y-8143750D03*
%TD*%
%TO.P,D15,1,K*%
%TO.N,ROW0*%
X245585000Y-11443750D03*
%TO.P,D15,2,A*%
%TO.N,Net-(D15-Pad2)*%
X245585000Y-8143750D03*
%TD*%
%TO.P,D16,1,K*%
%TO.N,ROW1*%
X5825000Y-31287500D03*
%TO.P,D16,2,A*%
%TO.N,Net-(D16-Pad2)*%
X5825000Y-27987500D03*
%TD*%
%TO.P,D17,1,K*%
%TO.N,ROW1*%
X67737500Y-30493750D03*
%TO.P,D17,2,A*%
%TO.N,Net-(D17-Pad2)*%
X67737500Y-27193750D03*
%TD*%
%TO.P,D18,1,K*%
%TO.N,ROW1*%
X64562500Y-30493750D03*
%TO.P,D18,2,A*%
%TO.N,Net-(D18-Pad2)*%
X64562500Y-27193750D03*
%TD*%
%TO.P,D19,1,K*%
%TO.N,ROW1*%
X83612500Y-30493750D03*
%TO.P,D19,2,A*%
%TO.N,Net-(D19-Pad2)*%
X83612500Y-27193750D03*
%TD*%
%TO.P,D20,1,K*%
%TO.N,ROW1*%
X86787500Y-30493750D03*
%TO.P,D20,2,A*%
%TO.N,Net-(D20-Pad2)*%
X86787500Y-27193750D03*
%TD*%
%TO.P,D21,1,K*%
%TO.N,ROW1*%
X104250000Y-30493750D03*
%TO.P,D21,2,A*%
%TO.N,Net-(D21-Pad2)*%
X104250000Y-27193750D03*
%TD*%
%TO.P,D22,1,K*%
%TO.N,ROW1*%
X123300000Y-30493750D03*
%TO.P,D22,2,A*%
%TO.N,Net-(D22-Pad2)*%
X123300000Y-27193750D03*
%TD*%
%TO.P,D23,1,K*%
%TO.N,ROW1*%
X142350000Y-30493750D03*
%TO.P,D23,2,A*%
%TO.N,Net-(D23-Pad2)*%
X142350000Y-27193750D03*
%TD*%
%TO.P,D24,1,K*%
%TO.N,ROW1*%
X161400000Y-30493750D03*
%TO.P,D24,2,A*%
%TO.N,Net-(D24-Pad2)*%
X161400000Y-27193750D03*
%TD*%
%TO.P,D25,1,K*%
%TO.N,ROW1*%
X180450000Y-30493750D03*
%TO.P,D25,2,A*%
%TO.N,Net-(D25-Pad2)*%
X180450000Y-27193750D03*
%TD*%
%TO.P,D26,1,K*%
%TO.N,ROW1*%
X199500000Y-30493750D03*
%TO.P,D26,2,A*%
%TO.N,Net-(D26-Pad2)*%
X199500000Y-27193750D03*
%TD*%
%TO.P,D27,1,K*%
%TO.N,ROW1*%
X218550000Y-30493750D03*
%TO.P,D27,2,A*%
%TO.N,Net-(D27-Pad2)*%
X218550000Y-27193750D03*
%TD*%
%TO.P,D28,1,K*%
%TO.N,ROW1*%
X237600000Y-30493750D03*
%TO.P,D28,2,A*%
%TO.N,Net-(D28-Pad2)*%
X237600000Y-27193750D03*
%TD*%
%TO.P,D29,1,K*%
%TO.N,ROW1*%
X261412500Y-30493750D03*
%TO.P,D29,2,A*%
%TO.N,Net-(D29-Pad2)*%
X261412500Y-27193750D03*
%TD*%
%TO.P,D30,1,K*%
%TO.N,ROW2*%
X24081250Y-49543750D03*
%TO.P,D30,2,A*%
%TO.N,Net-(D30-Pad2)*%
X24081250Y-46243750D03*
%TD*%
%TO.P,D31,1,K*%
%TO.N,ROW2*%
X50275000Y-49543750D03*
%TO.P,D31,2,A*%
%TO.N,Net-(D31-Pad2)*%
X50275000Y-46243750D03*
%TD*%
%TO.P,D32,1,K*%
%TO.N,ROW2*%
X53450000Y-49543750D03*
%TO.P,D32,2,A*%
%TO.N,Net-(D32-Pad2)*%
X53450000Y-46243750D03*
%TD*%
%TO.P,D33,1,K*%
%TO.N,ROW2*%
X70912500Y-49543750D03*
%TO.P,D33,2,A*%
%TO.N,Net-(D33-Pad2)*%
X70912500Y-46243750D03*
%TD*%
%TO.P,D35,1,K*%
%TO.N,ROW2*%
X109012500Y-49543750D03*
%TO.P,D35,2,A*%
%TO.N,Net-(D35-Pad2)*%
X109012500Y-46243750D03*
%TD*%
%TO.P,D36,1,K*%
%TO.N,ROW2*%
X128062500Y-49543750D03*
%TO.P,D36,2,A*%
%TO.N,Net-(D36-Pad2)*%
X128062500Y-46243750D03*
%TD*%
%TO.P,D37,1,K*%
%TO.N,ROW2*%
X147112500Y-49543750D03*
%TO.P,D37,2,A*%
%TO.N,Net-(D37-Pad2)*%
X147112500Y-46243750D03*
%TD*%
%TO.P,D38,1,K*%
%TO.N,ROW2*%
X166162500Y-49543750D03*
%TO.P,D38,2,A*%
%TO.N,Net-(D38-Pad2)*%
X166162500Y-46243750D03*
%TD*%
%TO.P,D39,1,K*%
%TO.N,ROW2*%
X185212500Y-49543750D03*
%TO.P,D39,2,A*%
%TO.N,Net-(D39-Pad2)*%
X185212500Y-46243750D03*
%TD*%
%TO.P,D40,1,K*%
%TO.N,ROW2*%
X204262500Y-49543750D03*
%TO.P,D40,2,A*%
%TO.N,Net-(D40-Pad2)*%
X204262500Y-46243750D03*
%TD*%
%TO.P,D41,1,K*%
%TO.N,ROW2*%
X223312500Y-49543750D03*
%TO.P,D41,2,A*%
%TO.N,Net-(D41-Pad2)*%
X223312500Y-46243750D03*
%TD*%
%TO.P,D42,1,K*%
%TO.N,ROW2*%
X254268750Y-49543750D03*
%TO.P,D42,2,A*%
%TO.N,Net-(D42-Pad2)*%
X254268750Y-46243750D03*
%TD*%
%TO.P,D43,1,K*%
%TO.N,ROW3*%
X28843750Y-68593750D03*
%TO.P,D43,2,A*%
%TO.N,Net-(D43-Pad2)*%
X28843750Y-65293750D03*
%TD*%
%TO.P,D44,1,K*%
%TO.N,ROW3*%
X42337500Y-68593750D03*
%TO.P,D44,2,A*%
%TO.N,Net-(D44-Pad2)*%
X42337500Y-65293750D03*
%TD*%
%TO.P,D45,1,K*%
%TO.N,ROW3*%
X61387500Y-68593750D03*
%TO.P,D45,2,A*%
%TO.N,Net-(D45-Pad2)*%
X61387500Y-65293750D03*
%TD*%
%TO.P,D46,1,K*%
%TO.N,ROW3*%
X80437500Y-68593750D03*
%TO.P,D46,2,A*%
%TO.N,Net-(D46-Pad2)*%
X80437500Y-65293750D03*
%TD*%
%TO.P,D47,1,K*%
%TO.N,ROW3*%
X99487500Y-68593750D03*
%TO.P,D47,2,A*%
%TO.N,Net-(D47-Pad2)*%
X99487500Y-65293750D03*
%TD*%
%TO.P,D48,1,K*%
%TO.N,ROW3*%
X118537500Y-68593750D03*
%TO.P,D48,2,A*%
%TO.N,Net-(D48-Pad2)*%
X118537500Y-65293750D03*
%TD*%
%TO.P,D49,1,K*%
%TO.N,ROW3*%
X137587500Y-68593750D03*
%TO.P,D49,2,A*%
%TO.N,Net-(D49-Pad2)*%
X137587500Y-65293750D03*
%TD*%
%TO.P,D50,1,K*%
%TO.N,ROW3*%
X156637500Y-68593750D03*
%TO.P,D50,2,A*%
%TO.N,Net-(D50-Pad2)*%
X156637500Y-65293750D03*
%TD*%
%TO.P,D51,1,K*%
%TO.N,ROW3*%
X175687500Y-68593750D03*
%TO.P,D51,2,A*%
%TO.N,Net-(D51-Pad2)*%
X175687500Y-65293750D03*
%TD*%
%TO.P,D52,1,K*%
%TO.N,ROW3*%
X194737500Y-68593750D03*
%TO.P,D52,2,A*%
%TO.N,Net-(D52-Pad2)*%
X194737500Y-65293750D03*
%TD*%
%TO.P,D53,1,K*%
%TO.N,ROW3*%
X213787500Y-68593750D03*
%TO.P,D53,2,A*%
%TO.N,Net-(D53-Pad2)*%
X213787500Y-65293750D03*
%TD*%
%TO.P,D54,1,K*%
%TO.N,ROW3*%
X239981250Y-68593750D03*
%TO.P,D54,2,A*%
%TO.N,Net-(D54-Pad2)*%
X239981250Y-65293750D03*
%TD*%
%TO.P,D55,1,K*%
%TO.N,ROW3*%
X267715000Y-68593750D03*
%TO.P,D55,2,A*%
%TO.N,Net-(D55-Pad2)*%
X267715000Y-65293750D03*
%TD*%
%TO.P,D56,1,K*%
%TO.N,ROW4*%
X21747500Y-87643750D03*
%TO.P,D56,2,A*%
%TO.N,Net-(D56-Pad2)*%
X21747500Y-84343750D03*
%TD*%
%TO.P,D57,1,K*%
%TO.N,ROW4*%
X25668750Y-87643750D03*
%TO.P,D57,2,A*%
%TO.N,Net-(D57-Pad2)*%
X25668750Y-84343750D03*
%TD*%
%TO.P,D58,1,K*%
%TO.N,ROW4*%
X49481250Y-87643750D03*
%TO.P,D58,2,A*%
%TO.N,Net-(D58-Pad2)*%
X49481250Y-84343750D03*
%TD*%
%TO.P,D59,1,K*%
%TO.N,ROW4*%
X93275000Y-87781250D03*
%TO.P,D59,2,A*%
%TO.N,Net-(D59-Pad2)*%
X93275000Y-84481250D03*
%TD*%
%TO.P,D61,1,K*%
%TO.N,ROW4*%
X213787500Y-87643750D03*
%TO.P,D61,2,A*%
%TO.N,Net-(D61-Pad2)*%
X213787500Y-84343750D03*
%TD*%
%TO.P,D62,1,K*%
%TO.N,ROW4*%
X237550000Y-87643750D03*
%TO.P,D62,2,A*%
%TO.N,Net-(D62-Pad2)*%
X237550000Y-84343750D03*
%TD*%
%TO.P,D63,1,K*%
%TO.N,ROW4*%
X261362500Y-87643750D03*
%TO.P,D63,2,A*%
%TO.N,Net-(D63-Pad2)*%
X261362500Y-84343750D03*
%TD*%
%TO.P,D13,1,K*%
%TO.N,ROW0*%
X228075000Y-11443750D03*
%TO.P,D13,2,A*%
%TO.N,Net-(D13-Pad2)*%
X228075000Y-8143750D03*
%TD*%
D22*
%TO.P,C6,1*%
%TO.N,Net-(C6-Pad1)*%
X28120000Y-26532500D03*
%TO.P,C6,2*%
%TO.N,GND*%
X28120000Y-28407500D03*
%TD*%
D18*
%TO.P,C7,1*%
%TO.N,GND*%
X41897500Y-40470000D03*
%TO.P,C7,2*%
%TO.N,XTAL1*%
X40022500Y-40470000D03*
%TD*%
D24*
%TO.P,R3,1*%
%TO.N,GND*%
X29823750Y-56887500D03*
%TO.P,R3,2*%
%TO.N,Net-(R3-Pad2)*%
X29823750Y-55012500D03*
%TD*%
D23*
%TO.P,D34,1,K*%
%TO.N,ROW2*%
X89962500Y-49543750D03*
%TO.P,D34,2,A*%
%TO.N,Net-(D34-Pad2)*%
X89962500Y-46243750D03*
%TD*%
%TO.P,D60,1,K*%
%TO.N,ROW4*%
X186937500Y-87643750D03*
%TO.P,D60,2,A*%
%TO.N,Net-(D60-Pad2)*%
X186937500Y-84343750D03*
%TD*%
D16*
%TO.P,C2,1*%
%TO.N,+5V*%
X16236250Y-38558750D03*
%TO.P,C2,2*%
%TO.N,GND*%
X18111250Y-38558750D03*
%TD*%
D25*
%TO.P,U1,1,IO1*%
%TO.N,D+*%
X39273750Y-18600000D03*
%TO.P,U1,2,VN*%
%TO.N,GND*%
X38323750Y-18600000D03*
%TO.P,U1,3,IO2*%
%TO.N,unconnected-(U1-Pad3)*%
X37373750Y-18600000D03*
%TO.P,U1,4,IO3*%
%TO.N,unconnected-(U1-Pad4)*%
X37373750Y-16400000D03*
%TO.P,U1,5,VP*%
%TO.N,VBUS*%
X38323750Y-16400000D03*
%TO.P,U1,6,IO4*%
%TO.N,D-*%
X39273750Y-16400000D03*
%TD*%
D23*
%TO.P,D65,1,K*%
%TO.N,ROW4*%
X148837500Y-87781250D03*
%TO.P,D65,2,A*%
%TO.N,Net-(D65-Pad2)*%
X148837500Y-84481250D03*
%TD*%
%TO.P,D64,1,K*%
%TO.N,ROW4*%
X71050000Y-87781250D03*
%TO.P,D64,2,A*%
%TO.N,Net-(D64-Pad2)*%
X71050000Y-84481250D03*
%TD*%
D26*
%TO.N,GND*%
X40233750Y-19920000D03*
X31413750Y-54630000D03*
X40887500Y-33060000D03*
X32997500Y-48576250D03*
X10251485Y-19431484D03*
%TO.N,ROW0*%
X22893750Y-30565000D03*
X22603750Y-11443750D03*
%TO.N,ROW1*%
X34250000Y-29460000D03*
X20160000Y-31290000D03*
%TO.N,ROW2*%
X36883750Y-48590000D03*
X28943750Y-53970000D03*
%TO.N,ROW3*%
X24621260Y-68590000D03*
X20511781Y-35178113D03*
%TO.N,ROW4*%
X23887500Y-87643750D03*
X19783769Y-35913254D03*
%TO.N,MOSI*%
X31902295Y-23252418D03*
X24710000Y-14020002D03*
%TO.N,SCK*%
X23460000Y-14020002D03*
X30652295Y-23252418D03*
%TO.N,MISO*%
X33152295Y-23252418D03*
X25960000Y-14020002D03*
%TO.N,COL0*%
X16302500Y-35811250D03*
%TO.N,COL2*%
X26248750Y-49950000D03*
X21233770Y-35870020D03*
%TO.N,COL14*%
X279643750Y-51053125D03*
%TO.N,+5V*%
X31120000Y-48260000D03*
X17164520Y-37255480D03*
X25353750Y-30306250D03*
X22854251Y-32080501D03*
X29360000Y-30295000D03*
X37779382Y-31859382D03*
%TO.N,RST*%
X49204145Y-32239605D03*
X42553750Y-14020002D03*
%TD*%
D27*
%TO.N,GND*%
X43630000Y-37309000D02*
X43630000Y-39950000D01*
X10260000Y-19422969D02*
X10260000Y-19126705D01*
X34253750Y-36158750D02*
X36871250Y-36158750D01*
X20958991Y-29389759D02*
X20958991Y-30424759D01*
X27753750Y-29361250D02*
X27753750Y-30046250D01*
X20958991Y-33794991D02*
X21722750Y-34558750D01*
X20958991Y-30424759D02*
X20958991Y-33794991D01*
X22728990Y-18705240D02*
X22728990Y-27190000D01*
X58393750Y-37385000D02*
X52093750Y-37385000D01*
X40233750Y-19920000D02*
X41638240Y-18515510D01*
X47828990Y-32810662D02*
X47828990Y-35458990D01*
X32553750Y-43458750D02*
X32553750Y-42327750D01*
X26384750Y-34558750D02*
X27753750Y-33189750D01*
X10260000Y-19126705D02*
X14606705Y-14780000D01*
X49755000Y-37385000D02*
X47828990Y-35458990D01*
X28120000Y-28407500D02*
X28120000Y-28995000D01*
X39860000Y-38520000D02*
X40162902Y-38520000D01*
X26384750Y-38475250D02*
X26384750Y-34558750D01*
X28701250Y-38475250D02*
X26384750Y-38475250D01*
X22186250Y-28750000D02*
X22186250Y-27722740D01*
X32553750Y-45483750D02*
X32553750Y-44963750D01*
X41897500Y-32050000D02*
X47068328Y-32050000D01*
X40887500Y-33060000D02*
X38957500Y-33060000D01*
X30936250Y-56887500D02*
X31413750Y-56410000D01*
X31413750Y-56410000D02*
X31413750Y-54630000D01*
X41862902Y-36820000D02*
X42060000Y-36820000D01*
X38323750Y-18700000D02*
X38323750Y-19620000D01*
X21722750Y-34558750D02*
X22853750Y-34558750D01*
X43110000Y-40470000D02*
X41897500Y-40470000D01*
X22153750Y-15785422D02*
X22153750Y-18130000D01*
X26384750Y-38558750D02*
X26384750Y-38475250D01*
X43630000Y-39950000D02*
X43110000Y-40470000D01*
X34253750Y-36158750D02*
X31017750Y-36158750D01*
X10251485Y-19431484D02*
X10260000Y-19422969D01*
X22153750Y-18130000D02*
X22728990Y-18705240D01*
X21598750Y-28750000D02*
X20958991Y-29389759D01*
X19378750Y-38558750D02*
X21778750Y-40958750D01*
X18111250Y-38558750D02*
X19078750Y-38558750D01*
X28120000Y-28995000D02*
X27753750Y-29361250D01*
X43141000Y-36820000D02*
X42060000Y-36820000D01*
X41897500Y-34870000D02*
X41897500Y-34070000D01*
X22186250Y-27732740D02*
X22186250Y-28750000D01*
X31017750Y-36158750D02*
X28701250Y-38475250D01*
X21778750Y-40958750D02*
X22853750Y-40958750D01*
X22728990Y-27190000D02*
X22186250Y-27732740D01*
X47068328Y-32050000D02*
X47828990Y-32810662D01*
X32553750Y-42327750D02*
X28701250Y-38475250D01*
X27753750Y-33189750D02*
X27753750Y-32058750D01*
X41638240Y-18515510D02*
X43640510Y-18515510D01*
X29823750Y-56887500D02*
X30936250Y-56887500D01*
X32997500Y-45927500D02*
X32553750Y-45483750D01*
X22853750Y-34558750D02*
X26384750Y-34558750D01*
X14606705Y-14780000D02*
X21148328Y-14780000D01*
X41897500Y-34070000D02*
X40887500Y-33060000D01*
X37160000Y-35870000D02*
X37160000Y-34857500D01*
X43640510Y-18515510D02*
X44125000Y-19000000D01*
X38323750Y-19620000D02*
X38623750Y-19920000D01*
X38623750Y-19920000D02*
X40233750Y-19920000D01*
X52093750Y-37385000D02*
X49755000Y-37385000D01*
X42060000Y-36820000D02*
X42060000Y-35032500D01*
X27753750Y-32058750D02*
X27753750Y-30046250D01*
X22853750Y-40958750D02*
X23984750Y-40958750D01*
X32553750Y-43458750D02*
X32553750Y-44963750D01*
X21148328Y-14780000D02*
X22153750Y-15785422D01*
X40162902Y-38520000D02*
X41862902Y-36820000D01*
X42060000Y-35032500D02*
X41897500Y-34870000D01*
X32997500Y-46910000D02*
X32997500Y-45927500D01*
X40887500Y-33060000D02*
X41897500Y-32050000D01*
X43141000Y-36820000D02*
X43630000Y-37309000D01*
X36871250Y-36158750D02*
X37160000Y-35870000D01*
X22186250Y-28750000D02*
X21598750Y-28750000D01*
X19078750Y-38558750D02*
X19378750Y-38558750D01*
X23984750Y-40958750D02*
X26384750Y-38558750D01*
X44225000Y-19000000D02*
X45100000Y-19000000D01*
X37160000Y-34857500D02*
X38957500Y-33060000D01*
X32997500Y-46910000D02*
X32997500Y-48576250D01*
D28*
%TO.N,XTAL2*%
X40022500Y-34870000D02*
X40022500Y-36657500D01*
X38811250Y-36081250D02*
X37933750Y-36958750D01*
X40022500Y-36657500D02*
X39860000Y-36820000D01*
X40022500Y-34870000D02*
X39435000Y-34870000D01*
X39435000Y-34870000D02*
X38811250Y-35493750D01*
X37933750Y-36958750D02*
X37751250Y-36958750D01*
X38811250Y-35493750D02*
X38811250Y-36081250D01*
X37751250Y-36958750D02*
X34253750Y-36958750D01*
%TO.N,XTAL1*%
X40022500Y-40470000D02*
X41972500Y-38520000D01*
X39435000Y-40470000D02*
X38790000Y-39825000D01*
X38790000Y-39825000D02*
X38790000Y-38560000D01*
X34253750Y-37758750D02*
X37988750Y-37758750D01*
X41972500Y-38520000D02*
X42060000Y-38520000D01*
X38790000Y-38560000D02*
X37988750Y-37758750D01*
X40022500Y-40470000D02*
X39435000Y-40470000D01*
%TO.N,Net-(D1-Pad2)*%
X15953750Y-6460000D02*
X16937500Y-7443750D01*
X16937500Y-7443750D02*
X16937500Y-8143750D01*
X5190000Y-6460000D02*
X15953750Y-6460000D01*
%TO.N,ROW0*%
X20271250Y-11443750D02*
X22038065Y-11443750D01*
X23535000Y-30565000D02*
X22893750Y-30565000D01*
X248643750Y-11443750D02*
X23169435Y-11443750D01*
X23169435Y-11443750D02*
X22603750Y-11443750D01*
X16937500Y-11443750D02*
X22603750Y-11443750D01*
X24553750Y-32058750D02*
X24553750Y-31583750D01*
X22038065Y-11443750D02*
X22603750Y-11443750D01*
X24553750Y-31583750D02*
X23535000Y-30565000D01*
%TO.N,Net-(D2-Pad2)*%
X21096250Y-6460000D02*
X20112500Y-7443750D01*
X24240000Y-6460000D02*
X21096250Y-6460000D01*
X20112500Y-7443750D02*
X20112500Y-8143750D01*
%TO.N,Net-(D3-Pad2)*%
X43290000Y-6460000D02*
X38558750Y-6460000D01*
X37575000Y-7443750D02*
X37575000Y-8143750D01*
X38558750Y-6460000D02*
X37575000Y-7443750D01*
%TO.N,Net-(D4-Pad2)*%
X57608750Y-6460000D02*
X60749010Y-6460000D01*
X56625000Y-8143750D02*
X56625000Y-7443750D01*
X56625000Y-7443750D02*
X57608750Y-6460000D01*
X60749010Y-6460000D02*
X62340000Y-6460000D01*
%TO.N,Net-(D5-Pad2)*%
X75675000Y-7443750D02*
X75675000Y-8143750D01*
X81390000Y-6460000D02*
X76658750Y-6460000D01*
X76658750Y-6460000D02*
X75675000Y-7443750D01*
%TO.N,Net-(D6-Pad2)*%
X95708750Y-6460000D02*
X94725000Y-7443750D01*
X100440000Y-6460000D02*
X95708750Y-6460000D01*
X94725000Y-7443750D02*
X94725000Y-8143750D01*
%TO.N,Net-(D7-Pad2)*%
X119490000Y-6460000D02*
X114758750Y-6460000D01*
X114758750Y-6460000D02*
X113775000Y-7443750D01*
X113775000Y-7443750D02*
X113775000Y-8143750D01*
%TO.N,Net-(D8-Pad2)*%
X138540000Y-6460000D02*
X133808750Y-6460000D01*
X133808750Y-6460000D02*
X132825000Y-7443750D01*
X132825000Y-7443750D02*
X132825000Y-8143750D01*
%TO.N,Net-(D9-Pad2)*%
X157590000Y-6460000D02*
X152858750Y-6460000D01*
X151875000Y-7443750D02*
X151875000Y-8143750D01*
X152858750Y-6460000D02*
X151875000Y-7443750D01*
%TO.N,Net-(D10-Pad2)*%
X176640000Y-6460000D02*
X171908750Y-6460000D01*
X171908750Y-6460000D02*
X170925000Y-7443750D01*
X170925000Y-7443750D02*
X170925000Y-8143750D01*
%TO.N,Net-(D11-Pad2)*%
X190958750Y-6460000D02*
X189975000Y-7443750D01*
X189975000Y-7443750D02*
X189975000Y-8143750D01*
X195690000Y-6460000D02*
X190958750Y-6460000D01*
%TO.N,Net-(D12-Pad2)*%
X210008750Y-6460000D02*
X209025000Y-7443750D01*
X209025000Y-7443750D02*
X209025000Y-8143750D01*
X214740000Y-6460000D02*
X210008750Y-6460000D01*
%TO.N,Net-(D13-Pad2)*%
X233790000Y-6460000D02*
X229058750Y-6460000D01*
X228075000Y-7443750D02*
X228075000Y-8143750D01*
X229058750Y-6460000D02*
X228075000Y-7443750D01*
%TO.N,Net-(D14-Pad2)*%
X252840000Y-6460000D02*
X249638750Y-6460000D01*
X248655000Y-7443750D02*
X248655000Y-8143750D01*
X249638750Y-6460000D02*
X248655000Y-7443750D01*
%TO.N,Net-(D15-Pad2)*%
X262365000Y-6460000D02*
X271890000Y-6460000D01*
X248293750Y-4400000D02*
X245585000Y-7108750D01*
X262365000Y-6460000D02*
X258553750Y-6460000D01*
X245585000Y-7108750D02*
X245585000Y-8143750D01*
X258553750Y-6460000D02*
X256493750Y-4400000D01*
X256493750Y-4400000D02*
X248293750Y-4400000D01*
%TO.N,Net-(D16-Pad2)*%
X9952500Y-25510000D02*
X7602500Y-25510000D01*
X7602500Y-25510000D02*
X5825000Y-27287500D01*
X5825000Y-27287500D02*
X5825000Y-27987500D01*
%TO.N,Net-(D17-Pad2)*%
X50473750Y-25510000D02*
X35355990Y-25510000D01*
X53503750Y-23880000D02*
X52103750Y-23880000D01*
X52103750Y-23880000D02*
X50473750Y-25510000D01*
X35355990Y-25510000D02*
X33765000Y-25510000D01*
X67737500Y-27193750D02*
X66887500Y-27193750D01*
X64673750Y-24980000D02*
X54603750Y-24980000D01*
X66887500Y-27193750D02*
X64673750Y-24980000D01*
X54603750Y-24980000D02*
X53503750Y-23880000D01*
%TO.N,ROW1*%
X37435602Y-30493750D02*
X36129352Y-31800000D01*
X34253750Y-32628750D02*
X34253750Y-33758750D01*
X35082500Y-31800000D02*
X34253750Y-32628750D01*
X261350000Y-30493750D02*
X64562500Y-30493750D01*
X20157500Y-31287500D02*
X20160000Y-31290000D01*
X261393750Y-30450000D02*
X261350000Y-30493750D01*
X5825000Y-31287500D02*
X20157500Y-31287500D01*
X35082500Y-30292500D02*
X34250000Y-29460000D01*
X35082500Y-31800000D02*
X35082500Y-30292500D01*
X37435602Y-30493750D02*
X64562500Y-30493750D01*
X36129352Y-31800000D02*
X35082500Y-31800000D01*
%TO.N,Net-(D18-Pad2)*%
X63578750Y-25510000D02*
X64562500Y-26493750D01*
X52815000Y-25510000D02*
X63578750Y-25510000D01*
X64562500Y-26493750D02*
X64562500Y-27193750D01*
%TO.N,Net-(D19-Pad2)*%
X83612500Y-26493750D02*
X83612500Y-27193750D01*
X71865000Y-25510000D02*
X82628750Y-25510000D01*
X82628750Y-25510000D02*
X83612500Y-26493750D01*
%TO.N,Net-(D20-Pad2)*%
X86787500Y-27193750D02*
X86787500Y-26493750D01*
X89324010Y-25510000D02*
X90915000Y-25510000D01*
X87771250Y-25510000D02*
X89324010Y-25510000D01*
X86787500Y-26493750D02*
X87771250Y-25510000D01*
%TO.N,Net-(D21-Pad2)*%
X104250000Y-27193750D02*
X104250000Y-26493750D01*
X104250000Y-26493750D02*
X105233750Y-25510000D01*
X108374010Y-25510000D02*
X109965000Y-25510000D01*
X105233750Y-25510000D02*
X108374010Y-25510000D01*
%TO.N,Net-(D22-Pad2)*%
X123300000Y-26493750D02*
X123300000Y-27193750D01*
X129015000Y-25510000D02*
X124283750Y-25510000D01*
X124283750Y-25510000D02*
X123300000Y-26493750D01*
%TO.N,Net-(D23-Pad2)*%
X143333750Y-25510000D02*
X142350000Y-26493750D01*
X148065000Y-25510000D02*
X143333750Y-25510000D01*
X142350000Y-26493750D02*
X142350000Y-27193750D01*
%TO.N,Net-(D24-Pad2)*%
X167115000Y-25510000D02*
X162383750Y-25510000D01*
X161400000Y-26493750D02*
X161400000Y-27193750D01*
X162383750Y-25510000D02*
X161400000Y-26493750D01*
%TO.N,Net-(D25-Pad2)*%
X186165000Y-25510000D02*
X181433750Y-25510000D01*
X180450000Y-26493750D02*
X180450000Y-27193750D01*
X181433750Y-25510000D02*
X180450000Y-26493750D01*
%TO.N,Net-(D26-Pad2)*%
X200483750Y-25510000D02*
X199500000Y-26493750D01*
X199500000Y-26493750D02*
X199500000Y-27193750D01*
X205215000Y-25510000D02*
X200483750Y-25510000D01*
%TO.N,Net-(D27-Pad2)*%
X224265000Y-25510000D02*
X219533750Y-25510000D01*
X219533750Y-25510000D02*
X218550000Y-26493750D01*
X218550000Y-26493750D02*
X218550000Y-27193750D01*
%TO.N,Net-(D28-Pad2)*%
X238583750Y-25510000D02*
X237600000Y-26493750D01*
X237600000Y-26493750D02*
X237600000Y-27193750D01*
X243315000Y-25510000D02*
X238583750Y-25510000D01*
%TO.N,Net-(D29-Pad2)*%
X267127500Y-25510000D02*
X262396250Y-25510000D01*
X262396250Y-25510000D02*
X261412500Y-26493750D01*
X261412500Y-26493750D02*
X261412500Y-27193750D01*
%TO.N,Net-(D30-Pad2)*%
X22637350Y-42920010D02*
X23379991Y-43662651D01*
X21433740Y-42920010D02*
X22637350Y-42920010D01*
X19793750Y-44560000D02*
X21433740Y-42920010D01*
X24081250Y-45331409D02*
X24081250Y-46243750D01*
X23379991Y-43662651D02*
X23379991Y-44630150D01*
X7571250Y-44560000D02*
X12333750Y-44560000D01*
X12333750Y-44560000D02*
X19793750Y-44560000D01*
X23379991Y-44630150D02*
X24081250Y-45331409D01*
%TO.N,Net-(D31-Pad2)*%
X50275000Y-45543750D02*
X50275000Y-46243750D01*
X49291250Y-44560000D02*
X50275000Y-45543750D01*
X38527500Y-44560000D02*
X49291250Y-44560000D01*
%TO.N,Net-(D32-Pad2)*%
X54433750Y-44560000D02*
X53450000Y-45543750D01*
X57577500Y-44560000D02*
X54433750Y-44560000D01*
X53450000Y-45543750D02*
X53450000Y-46243750D01*
%TO.N,ROW2*%
X89112500Y-49543750D02*
X88787509Y-49868741D01*
X36883750Y-49026592D02*
X37725899Y-49868741D01*
X184037509Y-49868741D02*
X167337491Y-49868741D01*
X186062500Y-49543750D02*
X186387491Y-49868741D01*
X203087509Y-49868741D02*
X186387491Y-49868741D01*
X185212500Y-49543750D02*
X186062500Y-49543750D01*
X28943750Y-53520850D02*
X28943750Y-53970000D01*
X25503704Y-46117453D02*
X23830001Y-44443749D01*
X70912500Y-49543750D02*
X71762500Y-49543750D01*
X128912500Y-49543750D02*
X129237491Y-49868741D01*
X16169260Y-40285510D02*
X15223750Y-39340000D01*
X203412500Y-49543750D02*
X203087509Y-49868741D01*
X127212500Y-49543750D02*
X126887509Y-49868741D01*
X69737509Y-49868741D02*
X54624991Y-49868741D01*
X108113750Y-49530000D02*
X107803750Y-49840000D01*
X126887509Y-49868741D02*
X110187491Y-49868741D01*
X26547910Y-51125010D02*
X28943750Y-53520850D01*
X49100009Y-49868741D02*
X49425000Y-49543750D01*
X15223750Y-39340000D02*
X15223750Y-37870000D01*
X166162500Y-49543750D02*
X167012500Y-49543750D01*
X24081250Y-49543750D02*
X24081250Y-48843750D01*
X223312500Y-49543750D02*
X224162500Y-49543750D01*
X185212500Y-49543750D02*
X184362500Y-49543750D01*
X184362500Y-49543750D02*
X184037509Y-49868741D01*
X90812500Y-49543750D02*
X89962500Y-49543750D01*
X107803750Y-49840000D02*
X91108750Y-49840000D01*
X222462500Y-49543750D02*
X222137509Y-49868741D01*
X18195000Y-36500000D02*
X21853750Y-40158750D01*
X145937509Y-49868741D02*
X129237491Y-49868741D01*
X167012500Y-49543750D02*
X167337491Y-49868741D01*
X21853750Y-40158750D02*
X22853750Y-40158750D01*
X50275000Y-49543750D02*
X53450000Y-49543750D01*
X147962500Y-49543750D02*
X148287491Y-49868741D01*
X204262500Y-49543750D02*
X205112500Y-49543750D01*
X108998750Y-49530000D02*
X108113750Y-49530000D01*
X147112500Y-49543750D02*
X146262500Y-49543750D01*
X254268750Y-49543750D02*
X253418750Y-49543750D01*
X166162500Y-49543750D02*
X165312500Y-49543750D01*
X109012500Y-49543750D02*
X109862500Y-49543750D01*
X224162500Y-49543750D02*
X224487491Y-49868741D01*
X128062500Y-49543750D02*
X128912500Y-49543750D01*
X24759375Y-48165625D02*
X25503704Y-47421296D01*
X19254798Y-40285510D02*
X16169260Y-40285510D01*
X22823750Y-42470000D02*
X21439288Y-42470000D01*
X165312500Y-49543750D02*
X164987509Y-49868741D01*
X223312500Y-49543750D02*
X222462500Y-49543750D01*
X21439288Y-42470000D02*
X19254798Y-40285510D01*
X53450000Y-49543750D02*
X54300000Y-49543750D01*
X36883750Y-48590000D02*
X36883750Y-49026592D01*
X70062500Y-49543750D02*
X69737509Y-49868741D01*
X54300000Y-49543750D02*
X54624991Y-49868741D01*
X205112500Y-49543750D02*
X205437491Y-49868741D01*
X109862500Y-49543750D02*
X110187491Y-49868741D01*
X24081250Y-49543750D02*
X24081250Y-50243750D01*
X24962510Y-51125010D02*
X26547910Y-51125010D01*
X71762500Y-49543750D02*
X72087491Y-49868741D01*
X164987509Y-49868741D02*
X148287491Y-49868741D01*
X88787509Y-49868741D02*
X72087491Y-49868741D01*
X23830001Y-44443749D02*
X23830001Y-43476251D01*
X24081250Y-48843750D02*
X24759375Y-48165625D01*
X70912500Y-49543750D02*
X70062500Y-49543750D01*
X24081250Y-50243750D02*
X24962510Y-51125010D01*
X109012500Y-49543750D02*
X108998750Y-49530000D01*
X147112500Y-49543750D02*
X147962500Y-49543750D01*
X204262500Y-49543750D02*
X203412500Y-49543750D01*
X253093759Y-49868741D02*
X224487491Y-49868741D01*
X23830001Y-43476251D02*
X22823750Y-42470000D01*
X49425000Y-49543750D02*
X50275000Y-49543750D01*
X253418750Y-49543750D02*
X253093759Y-49868741D01*
X91108750Y-49840000D02*
X90812500Y-49543750D01*
X128062500Y-49543750D02*
X127212500Y-49543750D01*
X37725899Y-49868741D02*
X49100009Y-49868741D01*
X146262500Y-49543750D02*
X145937509Y-49868741D01*
X222137509Y-49868741D02*
X205437491Y-49868741D01*
X16593750Y-36500000D02*
X18195000Y-36500000D01*
X15223750Y-37870000D02*
X16593750Y-36500000D01*
X89962500Y-49543750D02*
X89112500Y-49543750D01*
X25503704Y-47421296D02*
X25503704Y-46117453D01*
%TO.N,Net-(D33-Pad2)*%
X76627500Y-44560000D02*
X71896250Y-44560000D01*
X70912500Y-45543750D02*
X70912500Y-46243750D01*
X71896250Y-44560000D02*
X70912500Y-45543750D01*
%TO.N,Net-(D34-Pad2)*%
X90946250Y-44560000D02*
X89962500Y-45543750D01*
X95677500Y-44560000D02*
X90946250Y-44560000D01*
X89962500Y-45543750D02*
X89962500Y-46243750D01*
%TO.N,Net-(D35-Pad2)*%
X114727500Y-44560000D02*
X109996250Y-44560000D01*
X109012500Y-45543750D02*
X109012500Y-46243750D01*
X109996250Y-44560000D02*
X109012500Y-45543750D01*
%TO.N,Net-(D36-Pad2)*%
X128062500Y-45543750D02*
X128062500Y-46243750D01*
X133777500Y-44560000D02*
X129046250Y-44560000D01*
X129046250Y-44560000D02*
X128062500Y-45543750D01*
%TO.N,Net-(D37-Pad2)*%
X147112500Y-45543750D02*
X147112500Y-46243750D01*
X152827500Y-44560000D02*
X148096250Y-44560000D01*
X148096250Y-44560000D02*
X147112500Y-45543750D01*
%TO.N,Net-(D38-Pad2)*%
X167146250Y-44560000D02*
X166162500Y-45543750D01*
X166162500Y-45543750D02*
X166162500Y-46243750D01*
X171877500Y-44560000D02*
X167146250Y-44560000D01*
%TO.N,Net-(D39-Pad2)*%
X190927500Y-44560000D02*
X186196250Y-44560000D01*
X186196250Y-44560000D02*
X185212500Y-45543750D01*
X185212500Y-45543750D02*
X185212500Y-46243750D01*
%TO.N,Net-(D40-Pad2)*%
X209977500Y-44560000D02*
X205246250Y-44560000D01*
X204262500Y-45543750D02*
X204262500Y-46243750D01*
X205246250Y-44560000D02*
X204262500Y-45543750D01*
%TO.N,Net-(D41-Pad2)*%
X224296250Y-44560000D02*
X223312500Y-45543750D01*
X229027500Y-44560000D02*
X224296250Y-44560000D01*
X223312500Y-45543750D02*
X223312500Y-46243750D01*
%TO.N,Net-(D42-Pad2)*%
X254268750Y-45543750D02*
X254268750Y-46243750D01*
X259983750Y-44560000D02*
X255252500Y-44560000D01*
X255252500Y-44560000D02*
X254268750Y-45543750D01*
%TO.N,Net-(D43-Pad2)*%
X17096250Y-63610000D02*
X27860000Y-63610000D01*
X28843750Y-64593750D02*
X28843750Y-65293750D01*
X27860000Y-63610000D02*
X28843750Y-64593750D01*
%TO.N,Net-(D44-Pad2)*%
X48052500Y-63610000D02*
X43321250Y-63610000D01*
X42337500Y-64593750D02*
X42337500Y-65293750D01*
X43321250Y-63610000D02*
X42337500Y-64593750D01*
%TO.N,Net-(D45-Pad2)*%
X62371250Y-63610000D02*
X61387500Y-64593750D01*
X67102500Y-63610000D02*
X62371250Y-63610000D01*
X61387500Y-64593750D02*
X61387500Y-65293750D01*
%TO.N,Net-(D46-Pad2)*%
X86152500Y-63610000D02*
X81421250Y-63610000D01*
X80437500Y-64593750D02*
X80437500Y-65293750D01*
X81421250Y-63610000D02*
X80437500Y-64593750D01*
%TO.N,Net-(D47-Pad2)*%
X99487500Y-64593750D02*
X99487500Y-65293750D01*
X105202500Y-63610000D02*
X100471250Y-63610000D01*
X100471250Y-63610000D02*
X99487500Y-64593750D01*
%TO.N,ROW3*%
X20508769Y-35181125D02*
X20511781Y-35178113D01*
X20508769Y-36413769D02*
X20508769Y-35181125D01*
X266137500Y-68593750D02*
X266143750Y-68600000D01*
X28843750Y-68593750D02*
X266137500Y-68593750D01*
X266137500Y-68593750D02*
X267715000Y-68593750D01*
X28840000Y-68590000D02*
X28843750Y-68593750D01*
X21853750Y-37758750D02*
X20508769Y-36413769D01*
X24621260Y-68590000D02*
X28840000Y-68590000D01*
X22853750Y-37758750D02*
X21853750Y-37758750D01*
%TO.N,Net-(D48-Pad2)*%
X118537500Y-64593750D02*
X118537500Y-65293750D01*
X124252500Y-63610000D02*
X119521250Y-63610000D01*
X119521250Y-63610000D02*
X118537500Y-64593750D01*
%TO.N,Net-(D49-Pad2)*%
X138571250Y-63610000D02*
X137587500Y-64593750D01*
X137587500Y-64593750D02*
X137587500Y-65293750D01*
X143302500Y-63610000D02*
X138571250Y-63610000D01*
%TO.N,Net-(D50-Pad2)*%
X156637500Y-64593750D02*
X156637500Y-65293750D01*
X162352500Y-63610000D02*
X157621250Y-63610000D01*
X157621250Y-63610000D02*
X156637500Y-64593750D01*
%TO.N,Net-(D51-Pad2)*%
X175687500Y-64593750D02*
X175687500Y-65293750D01*
X176671250Y-63610000D02*
X175687500Y-64593750D01*
X181402500Y-63610000D02*
X176671250Y-63610000D01*
%TO.N,Net-(D52-Pad2)*%
X195721250Y-63610000D02*
X194737500Y-64593750D01*
X194737500Y-64593750D02*
X194737500Y-65293750D01*
X200452500Y-63610000D02*
X195721250Y-63610000D01*
%TO.N,Net-(D53-Pad2)*%
X214771250Y-63610000D02*
X213787500Y-64593750D01*
X219502500Y-63610000D02*
X214771250Y-63610000D01*
X213787500Y-64593750D02*
X213787500Y-65293750D01*
%TO.N,Net-(D54-Pad2)*%
X247287240Y-63610000D02*
X255221250Y-63610000D01*
X239981250Y-64593750D02*
X239981250Y-65293750D01*
X245696250Y-63610000D02*
X247287240Y-63610000D01*
X240965000Y-63610000D02*
X239981250Y-64593750D01*
X245696250Y-63610000D02*
X240965000Y-63610000D01*
%TO.N,Net-(D55-Pad2)*%
X268698750Y-63610000D02*
X267715000Y-64593750D01*
X267715000Y-64593750D02*
X267715000Y-65293750D01*
X271890000Y-63610000D02*
X268698750Y-63610000D01*
%TO.N,Net-(D56-Pad2)*%
X20903750Y-82660000D02*
X9952500Y-82660000D01*
X21747500Y-83503750D02*
X20903750Y-82660000D01*
X21747500Y-84343750D02*
X21747500Y-83503750D01*
%TO.N,Net-(D57-Pad2)*%
X26652500Y-82660000D02*
X25668750Y-83643750D01*
X31383750Y-82660000D02*
X33765000Y-82660000D01*
X31383750Y-82660000D02*
X26652500Y-82660000D01*
X25668750Y-83643750D02*
X25668750Y-84343750D01*
%TO.N,Net-(D58-Pad2)*%
X49481250Y-83643750D02*
X49481250Y-84343750D01*
X50465000Y-82660000D02*
X49481250Y-83643750D01*
X50465000Y-82660000D02*
X55195500Y-82660000D01*
%TO.N,Net-(D59-Pad2)*%
X95096250Y-82660000D02*
X117107500Y-82660000D01*
X93275000Y-84481250D02*
X95096250Y-82660000D01*
%TO.N,Net-(D60-Pad2)*%
X186937500Y-84343750D02*
X188621250Y-82660000D01*
X188621250Y-82660000D02*
X193309500Y-82660000D01*
%TO.N,Net-(D61-Pad2)*%
X214771250Y-82660000D02*
X213787500Y-83643750D01*
X213787500Y-83643750D02*
X213787500Y-84343750D01*
X219502500Y-82660000D02*
X214771250Y-82660000D01*
%TO.N,ROW4*%
X23887500Y-87643750D02*
X21747500Y-87643750D01*
X67800000Y-87643750D02*
X23887500Y-87643750D01*
X21853750Y-38558750D02*
X19783769Y-36488769D01*
X259143750Y-87643750D02*
X261362500Y-87643750D01*
X259143750Y-87643750D02*
X67800000Y-87643750D01*
X19783769Y-36488769D02*
X19783769Y-35913254D01*
X22853750Y-38558750D02*
X21853750Y-38558750D01*
%TO.N,Net-(D62-Pad2)*%
X238533750Y-82660000D02*
X237550000Y-83643750D01*
X243315000Y-82660000D02*
X238533750Y-82660000D01*
X237550000Y-83643750D02*
X237550000Y-84343750D01*
%TO.N,Net-(D63-Pad2)*%
X261362500Y-83643750D02*
X261362500Y-84343750D01*
X262346250Y-82660000D02*
X261362500Y-83643750D01*
X267127500Y-82660000D02*
X262346250Y-82660000D01*
D27*
%TO.N,VBUS*%
X38323750Y-16400000D02*
X38323750Y-15340000D01*
X38323750Y-15340000D02*
X38644367Y-15019383D01*
X38323750Y-15019383D02*
X40163133Y-15019383D01*
X44125000Y-16000000D02*
X43640510Y-16484490D01*
X41628240Y-16484490D02*
X40163133Y-15019383D01*
X38814367Y-15019383D02*
X29384311Y-15019383D01*
X27283694Y-17120000D02*
X26110000Y-17120000D01*
X29384311Y-15019383D02*
X27283694Y-17120000D01*
X43640510Y-16484490D02*
X41628240Y-16484490D01*
X45100000Y-16000000D02*
X44225000Y-16000000D01*
D29*
%TO.N,D+*%
X39273750Y-18150000D02*
X39273750Y-18600000D01*
X40665001Y-18600000D02*
X39870000Y-18600000D01*
X38848750Y-17725000D02*
X39273750Y-18150000D01*
X33277500Y-18750000D02*
X34302500Y-17725000D01*
X34302500Y-17725000D02*
X38848750Y-17725000D01*
X41540001Y-17725000D02*
X40665001Y-18600000D01*
X45100000Y-18000000D02*
X44225000Y-18000000D01*
X43850000Y-17725000D02*
X41540001Y-17725000D01*
X44125000Y-18000000D02*
X43850000Y-17725000D01*
X39870000Y-18600000D02*
X39273750Y-18600000D01*
%TO.N,D-*%
X41540001Y-17275000D02*
X43850000Y-17275000D01*
X34302500Y-17275000D02*
X38808750Y-17275000D01*
X33277500Y-16250000D02*
X34302500Y-17275000D01*
X39273750Y-16400000D02*
X40665001Y-16400000D01*
X38808750Y-17275000D02*
X39273750Y-16810000D01*
X45100000Y-17000000D02*
X44225000Y-17000000D01*
X40665001Y-16400000D02*
X41540001Y-17275000D01*
X39273750Y-16810000D02*
X39273750Y-16400000D01*
X43850000Y-17275000D02*
X44125000Y-17000000D01*
D28*
%TO.N,MOSI*%
X7730000Y-18267501D02*
X8932081Y-18267501D01*
X30663750Y-24990963D02*
X31104232Y-24550482D01*
X24013770Y-13210022D02*
X24823750Y-14020002D01*
X30653739Y-28816400D02*
X30653739Y-25000975D01*
X31104232Y-24550482D02*
X31902295Y-23752418D01*
X8932081Y-18267501D02*
X13989560Y-13210022D01*
X13989560Y-13210022D02*
X24013770Y-13210022D01*
X31753750Y-29916411D02*
X30653739Y-28816400D01*
X31902295Y-23752418D02*
X31902295Y-23252418D01*
X31753750Y-32058750D02*
X31753750Y-29916411D01*
X30653739Y-25000975D02*
X31104232Y-24550482D01*
%TO.N,SCK*%
X30953750Y-32058750D02*
X30953750Y-29752822D01*
X30203728Y-24200985D02*
X30652295Y-23752418D01*
X23100031Y-13660033D02*
X14175959Y-13660033D01*
X8295992Y-19540000D02*
X6462499Y-19540000D01*
X30953750Y-29752822D02*
X30203728Y-29002800D01*
X30203728Y-29002800D02*
X30203728Y-24200985D01*
X6462499Y-19540000D02*
X5190000Y-18267501D01*
X14175959Y-13660033D02*
X8295992Y-19540000D01*
X23460000Y-14020002D02*
X23100031Y-13660033D01*
X30652295Y-23752418D02*
X30652295Y-23252418D01*
%TO.N,MISO*%
X13783739Y-12760011D02*
X24813761Y-12760011D01*
X24813761Y-12760011D02*
X24813761Y-12761258D01*
X5190000Y-20807501D02*
X3810000Y-19427501D01*
X33152295Y-23752418D02*
X33152295Y-23252418D01*
X4520000Y-17000000D02*
X9543750Y-17000000D01*
X32553750Y-30080000D02*
X31103750Y-28630000D01*
X3810000Y-19427501D02*
X3810000Y-17710000D01*
X31103750Y-28630000D02*
X31103750Y-25800963D01*
X24813761Y-12761258D02*
X26072505Y-14020002D01*
X9543750Y-17000000D02*
X13783739Y-12760011D01*
X32553750Y-32058750D02*
X32553750Y-30080000D01*
X3810000Y-17710000D02*
X4520000Y-17000000D01*
X31103750Y-25800963D02*
X33152295Y-23752418D01*
%TO.N,COL0*%
X18167660Y-35811250D02*
X21715160Y-39358750D01*
X21715160Y-39358750D02*
X22853750Y-39358750D01*
X16302500Y-35811250D02*
X18167660Y-35811250D01*
%TO.N,COL1*%
X30633750Y-22150000D02*
X39295000Y-22150000D01*
X29749972Y-29199200D02*
X29749972Y-23033778D01*
X39295000Y-22150000D02*
X40115000Y-22970000D01*
X30153750Y-29602980D02*
X29749972Y-29199200D01*
X30153750Y-32058750D02*
X30153750Y-29602980D01*
X29749972Y-23033778D02*
X30633750Y-22150000D01*
%TO.N,COL2*%
X21853750Y-36958750D02*
X21233770Y-36338770D01*
X35293750Y-55720000D02*
X35863750Y-55720000D01*
X49051383Y-55718883D02*
X49501389Y-56168889D01*
X32786355Y-53212605D02*
X35293750Y-55720000D01*
X21233770Y-36338770D02*
X21233770Y-35870020D01*
X35302699Y-55718883D02*
X49051383Y-55718883D01*
X49501389Y-56168889D02*
X54402500Y-61070000D01*
X29908317Y-53212605D02*
X32786355Y-53212605D01*
X26248750Y-49950000D02*
X26645716Y-49950000D01*
X22853750Y-36958750D02*
X21853750Y-36958750D01*
X26645716Y-49950000D02*
X29908317Y-53212605D01*
%TO.N,COL3*%
X25353750Y-43458750D02*
X25353750Y-44622340D01*
X35489099Y-55268872D02*
X67651372Y-55268872D01*
X30094717Y-52762594D02*
X32982821Y-52762594D01*
X25353750Y-44622340D02*
X26403723Y-45672313D01*
X26403723Y-49071600D02*
X30094717Y-52762594D01*
X26403723Y-45672313D02*
X26403723Y-49071600D01*
X67651372Y-55268872D02*
X72327501Y-59945001D01*
X72327501Y-59945001D02*
X73452500Y-61070000D01*
X32982821Y-52762594D02*
X35489099Y-55268872D01*
%TO.N,COL4*%
X33169221Y-52312583D02*
X35675499Y-54818861D01*
X26853734Y-45485913D02*
X26853734Y-48885199D01*
X26853734Y-48885199D02*
X30281117Y-52312583D01*
X26153750Y-43458750D02*
X26153750Y-44785929D01*
X26153750Y-44785929D02*
X26853734Y-45485913D01*
X35675499Y-54818861D02*
X86251361Y-54818861D01*
X30281117Y-52312583D02*
X33169221Y-52312583D01*
X86251361Y-54818861D02*
X91377501Y-59945001D01*
X91377501Y-59945001D02*
X92502500Y-61070000D01*
%TO.N,COL5*%
X26953750Y-43458750D02*
X26953750Y-44949518D01*
X35861899Y-54368850D02*
X104851350Y-54368850D01*
X26953750Y-44949518D02*
X27303745Y-45299513D01*
X33355621Y-51862572D02*
X35861899Y-54368850D01*
X110427501Y-59945001D02*
X111552500Y-61070000D01*
X27303745Y-48698799D02*
X30467517Y-51862572D01*
X30467517Y-51862572D02*
X33355621Y-51862572D01*
X27303745Y-45299513D02*
X27303745Y-48698799D01*
X104851350Y-54368850D02*
X110427501Y-59945001D01*
%TO.N,COL6*%
X33542021Y-51412561D02*
X36048299Y-53918839D01*
X123451339Y-53918839D02*
X129477501Y-59945001D01*
X30653917Y-51412561D02*
X33542021Y-51412561D01*
X27753750Y-48512394D02*
X30653917Y-51412561D01*
X129477501Y-59945001D02*
X130602500Y-61070000D01*
X27753750Y-43458750D02*
X27753750Y-48512394D01*
X36048299Y-53918839D02*
X123451339Y-53918839D01*
%TO.N,COL7*%
X28553750Y-44949518D02*
X28467378Y-45035889D01*
X36234699Y-53468828D02*
X142051328Y-53468828D01*
X28203767Y-45299500D02*
X28203767Y-48325998D01*
X28203767Y-48325998D02*
X30840317Y-50962550D01*
X28553750Y-43458750D02*
X28553750Y-44949518D01*
X148527501Y-59945001D02*
X149652500Y-61070000D01*
X142051328Y-53468828D02*
X148527501Y-59945001D01*
X28467378Y-45035889D02*
X28203767Y-45299500D01*
X30840317Y-50962550D02*
X33728421Y-50962550D01*
X33728421Y-50962550D02*
X36234699Y-53468828D01*
%TO.N,COL8*%
X167577501Y-59945001D02*
X168702500Y-61070000D01*
X36421099Y-53018817D02*
X160651317Y-53018817D01*
X28653778Y-48139598D02*
X31026717Y-50512539D01*
X33914821Y-50512539D02*
X36421099Y-53018817D01*
X28653778Y-45485900D02*
X28653778Y-48139598D01*
X160651317Y-53018817D02*
X167577501Y-59945001D01*
X29353750Y-43458750D02*
X29353750Y-44785928D01*
X31026717Y-50512539D02*
X33914821Y-50512539D01*
X29353750Y-44785928D02*
X28653778Y-45485900D01*
%TO.N,COL9*%
X30153750Y-44622340D02*
X29103789Y-45672300D01*
X186627501Y-59945001D02*
X187752500Y-61070000D01*
X36607499Y-52568806D02*
X179251306Y-52568806D01*
X34101221Y-50062528D02*
X36607499Y-52568806D01*
X29103789Y-45672300D02*
X29103789Y-47953198D01*
X30153750Y-43458750D02*
X30153750Y-44622340D01*
X179251306Y-52568806D02*
X186627501Y-59945001D01*
X29103789Y-47953198D02*
X31213117Y-50062528D01*
X31213117Y-50062528D02*
X34101221Y-50062528D01*
%TO.N,COL10*%
X31399517Y-49612517D02*
X34287621Y-49612517D01*
X29553800Y-47766798D02*
X31399517Y-49612517D01*
X36793899Y-52118795D02*
X197851295Y-52118795D01*
X30953750Y-43458750D02*
X30953750Y-44458750D01*
X29553800Y-45858700D02*
X29553800Y-47766798D01*
X197851295Y-52118795D02*
X205677501Y-59945001D01*
X30953750Y-44458750D02*
X29553800Y-45858700D01*
X34287621Y-49612517D02*
X36793899Y-52118795D01*
X205677501Y-59945001D02*
X206802500Y-61070000D01*
%TO.N,COL11*%
X33939957Y-48628442D02*
X36980299Y-51668784D01*
X33939957Y-42597543D02*
X33939957Y-48628442D01*
X224727501Y-59945001D02*
X225852500Y-61070000D01*
X34253750Y-42283750D02*
X33939957Y-42597543D01*
X216451284Y-51668784D02*
X224727501Y-59945001D01*
X34253750Y-41758750D02*
X34253750Y-42283750D01*
X36980299Y-51668784D02*
X216451284Y-51668784D01*
%TO.N,COL12*%
X35389989Y-41094989D02*
X35253750Y-40958750D01*
X35253750Y-40958750D02*
X34253750Y-40958750D01*
X242195023Y-51218773D02*
X37166699Y-51218773D01*
X34389968Y-48442042D02*
X34389968Y-45560800D01*
X37166699Y-51218773D02*
X34389968Y-48442042D01*
X34389968Y-45560800D02*
X35389989Y-44560780D01*
X35389989Y-44560780D02*
X35389989Y-41094989D01*
X252046250Y-61070000D02*
X242195023Y-51218773D01*
%TO.N,COL13*%
X34839979Y-48255642D02*
X34839979Y-45747200D01*
X278240000Y-61070000D02*
X276649010Y-61070000D01*
X276649010Y-61070000D02*
X266347772Y-50768762D01*
X34839979Y-45747200D02*
X35840000Y-44747180D01*
X35840000Y-44747180D02*
X35840000Y-40745000D01*
X35840000Y-40745000D02*
X35253750Y-40158750D01*
X37353099Y-50768762D02*
X34839979Y-48255642D01*
X35253750Y-40158750D02*
X34253750Y-40158750D01*
X266347772Y-50768762D02*
X37353099Y-50768762D01*
%TO.N,COL14*%
X35289990Y-45933600D02*
X35289990Y-48069242D01*
X278909376Y-50318751D02*
X279643750Y-51053125D01*
X37539499Y-50318751D02*
X278909376Y-50318751D01*
X35253750Y-39358750D02*
X36290011Y-40395011D01*
X35289990Y-48069242D02*
X37539499Y-50318751D01*
X36290011Y-40395011D02*
X36290011Y-44933580D01*
X34253750Y-39358750D02*
X35253750Y-39358750D01*
X36290011Y-44933580D02*
X35289990Y-45933600D01*
D27*
%TO.N,+5V*%
X25353750Y-30306250D02*
X25353750Y-32058750D01*
X48410000Y-34957500D02*
X48409999Y-32569999D01*
X22853750Y-33758750D02*
X22853750Y-32081002D01*
X16647500Y-39770000D02*
X19468328Y-39770000D01*
X16236250Y-38558750D02*
X16490000Y-38812500D01*
X38179381Y-31459383D02*
X37779382Y-31859382D01*
X22614290Y-15424290D02*
X23310000Y-16120000D01*
X23310000Y-17120000D02*
X23310000Y-27198750D01*
X7757532Y-20807501D02*
X12604391Y-15960641D01*
X37160000Y-32982500D02*
X36360000Y-32982500D01*
X24061250Y-28750000D02*
X24648750Y-28750000D01*
X49710000Y-35457500D02*
X48910000Y-35457500D01*
X21388989Y-14198989D02*
X22614290Y-15424290D01*
X31753750Y-43458750D02*
X31753750Y-44873750D01*
X16236250Y-38558750D02*
X16236250Y-39358750D01*
X7730000Y-20807501D02*
X7757532Y-20807501D01*
X47299383Y-31459383D02*
X38179381Y-31459383D01*
X16598835Y-37255480D02*
X17164520Y-37255480D01*
X19468328Y-39770000D02*
X21457078Y-41758750D01*
X23310000Y-17120000D02*
X23310000Y-16120000D01*
X31122500Y-48257500D02*
X31120000Y-48260000D01*
X31122500Y-46910000D02*
X31122500Y-46110000D01*
X25353750Y-29455000D02*
X25353750Y-29730000D01*
X24061250Y-27950000D02*
X24061250Y-28750000D01*
X12604391Y-15960641D02*
X12804524Y-15760509D01*
X48409999Y-32569999D02*
X47299383Y-31459383D01*
X16236250Y-39358750D02*
X16647500Y-39770000D01*
X22853750Y-32081002D02*
X22854251Y-32080501D01*
X36360000Y-32982500D02*
X36055510Y-33286990D01*
X14366043Y-14198989D02*
X21388989Y-14198989D01*
X21457078Y-41758750D02*
X22853750Y-41758750D01*
X48910000Y-35457500D02*
X48410000Y-34957500D01*
X31753750Y-45478750D02*
X31753750Y-44873750D01*
X37160000Y-32478764D02*
X37779382Y-31859382D01*
X23310000Y-27198750D02*
X24061250Y-27950000D01*
X24648750Y-28750000D02*
X25353750Y-29455000D01*
X12604391Y-15960641D02*
X14366043Y-14198989D01*
X37160000Y-32982500D02*
X37160000Y-32478764D01*
X35180291Y-35358750D02*
X34253750Y-35358750D01*
X31122500Y-46910000D02*
X31122500Y-48257500D01*
X31122500Y-46110000D02*
X31753750Y-45478750D01*
X31853749Y-43558749D02*
X31753750Y-43458750D01*
X25353750Y-30306250D02*
X25353750Y-29730000D01*
X36055510Y-33286990D02*
X36055510Y-34483531D01*
X16236250Y-38558750D02*
X16236250Y-37618065D01*
X16236250Y-37618065D02*
X16598835Y-37255480D01*
X29353750Y-30301250D02*
X29360000Y-30295000D01*
X29353750Y-32058750D02*
X29353750Y-30301250D01*
X36055510Y-34483531D02*
X35180291Y-35358750D01*
D29*
%TO.N,/MCU_D+*%
X28519450Y-17725000D02*
X30377500Y-17725000D01*
X26778750Y-19465700D02*
X28519450Y-17725000D01*
X26953750Y-30933749D02*
X26778750Y-30758749D01*
X26953750Y-32058750D02*
X26953750Y-30933749D01*
X30377500Y-17725000D02*
X31402500Y-18750000D01*
X26778750Y-30758749D02*
X26778750Y-19465700D01*
%TO.N,/MCU_D-*%
X30377500Y-17275000D02*
X28333050Y-17275000D01*
X31402500Y-16250000D02*
X30377500Y-17275000D01*
X26328750Y-30758749D02*
X26153750Y-30933749D01*
X26333750Y-28171950D02*
X26328750Y-28176950D01*
X26328750Y-28176950D02*
X26328750Y-30758749D01*
X26328750Y-19279300D02*
X26328750Y-28176950D01*
X26153750Y-30933749D02*
X26153750Y-32058750D01*
X28333050Y-17275000D02*
X26328750Y-19279300D01*
D28*
%TO.N,Net-(C6-Pad1)*%
X28553750Y-32058750D02*
X28553750Y-30028248D01*
X28553750Y-30028248D02*
X29299963Y-29282035D01*
X29299963Y-27712463D02*
X29299963Y-29282035D01*
X28120000Y-26532500D02*
X29299963Y-27712463D01*
%TO.N,Net-(R3-Pad2)*%
X26734311Y-50675001D02*
X29823750Y-53764440D01*
X25523750Y-49480000D02*
X25523750Y-50298002D01*
X25953714Y-49050036D02*
X25523750Y-49480000D01*
X25523750Y-50298002D02*
X25900749Y-50675001D01*
X25953714Y-45858714D02*
X25953714Y-49050036D01*
X29823750Y-53764440D02*
X29823750Y-55012500D01*
X24553750Y-44458750D02*
X25953714Y-45858714D01*
X24553750Y-43458750D02*
X24553750Y-44458750D01*
X25900749Y-50675001D02*
X26734311Y-50675001D01*
%TO.N,RST*%
X49712500Y-33585000D02*
X49710000Y-33582500D01*
X52093750Y-33585000D02*
X49712500Y-33585000D01*
X13573750Y-12310000D02*
X40843748Y-12310000D01*
X49710000Y-33582500D02*
X49710000Y-32745460D01*
X52093750Y-33585000D02*
X58393750Y-33585000D01*
X6447501Y-14470000D02*
X11413750Y-14470000D01*
X35540000Y-34270000D02*
X35540000Y-33025762D01*
X40843748Y-12310000D02*
X42553750Y-14020002D01*
X37621889Y-30943873D02*
X47908413Y-30943873D01*
X34253750Y-34558750D02*
X35251250Y-34558750D01*
X5190000Y-15727501D02*
X6447501Y-14470000D01*
X35540000Y-33025762D02*
X37621889Y-30943873D01*
X47908413Y-30943873D02*
X49204145Y-32239605D01*
X35251250Y-34558750D02*
X35540000Y-34270000D01*
X11413750Y-14470000D02*
X13573750Y-12310000D01*
X49204145Y-32239605D02*
X49710000Y-32745460D01*
%TO.N,Net-(D64-Pad2)*%
X72871250Y-82660000D02*
X79007500Y-82660000D01*
X71050000Y-84481250D02*
X72871250Y-82660000D01*
%TO.N,Net-(D65-Pad2)*%
X150658750Y-82660000D02*
X162351500Y-82660000D01*
X148837500Y-84481250D02*
X150658750Y-82660000D01*
%TD*%
%TA.AperFunction,Conductor*%
%TO.N,GND*%
G36*
X45272121Y-31924385D02*
G01*
X45318614Y-31978041D01*
X45330000Y-32030383D01*
X45330000Y-40548887D01*
X45309998Y-40617008D01*
X45256342Y-40663501D01*
X45181905Y-40672934D01*
X45007767Y-40641915D01*
X44934224Y-40641017D01*
X44786111Y-40639207D01*
X44786109Y-40639207D01*
X44780941Y-40639144D01*
X44556708Y-40673456D01*
X44406468Y-40722562D01*
X44346009Y-40742323D01*
X44346007Y-40742324D01*
X44341090Y-40743931D01*
X44336504Y-40746318D01*
X44336500Y-40746320D01*
X44213812Y-40810188D01*
X44139878Y-40848676D01*
X44135736Y-40851786D01*
X43969214Y-40976814D01*
X43958475Y-40984877D01*
X43801753Y-41148877D01*
X43798839Y-41153149D01*
X43798838Y-41153150D01*
X43676840Y-41331992D01*
X43676837Y-41331997D01*
X43673921Y-41336272D01*
X43578412Y-41542029D01*
X43517790Y-41760622D01*
X43493685Y-41986180D01*
X43493982Y-41991332D01*
X43493982Y-41991336D01*
X43504096Y-42166747D01*
X43488048Y-42235906D01*
X43437158Y-42285411D01*
X43378305Y-42300000D01*
X38732298Y-42300000D01*
X38664177Y-42279998D01*
X38643073Y-42262966D01*
X36664307Y-40278448D01*
X36642650Y-40249321D01*
X36629650Y-40225228D01*
X36626972Y-40219971D01*
X36608223Y-40180926D01*
X36604791Y-40173779D01*
X36601197Y-40169503D01*
X36599257Y-40167563D01*
X36597504Y-40165652D01*
X36597455Y-40165562D01*
X36597578Y-40165450D01*
X36597106Y-40164915D01*
X36594021Y-40159197D01*
X36554424Y-40122594D01*
X36550859Y-40119165D01*
X35560228Y-39128534D01*
X35545086Y-39109786D01*
X35543971Y-39108561D01*
X35538321Y-39099810D01*
X35530143Y-39093363D01*
X35530141Y-39093361D01*
X35511950Y-39079021D01*
X35507509Y-39075075D01*
X35507447Y-39075148D01*
X35503483Y-39071789D01*
X35499806Y-39068112D01*
X35484058Y-39056858D01*
X35479388Y-39053352D01*
X35439103Y-39021594D01*
X35430469Y-39018562D01*
X35423016Y-39013236D01*
X35413040Y-39010253D01*
X35406052Y-39006829D01*
X35372261Y-38982644D01*
X35295026Y-38905185D01*
X35261091Y-38842824D01*
X35258250Y-38816219D01*
X35258249Y-38264250D01*
X35278251Y-38196129D01*
X35331907Y-38149636D01*
X35384249Y-38138250D01*
X37779366Y-38138250D01*
X37847487Y-38158252D01*
X37868461Y-38175155D01*
X38373595Y-38680289D01*
X38407621Y-38742601D01*
X38410500Y-38769384D01*
X38410500Y-39771080D01*
X38407951Y-39795028D01*
X38407872Y-39796693D01*
X38405680Y-39806876D01*
X38406904Y-39817217D01*
X38409627Y-39840223D01*
X38409977Y-39846154D01*
X38410072Y-39846146D01*
X38410500Y-39851324D01*
X38410500Y-39856524D01*
X38411354Y-39861653D01*
X38411354Y-39861656D01*
X38413669Y-39875565D01*
X38414506Y-39881443D01*
X38420530Y-39932341D01*
X38424493Y-39940593D01*
X38425996Y-39949626D01*
X38430943Y-39958795D01*
X38430944Y-39958797D01*
X38450334Y-39994732D01*
X38453031Y-40000025D01*
X38471785Y-40039082D01*
X38471788Y-40039086D01*
X38475219Y-40046232D01*
X38478814Y-40050508D01*
X38480737Y-40052431D01*
X38482509Y-40054363D01*
X38482552Y-40054442D01*
X38482428Y-40054555D01*
X38482904Y-40055095D01*
X38485990Y-40060814D01*
X38493635Y-40067881D01*
X38525586Y-40097416D01*
X38529152Y-40100846D01*
X39128522Y-40700216D01*
X39143664Y-40718964D01*
X39144779Y-40720189D01*
X39150429Y-40728940D01*
X39158607Y-40735387D01*
X39158609Y-40735389D01*
X39176800Y-40749729D01*
X39181241Y-40753675D01*
X39181303Y-40753602D01*
X39185267Y-40756961D01*
X39188944Y-40760638D01*
X39204692Y-40771892D01*
X39209362Y-40775398D01*
X39232509Y-40793646D01*
X39273620Y-40851525D01*
X39280501Y-40892593D01*
X39280501Y-40973414D01*
X39280870Y-40976808D01*
X39280870Y-40976814D01*
X39286254Y-41026376D01*
X39287119Y-41034342D01*
X39337217Y-41167982D01*
X39342601Y-41175165D01*
X39342601Y-41175166D01*
X39405294Y-41258816D01*
X39422811Y-41282189D01*
X39429992Y-41287571D01*
X39490676Y-41333051D01*
X39537018Y-41367783D01*
X39545426Y-41370935D01*
X39663260Y-41415108D01*
X39663262Y-41415109D01*
X39670658Y-41417881D01*
X39711592Y-41422328D01*
X39726983Y-41424000D01*
X39731585Y-41424500D01*
X40022457Y-41424500D01*
X40313414Y-41424499D01*
X40316808Y-41424130D01*
X40316814Y-41424130D01*
X40366483Y-41418735D01*
X40366486Y-41418734D01*
X40374342Y-41417881D01*
X40383055Y-41414615D01*
X40499574Y-41370935D01*
X40507982Y-41367783D01*
X40554325Y-41333051D01*
X40615008Y-41287571D01*
X40622189Y-41282189D01*
X40639706Y-41258816D01*
X40702399Y-41175166D01*
X40702399Y-41175165D01*
X40707783Y-41167982D01*
X40757881Y-41034342D01*
X40764500Y-40973415D01*
X40764500Y-40969942D01*
X41156001Y-40969942D01*
X41156370Y-40976760D01*
X41161759Y-41026376D01*
X41165388Y-41041635D01*
X41209511Y-41159335D01*
X41218043Y-41174920D01*
X41292787Y-41274650D01*
X41305350Y-41287213D01*
X41405080Y-41361957D01*
X41420665Y-41370489D01*
X41538371Y-41414615D01*
X41553617Y-41418240D01*
X41603242Y-41423631D01*
X41610056Y-41424000D01*
X41688885Y-41424000D01*
X41704124Y-41419525D01*
X41705329Y-41418135D01*
X41707000Y-41410452D01*
X41707000Y-41405884D01*
X42088000Y-41405884D01*
X42092475Y-41421123D01*
X42093865Y-41422328D01*
X42101548Y-41423999D01*
X42184942Y-41423999D01*
X42191760Y-41423630D01*
X42241376Y-41418241D01*
X42256635Y-41414612D01*
X42374335Y-41370489D01*
X42389920Y-41361957D01*
X42489650Y-41287213D01*
X42502213Y-41274650D01*
X42576957Y-41174920D01*
X42585489Y-41159335D01*
X42629615Y-41041629D01*
X42633240Y-41026383D01*
X42638631Y-40976758D01*
X42639000Y-40969944D01*
X42639000Y-40678615D01*
X42634525Y-40663376D01*
X42633135Y-40662171D01*
X42625452Y-40660500D01*
X42106115Y-40660500D01*
X42090876Y-40664975D01*
X42089671Y-40666365D01*
X42088000Y-40674048D01*
X42088000Y-41405884D01*
X41707000Y-41405884D01*
X41707000Y-40678615D01*
X41702525Y-40663376D01*
X41701135Y-40662171D01*
X41693452Y-40660500D01*
X41174116Y-40660500D01*
X41158877Y-40664975D01*
X41157672Y-40666365D01*
X41156001Y-40674048D01*
X41156001Y-40969942D01*
X40764500Y-40969942D01*
X40764499Y-40316885D01*
X40784501Y-40248764D01*
X40801404Y-40227790D01*
X40940905Y-40088289D01*
X41003217Y-40054263D01*
X41074032Y-40059328D01*
X41130868Y-40101875D01*
X41155679Y-40168395D01*
X41156000Y-40177384D01*
X41156000Y-40261385D01*
X41160475Y-40276624D01*
X41161865Y-40277829D01*
X41169548Y-40279500D01*
X42620884Y-40279500D01*
X42636123Y-40275025D01*
X42637328Y-40273635D01*
X42638999Y-40265952D01*
X42638999Y-39970058D01*
X42638630Y-39963240D01*
X42633241Y-39913624D01*
X42629612Y-39898365D01*
X42585489Y-39780665D01*
X42576957Y-39765080D01*
X42502213Y-39665350D01*
X42489653Y-39652790D01*
X42420984Y-39601325D01*
X42378470Y-39544465D01*
X42373445Y-39473647D01*
X42407505Y-39411354D01*
X42469836Y-39377363D01*
X42496548Y-39374499D01*
X42785066Y-39374499D01*
X42820818Y-39367388D01*
X42847126Y-39362156D01*
X42847128Y-39362155D01*
X42859301Y-39359734D01*
X42869621Y-39352839D01*
X42869622Y-39352838D01*
X42933168Y-39310377D01*
X42943484Y-39303484D01*
X42999734Y-39219301D01*
X43014500Y-39145067D01*
X43014499Y-37894934D01*
X43007388Y-37859182D01*
X43002156Y-37832874D01*
X43002155Y-37832872D01*
X42999734Y-37820699D01*
X42945512Y-37739551D01*
X42924298Y-37671801D01*
X42945513Y-37599549D01*
X42992368Y-37529426D01*
X43001684Y-37506934D01*
X43012793Y-37451085D01*
X43014000Y-37438830D01*
X43014000Y-37028615D01*
X43009525Y-37013376D01*
X43008135Y-37012171D01*
X43000452Y-37010500D01*
X41124116Y-37010500D01*
X41108877Y-37014975D01*
X41107672Y-37016365D01*
X41106001Y-37024048D01*
X41106001Y-37438828D01*
X41107209Y-37451088D01*
X41118315Y-37506931D01*
X41127633Y-37529427D01*
X41174487Y-37599549D01*
X41195702Y-37667302D01*
X41174488Y-37739551D01*
X41120266Y-37820699D01*
X41105500Y-37894933D01*
X41105500Y-37901120D01*
X41105501Y-38798115D01*
X41085499Y-38866236D01*
X41068596Y-38887210D01*
X41029095Y-38926711D01*
X40966783Y-38960737D01*
X40895968Y-38955672D01*
X40839132Y-38913125D01*
X40814321Y-38846605D01*
X40814000Y-38837616D01*
X40814000Y-38728615D01*
X40809525Y-38713376D01*
X40808135Y-38712171D01*
X40800452Y-38710500D01*
X39795500Y-38710500D01*
X39727379Y-38690498D01*
X39680886Y-38636842D01*
X39669500Y-38584500D01*
X39669500Y-38455500D01*
X39689502Y-38387379D01*
X39743158Y-38340886D01*
X39795500Y-38329500D01*
X40795884Y-38329500D01*
X40811123Y-38325025D01*
X40812328Y-38323635D01*
X40813999Y-38315952D01*
X40813999Y-37901172D01*
X40812791Y-37888912D01*
X40801685Y-37833069D01*
X40792367Y-37810573D01*
X40745513Y-37740451D01*
X40724298Y-37672698D01*
X40745512Y-37600449D01*
X40799734Y-37519301D01*
X40814500Y-37445067D01*
X40814499Y-36611385D01*
X41106000Y-36611385D01*
X41110475Y-36626624D01*
X41111865Y-36627829D01*
X41119548Y-36629500D01*
X42995884Y-36629500D01*
X43011123Y-36625025D01*
X43012328Y-36623635D01*
X43013999Y-36615952D01*
X43013999Y-36201172D01*
X43012791Y-36188912D01*
X43001685Y-36133069D01*
X42992367Y-36110573D01*
X42950017Y-36047192D01*
X42932808Y-36029983D01*
X42869425Y-35987632D01*
X42846934Y-35978316D01*
X42791085Y-35967207D01*
X42778830Y-35966000D01*
X42495884Y-35966000D01*
X42427763Y-35945998D01*
X42381270Y-35892342D01*
X42371166Y-35822068D01*
X42400660Y-35757488D01*
X42420319Y-35739174D01*
X42489650Y-35687213D01*
X42502213Y-35674650D01*
X42576957Y-35574920D01*
X42585489Y-35559335D01*
X42629615Y-35441629D01*
X42633240Y-35426383D01*
X42638631Y-35376758D01*
X42639000Y-35369944D01*
X42639000Y-35078615D01*
X42634525Y-35063376D01*
X42633135Y-35062171D01*
X42625452Y-35060500D01*
X41174116Y-35060500D01*
X41158877Y-35064975D01*
X41157672Y-35066365D01*
X41156001Y-35074048D01*
X41156001Y-35369942D01*
X41156370Y-35376760D01*
X41161759Y-35426376D01*
X41165388Y-35441635D01*
X41209511Y-35559335D01*
X41218043Y-35574920D01*
X41292787Y-35674650D01*
X41305350Y-35687213D01*
X41379602Y-35742862D01*
X41422117Y-35799721D01*
X41427143Y-35870540D01*
X41393083Y-35932833D01*
X41328617Y-35967267D01*
X41273069Y-35978316D01*
X41250573Y-35987633D01*
X41187192Y-36029983D01*
X41169983Y-36047192D01*
X41127632Y-36110575D01*
X41118316Y-36133066D01*
X41107207Y-36188915D01*
X41106000Y-36201170D01*
X41106000Y-36611385D01*
X40814499Y-36611385D01*
X40814499Y-36194934D01*
X40807388Y-36159182D01*
X40802156Y-36132874D01*
X40802155Y-36132872D01*
X40799734Y-36120699D01*
X40743484Y-36036516D01*
X40659301Y-35980266D01*
X40592580Y-35966994D01*
X40529672Y-35934088D01*
X40494539Y-35872393D01*
X40498339Y-35801498D01*
X40541595Y-35742591D01*
X40622189Y-35682189D01*
X40648922Y-35646520D01*
X40702399Y-35575166D01*
X40702399Y-35575165D01*
X40707783Y-35567982D01*
X40716215Y-35545489D01*
X40755108Y-35441740D01*
X40755109Y-35441738D01*
X40757881Y-35434342D01*
X40764500Y-35373415D01*
X40764499Y-34661385D01*
X41156000Y-34661385D01*
X41160475Y-34676624D01*
X41161865Y-34677829D01*
X41169548Y-34679500D01*
X41688885Y-34679500D01*
X41704124Y-34675025D01*
X41705329Y-34673635D01*
X41707000Y-34665952D01*
X41707000Y-34661385D01*
X42088000Y-34661385D01*
X42092475Y-34676624D01*
X42093865Y-34677829D01*
X42101548Y-34679500D01*
X42620884Y-34679500D01*
X42636123Y-34675025D01*
X42637328Y-34673635D01*
X42638999Y-34665952D01*
X42638999Y-34370058D01*
X42638630Y-34363240D01*
X42633241Y-34313624D01*
X42629612Y-34298365D01*
X42585489Y-34180665D01*
X42576957Y-34165080D01*
X42502213Y-34065350D01*
X42489650Y-34052787D01*
X42389920Y-33978043D01*
X42374335Y-33969511D01*
X42256629Y-33925385D01*
X42241383Y-33921760D01*
X42191758Y-33916369D01*
X42184944Y-33916000D01*
X42106115Y-33916000D01*
X42090876Y-33920475D01*
X42089671Y-33921865D01*
X42088000Y-33929548D01*
X42088000Y-34661385D01*
X41707000Y-34661385D01*
X41707000Y-33934116D01*
X41702525Y-33918877D01*
X41701135Y-33917672D01*
X41693452Y-33916001D01*
X41610058Y-33916001D01*
X41603240Y-33916370D01*
X41553624Y-33921759D01*
X41538365Y-33925388D01*
X41420665Y-33969511D01*
X41405080Y-33978043D01*
X41305350Y-34052787D01*
X41292787Y-34065350D01*
X41218043Y-34165080D01*
X41209511Y-34180665D01*
X41165385Y-34298371D01*
X41161760Y-34313617D01*
X41156369Y-34363242D01*
X41156000Y-34370056D01*
X41156000Y-34661385D01*
X40764499Y-34661385D01*
X40764499Y-34366586D01*
X40764130Y-34363186D01*
X40758735Y-34313517D01*
X40758734Y-34313511D01*
X40757881Y-34305658D01*
X40707783Y-34172018D01*
X40670117Y-34121760D01*
X40627571Y-34064992D01*
X40622189Y-34057811D01*
X40615008Y-34052429D01*
X40515166Y-33977601D01*
X40515165Y-33977601D01*
X40507982Y-33972217D01*
X40499574Y-33969065D01*
X40381740Y-33924892D01*
X40381738Y-33924891D01*
X40374342Y-33922119D01*
X40318027Y-33916001D01*
X40316812Y-33915869D01*
X40316811Y-33915869D01*
X40313415Y-33915500D01*
X40022543Y-33915500D01*
X39731586Y-33915501D01*
X39728192Y-33915870D01*
X39728186Y-33915870D01*
X39678517Y-33921265D01*
X39678514Y-33921266D01*
X39670658Y-33922119D01*
X39663256Y-33924894D01*
X39663255Y-33924894D01*
X39638655Y-33934116D01*
X39537018Y-33972217D01*
X39529835Y-33977601D01*
X39529834Y-33977601D01*
X39429992Y-34052429D01*
X39422811Y-34057811D01*
X39417429Y-34064992D01*
X39374884Y-34121760D01*
X39337217Y-34172018D01*
X39334065Y-34180426D01*
X39304729Y-34258683D01*
X39287119Y-34305658D01*
X39280500Y-34366585D01*
X39280500Y-34444687D01*
X39260498Y-34512808D01*
X39222854Y-34550535D01*
X39220916Y-34551787D01*
X39213768Y-34555219D01*
X39209493Y-34558813D01*
X39207560Y-34560746D01*
X39205638Y-34562509D01*
X39205553Y-34562555D01*
X39205441Y-34562432D01*
X39204906Y-34562904D01*
X39199186Y-34565990D01*
X39192119Y-34573635D01*
X39162584Y-34605586D01*
X39159154Y-34609152D01*
X38581034Y-35187272D01*
X38562286Y-35202414D01*
X38561061Y-35203529D01*
X38552310Y-35209179D01*
X38545863Y-35217357D01*
X38545861Y-35217359D01*
X38531521Y-35235550D01*
X38527575Y-35239991D01*
X38527648Y-35240053D01*
X38524289Y-35244017D01*
X38520612Y-35247694D01*
X38509358Y-35263442D01*
X38505852Y-35268112D01*
X38474094Y-35308397D01*
X38471062Y-35317031D01*
X38465736Y-35324484D01*
X38451103Y-35373415D01*
X38451049Y-35373594D01*
X38449214Y-35379242D01*
X38432232Y-35427601D01*
X38431750Y-35433166D01*
X38431750Y-35435874D01*
X38431636Y-35438508D01*
X38431607Y-35438606D01*
X38431443Y-35438599D01*
X38431399Y-35439303D01*
X38429537Y-35445528D01*
X38429946Y-35455933D01*
X38431653Y-35499385D01*
X38431750Y-35504332D01*
X38431750Y-35871866D01*
X38411748Y-35939987D01*
X38394845Y-35960961D01*
X37813461Y-36542345D01*
X37751149Y-36576371D01*
X37724366Y-36579250D01*
X35383750Y-36579250D01*
X35315629Y-36559248D01*
X35269136Y-36505592D01*
X35257750Y-36453250D01*
X35257750Y-36367365D01*
X35253275Y-36352126D01*
X35251885Y-36350921D01*
X35244202Y-36349250D01*
X35243458Y-36349250D01*
X35243986Y-35966972D01*
X35254873Y-35963775D01*
X35256078Y-35962385D01*
X35257749Y-35954702D01*
X35257749Y-35896463D01*
X35277751Y-35828342D01*
X35326767Y-35785870D01*
X35326062Y-35784513D01*
X35377475Y-35757806D01*
X35381016Y-35756037D01*
X35424747Y-35735038D01*
X35424748Y-35735037D01*
X35433243Y-35730958D01*
X35438481Y-35726116D01*
X35444809Y-35722829D01*
X35449800Y-35718566D01*
X35486579Y-35681787D01*
X35490145Y-35678358D01*
X35524587Y-35646520D01*
X35531505Y-35640125D01*
X35535161Y-35633831D01*
X35540538Y-35627828D01*
X36005241Y-35163125D01*
X36067553Y-35129099D01*
X36138368Y-35134164D01*
X36195204Y-35176711D01*
X36210755Y-35209931D01*
X36212613Y-35209234D01*
X36259511Y-35334335D01*
X36268043Y-35349920D01*
X36342787Y-35449650D01*
X36355350Y-35462213D01*
X36455080Y-35536957D01*
X36470665Y-35545489D01*
X36588371Y-35589615D01*
X36603617Y-35593240D01*
X36653242Y-35598631D01*
X36660056Y-35599000D01*
X36951385Y-35599000D01*
X36966624Y-35594525D01*
X36967829Y-35593135D01*
X36969500Y-35585452D01*
X36969500Y-35580884D01*
X37350500Y-35580884D01*
X37354975Y-35596123D01*
X37356365Y-35597328D01*
X37364048Y-35598999D01*
X37659942Y-35598999D01*
X37666760Y-35598630D01*
X37716376Y-35593241D01*
X37731635Y-35589612D01*
X37849335Y-35545489D01*
X37864920Y-35536957D01*
X37964650Y-35462213D01*
X37977213Y-35449650D01*
X38051957Y-35349920D01*
X38060489Y-35334335D01*
X38104615Y-35216629D01*
X38108240Y-35201383D01*
X38113631Y-35151758D01*
X38114000Y-35144944D01*
X38114000Y-35066115D01*
X38109525Y-35050876D01*
X38108135Y-35049671D01*
X38100452Y-35048000D01*
X37368615Y-35048000D01*
X37353376Y-35052475D01*
X37352171Y-35053865D01*
X37350500Y-35061548D01*
X37350500Y-35580884D01*
X36969500Y-35580884D01*
X36969500Y-34648885D01*
X37350500Y-34648885D01*
X37354975Y-34664124D01*
X37356365Y-34665329D01*
X37364048Y-34667000D01*
X38095884Y-34667000D01*
X38111123Y-34662525D01*
X38112328Y-34661135D01*
X38113999Y-34653452D01*
X38113999Y-34570058D01*
X38113630Y-34563240D01*
X38108241Y-34513624D01*
X38104612Y-34498365D01*
X38060489Y-34380665D01*
X38051957Y-34365080D01*
X37977213Y-34265350D01*
X37964650Y-34252787D01*
X37864920Y-34178043D01*
X37849335Y-34169511D01*
X37731629Y-34125385D01*
X37716383Y-34121760D01*
X37666758Y-34116369D01*
X37659944Y-34116000D01*
X37368615Y-34116000D01*
X37353376Y-34120475D01*
X37352171Y-34121865D01*
X37350500Y-34129548D01*
X37350500Y-34648885D01*
X36969500Y-34648885D01*
X36969500Y-34134116D01*
X36965025Y-34118877D01*
X36963635Y-34117672D01*
X36955952Y-34116001D01*
X36660058Y-34116001D01*
X36653242Y-34116370D01*
X36640117Y-34117796D01*
X36570235Y-34105268D01*
X36518219Y-34056947D01*
X36500510Y-33992533D01*
X36500510Y-33847974D01*
X36520512Y-33779853D01*
X36574168Y-33733360D01*
X36640118Y-33722711D01*
X36656585Y-33724500D01*
X37159926Y-33724500D01*
X37663414Y-33724499D01*
X37666808Y-33724130D01*
X37666814Y-33724130D01*
X37716483Y-33718735D01*
X37716486Y-33718734D01*
X37724342Y-33717881D01*
X37857982Y-33667783D01*
X37972189Y-33582189D01*
X38057783Y-33467982D01*
X38107881Y-33334342D01*
X38114500Y-33273415D01*
X38114499Y-32691586D01*
X38107881Y-32630658D01*
X38083286Y-32565049D01*
X38078103Y-32494242D01*
X38112025Y-32431874D01*
X38131541Y-32415873D01*
X38137453Y-32411945D01*
X38144237Y-32408533D01*
X38264696Y-32305651D01*
X38357137Y-32177006D01*
X38416224Y-32030023D01*
X38418699Y-32012632D01*
X38448098Y-31948009D01*
X38507768Y-31909538D01*
X38543442Y-31904383D01*
X45204000Y-31904383D01*
X45272121Y-31924385D01*
G37*
%TD.AperFunction*%
%TD*%
%TA.AperFunction,Conductor*%
%TO.N,GND*%
G36*
X27915489Y-33172011D02*
G01*
X27922669Y-33177392D01*
X27922670Y-33177393D01*
X27957315Y-33203358D01*
X27999830Y-33260217D01*
X28005163Y-33289824D01*
X28012225Y-33313873D01*
X28013615Y-33315078D01*
X28021298Y-33316749D01*
X28073419Y-33316749D01*
X28080240Y-33316379D01*
X28138957Y-33310002D01*
X28139255Y-33312748D01*
X28168196Y-33312690D01*
X28168434Y-33310495D01*
X28222617Y-33316381D01*
X28230616Y-33317250D01*
X28876884Y-33317250D01*
X28884884Y-33316381D01*
X28939066Y-33310495D01*
X28939330Y-33312924D01*
X28968170Y-33312924D01*
X28968434Y-33310495D01*
X29022617Y-33316381D01*
X29030616Y-33317250D01*
X29676884Y-33317250D01*
X29684884Y-33316381D01*
X29739066Y-33310495D01*
X29739330Y-33312924D01*
X29768170Y-33312924D01*
X29768434Y-33310495D01*
X29822617Y-33316381D01*
X29830616Y-33317250D01*
X30476884Y-33317250D01*
X30484884Y-33316381D01*
X30539066Y-33310495D01*
X30539330Y-33312924D01*
X30568170Y-33312924D01*
X30568434Y-33310495D01*
X30622617Y-33316381D01*
X30630616Y-33317250D01*
X31276884Y-33317250D01*
X31284884Y-33316381D01*
X31339066Y-33310495D01*
X31339330Y-33312924D01*
X31368170Y-33312924D01*
X31368434Y-33310495D01*
X31422617Y-33316381D01*
X31430616Y-33317250D01*
X32076884Y-33317250D01*
X32084884Y-33316381D01*
X32139066Y-33310495D01*
X32139330Y-33312924D01*
X32168170Y-33312924D01*
X32168434Y-33310495D01*
X32222617Y-33316381D01*
X32230616Y-33317250D01*
X32869250Y-33317250D01*
X32937371Y-33337252D01*
X32983864Y-33390908D01*
X32995250Y-33443250D01*
X32995250Y-34081884D01*
X32995619Y-34085281D01*
X33002005Y-34144066D01*
X32999576Y-34144330D01*
X32999576Y-34173170D01*
X33002005Y-34173434D01*
X32995250Y-34235616D01*
X32995250Y-34881884D01*
X32995619Y-34885281D01*
X33002005Y-34944066D01*
X32999576Y-34944330D01*
X32999576Y-34973170D01*
X33002005Y-34973434D01*
X32995250Y-35035616D01*
X32995250Y-35681884D01*
X32995619Y-35685281D01*
X33002005Y-35744066D01*
X32999866Y-35744298D01*
X32999916Y-35773262D01*
X33002498Y-35773543D01*
X32996119Y-35832264D01*
X32995750Y-35839078D01*
X32995750Y-35886635D01*
X33000225Y-35901874D01*
X33001615Y-35903079D01*
X33022533Y-35907629D01*
X33022268Y-35908847D01*
X33076437Y-35924752D01*
X33109142Y-35955185D01*
X33140000Y-35996359D01*
X33140000Y-36321141D01*
X33135108Y-36327669D01*
X33135107Y-36327670D01*
X33109142Y-36362315D01*
X33052283Y-36404830D01*
X33022676Y-36410163D01*
X32998627Y-36417225D01*
X32997422Y-36418615D01*
X32995751Y-36426298D01*
X32995751Y-36478419D01*
X32996121Y-36485240D01*
X33002498Y-36543957D01*
X32999752Y-36544255D01*
X32999810Y-36573196D01*
X33002005Y-36573434D01*
X32995250Y-36635616D01*
X32995250Y-37281884D01*
X32995619Y-37285281D01*
X33002005Y-37344066D01*
X32999576Y-37344330D01*
X32999576Y-37373170D01*
X33002005Y-37373434D01*
X32995250Y-37435616D01*
X32995250Y-38081884D01*
X32995619Y-38085281D01*
X33002005Y-38144066D01*
X32999576Y-38144330D01*
X32999576Y-38173170D01*
X33002005Y-38173434D01*
X32995250Y-38235616D01*
X32995250Y-38881884D01*
X32995619Y-38885281D01*
X33002005Y-38944066D01*
X32999576Y-38944330D01*
X32999576Y-38973170D01*
X33002005Y-38973434D01*
X32995250Y-39035616D01*
X32995250Y-39681884D01*
X32995619Y-39685281D01*
X33002005Y-39744066D01*
X32999576Y-39744330D01*
X32999576Y-39773170D01*
X33002005Y-39773434D01*
X32995250Y-39835616D01*
X32995250Y-40481884D01*
X32995619Y-40485281D01*
X33002005Y-40544066D01*
X32999576Y-40544330D01*
X32999576Y-40573170D01*
X33002005Y-40573434D01*
X32995250Y-40635616D01*
X32995250Y-41281884D01*
X32995619Y-41285281D01*
X33002005Y-41344066D01*
X32999576Y-41344330D01*
X32999576Y-41373170D01*
X33002005Y-41373434D01*
X32995250Y-41435616D01*
X32995250Y-42074750D01*
X32975248Y-42142871D01*
X32921592Y-42189364D01*
X32869250Y-42200750D01*
X32825865Y-42200750D01*
X32810626Y-42205225D01*
X32809421Y-42206615D01*
X32807750Y-42214298D01*
X32807750Y-42320000D01*
X32358001Y-42320000D01*
X32350185Y-42314142D01*
X32307670Y-42257283D01*
X32302337Y-42227676D01*
X32295275Y-42203627D01*
X32293885Y-42202422D01*
X32286202Y-42200751D01*
X32234081Y-42200751D01*
X32227260Y-42201121D01*
X32168543Y-42207498D01*
X32168245Y-42204752D01*
X32139304Y-42204810D01*
X32139066Y-42207005D01*
X32080281Y-42200619D01*
X32076884Y-42200250D01*
X31430616Y-42200250D01*
X31427219Y-42200619D01*
X31390794Y-42204576D01*
X31368434Y-42207005D01*
X31368170Y-42204576D01*
X31339330Y-42204576D01*
X31339066Y-42207005D01*
X31280281Y-42200619D01*
X31276884Y-42200250D01*
X30630616Y-42200250D01*
X30627219Y-42200619D01*
X30590794Y-42204576D01*
X30568434Y-42207005D01*
X30568170Y-42204576D01*
X30539330Y-42204576D01*
X30539066Y-42207005D01*
X30480281Y-42200619D01*
X30476884Y-42200250D01*
X29830616Y-42200250D01*
X29827219Y-42200619D01*
X29790794Y-42204576D01*
X29768434Y-42207005D01*
X29768170Y-42204576D01*
X29739330Y-42204576D01*
X29739066Y-42207005D01*
X29680281Y-42200619D01*
X29676884Y-42200250D01*
X29030616Y-42200250D01*
X29027219Y-42200619D01*
X28990794Y-42204576D01*
X28968434Y-42207005D01*
X28968170Y-42204576D01*
X28939330Y-42204576D01*
X28939066Y-42207005D01*
X28880281Y-42200619D01*
X28876884Y-42200250D01*
X28230616Y-42200250D01*
X28227219Y-42200619D01*
X28190794Y-42204576D01*
X28168434Y-42207005D01*
X28168170Y-42204576D01*
X28139330Y-42204576D01*
X28139066Y-42207005D01*
X28080281Y-42200619D01*
X28076884Y-42200250D01*
X27430616Y-42200250D01*
X27427219Y-42200619D01*
X27390794Y-42204576D01*
X27368434Y-42207005D01*
X27368170Y-42204576D01*
X27339330Y-42204576D01*
X27339066Y-42207005D01*
X27280281Y-42200619D01*
X27276884Y-42200250D01*
X26630616Y-42200250D01*
X26627219Y-42200619D01*
X26590794Y-42204576D01*
X26568434Y-42207005D01*
X26568170Y-42204576D01*
X26539330Y-42204576D01*
X26539066Y-42207005D01*
X26480281Y-42200619D01*
X26476884Y-42200250D01*
X25830616Y-42200250D01*
X25827219Y-42200619D01*
X25790794Y-42204576D01*
X25768434Y-42207005D01*
X25768170Y-42204576D01*
X25739330Y-42204576D01*
X25739066Y-42207005D01*
X25680281Y-42200619D01*
X25676884Y-42200250D01*
X25030616Y-42200250D01*
X25027219Y-42200619D01*
X24990794Y-42204576D01*
X24968434Y-42207005D01*
X24968170Y-42204576D01*
X24939330Y-42204576D01*
X24939066Y-42207005D01*
X24880281Y-42200619D01*
X24876884Y-42200250D01*
X24238250Y-42200250D01*
X24170129Y-42180248D01*
X24123636Y-42126592D01*
X24112250Y-42074250D01*
X24112250Y-41435616D01*
X24105495Y-41373434D01*
X24107634Y-41373202D01*
X24107584Y-41344238D01*
X24105002Y-41343957D01*
X24111381Y-41285236D01*
X24111750Y-41278422D01*
X24111750Y-41230865D01*
X24107275Y-41215626D01*
X24105885Y-41214421D01*
X24084967Y-41209871D01*
X24085232Y-41208653D01*
X24031063Y-41192748D01*
X23998358Y-41162315D01*
X23990000Y-41151163D01*
X23990000Y-40766337D01*
X23998358Y-40755185D01*
X24055217Y-40712670D01*
X24084824Y-40707337D01*
X24108873Y-40700275D01*
X24110078Y-40698885D01*
X24111749Y-40691202D01*
X24111749Y-40639081D01*
X24111379Y-40632260D01*
X24105002Y-40573543D01*
X24107748Y-40573245D01*
X24107690Y-40544304D01*
X24105495Y-40544066D01*
X24111881Y-40485281D01*
X24112250Y-40481884D01*
X24112250Y-39835616D01*
X24105495Y-39773434D01*
X24107924Y-39773170D01*
X24107924Y-39744330D01*
X24105495Y-39744066D01*
X24111881Y-39685281D01*
X24112250Y-39681884D01*
X24112250Y-39035616D01*
X24105495Y-38973434D01*
X24107924Y-38973170D01*
X24107924Y-38944330D01*
X24105495Y-38944066D01*
X24111881Y-38885281D01*
X24112250Y-38881884D01*
X24112250Y-38235616D01*
X24105495Y-38173434D01*
X24107924Y-38173170D01*
X24107924Y-38144330D01*
X24105495Y-38144066D01*
X24111881Y-38085281D01*
X24112250Y-38081884D01*
X24112250Y-37435616D01*
X24105495Y-37373434D01*
X24107924Y-37373170D01*
X24107924Y-37344330D01*
X24105495Y-37344066D01*
X24111881Y-37285281D01*
X24112250Y-37281884D01*
X24112250Y-36635616D01*
X24105495Y-36573434D01*
X24107924Y-36573170D01*
X24107924Y-36544330D01*
X24105495Y-36544066D01*
X24111881Y-36485281D01*
X24112250Y-36481884D01*
X24112250Y-35835616D01*
X24105495Y-35773434D01*
X24107924Y-35773170D01*
X24107924Y-35744330D01*
X24105495Y-35744066D01*
X24111881Y-35685281D01*
X24112250Y-35681884D01*
X24112250Y-35035616D01*
X24105495Y-34973434D01*
X24107634Y-34973202D01*
X24107584Y-34944238D01*
X24105002Y-34943957D01*
X24111381Y-34885236D01*
X24111750Y-34878422D01*
X24111750Y-34830865D01*
X24107275Y-34815626D01*
X24105885Y-34814421D01*
X24084967Y-34809871D01*
X24085232Y-34808653D01*
X24031063Y-34792748D01*
X23998358Y-34762315D01*
X23990000Y-34751163D01*
X23990000Y-34366337D01*
X23998358Y-34355185D01*
X24055217Y-34312670D01*
X24084824Y-34307337D01*
X24108873Y-34300275D01*
X24110078Y-34298885D01*
X24111749Y-34291202D01*
X24111749Y-34239081D01*
X24111379Y-34232260D01*
X24105002Y-34173543D01*
X24107748Y-34173245D01*
X24107690Y-34144304D01*
X24105495Y-34144066D01*
X24111881Y-34085281D01*
X24112250Y-34081884D01*
X24112250Y-33443250D01*
X24132252Y-33375129D01*
X24185908Y-33328636D01*
X24238250Y-33317250D01*
X24876884Y-33317250D01*
X24884884Y-33316381D01*
X24939066Y-33310495D01*
X24939330Y-33312924D01*
X24968170Y-33312924D01*
X24968434Y-33310495D01*
X25022617Y-33316381D01*
X25030616Y-33317250D01*
X25676884Y-33317250D01*
X25684884Y-33316381D01*
X25739066Y-33310495D01*
X25739330Y-33312924D01*
X25768170Y-33312924D01*
X25768434Y-33310495D01*
X25822617Y-33316381D01*
X25830616Y-33317250D01*
X26476884Y-33317250D01*
X26484884Y-33316381D01*
X26539066Y-33310495D01*
X26539330Y-33312924D01*
X26568170Y-33312924D01*
X26568434Y-33310495D01*
X26622617Y-33316381D01*
X26630616Y-33317250D01*
X27276884Y-33317250D01*
X27284884Y-33316381D01*
X27339066Y-33310495D01*
X27339298Y-33312634D01*
X27368262Y-33312584D01*
X27368543Y-33310002D01*
X27427264Y-33316381D01*
X27434078Y-33316750D01*
X27481635Y-33316750D01*
X27496874Y-33312275D01*
X27498079Y-33310885D01*
X27502629Y-33289967D01*
X27503847Y-33290232D01*
X27519752Y-33236063D01*
X27550185Y-33203358D01*
X27584830Y-33177393D01*
X27584831Y-33177392D01*
X27592011Y-33172011D01*
X27593518Y-33170000D01*
X27913982Y-33170000D01*
X27915489Y-33172011D01*
G37*
%TD.AperFunction*%
%TD*%
M02*
